<svg width="378" height="110" viewBox="0 0 378 110" fill="none" xmlns="http://www.w3.org/2000/svg">
<path d="M3.91211 84V7.21875H29.0137C37.3457 7.21875 43.6035 8.94141 47.7871 12.3867C52.0059 15.832 54.1152 20.9297 54.1152 27.6797C54.1152 31.2656 53.0957 34.4473 51.0566 37.2246C49.0176 39.9668 46.2402 42.0938 42.7246 43.6055C46.873 44.7656 50.1426 46.9805 52.5332 50.25C54.959 53.4844 56.1719 57.3516 56.1719 61.8516C56.1719 68.7422 53.9395 74.1562 49.4746 78.0938C45.0098 82.0312 38.6992 84 30.543 84H3.91211ZM14.0371 48.0879V75.7207H30.7539C35.4648 75.7207 39.1738 74.5078 41.8809 72.082C44.623 69.6211 45.9941 66.2461 45.9941 61.957C45.9941 52.7109 40.9668 48.0879 30.9121 48.0879H14.0371ZM14.0371 39.9668H29.3301C33.7598 39.9668 37.293 38.8594 39.9297 36.6445C42.6016 34.4297 43.9375 31.4238 43.9375 27.627C43.9375 23.4082 42.707 20.3496 40.2461 18.4512C37.7852 16.5176 34.041 15.5508 29.0137 15.5508H14.0371V39.9668ZM104.898 84C104.336 82.875 103.879 80.8711 103.527 77.9883C98.9922 82.6992 93.5781 85.0547 87.2852 85.0547C81.6602 85.0547 77.0371 83.4727 73.416 80.3086C69.8301 77.1094 68.0371 73.0664 68.0371 68.1797C68.0371 62.2383 70.2871 57.6328 74.7871 54.3633C79.3223 51.0586 85.6855 49.4062 93.877 49.4062H103.369V44.9238C103.369 41.5137 102.35 38.8066 100.311 36.8027C98.2715 34.7637 95.2656 33.7441 91.293 33.7441C87.8125 33.7441 84.8945 34.623 82.5391 36.3809C80.1836 38.1387 79.0059 40.2656 79.0059 42.7617H69.1973C69.1973 39.9141 70.1992 37.1719 72.2031 34.5352C74.2422 31.8633 76.9844 29.7539 80.4297 28.207C83.9102 26.6602 87.7246 25.8867 91.873 25.8867C98.4473 25.8867 103.598 27.5391 107.324 30.8438C111.051 34.1133 112.984 38.6309 113.125 44.3965V70.6582C113.125 75.8965 113.793 80.0625 115.129 83.1562V84H104.898ZM88.709 76.5645C91.7676 76.5645 94.668 75.7734 97.4102 74.1914C100.152 72.6094 102.139 70.5527 103.369 68.0215V56.3145H95.7227C83.7695 56.3145 77.793 59.8125 77.793 66.8086C77.793 69.8672 78.8125 72.2578 80.8516 73.9805C82.8906 75.7031 85.5098 76.5645 88.709 76.5645ZM137.646 26.9414L137.963 34.1133C142.322 28.6289 148.018 25.8867 155.049 25.8867C167.107 25.8867 173.189 32.6895 173.295 46.2949V84H163.539V46.2422C163.504 42.1289 162.555 39.0879 160.691 37.1191C158.863 35.1504 155.998 34.166 152.096 34.166C148.932 34.166 146.154 35.0098 143.764 36.6973C141.373 38.3848 139.51 40.5996 138.174 43.3418V84H128.418V26.9414H137.646ZM203.934 57.5801L197.816 63.9609V84H188.061V3H197.816V51.9902L203.037 45.7148L220.809 26.9414H232.674L210.473 50.7773L235.258 84H223.814L203.934 57.5801ZM253.346 84H243.59V26.9414H253.346V84ZM242.799 11.8066C242.799 10.2246 243.273 8.88867 244.223 7.79883C245.207 6.70898 246.648 6.16406 248.547 6.16406C250.445 6.16406 251.887 6.70898 252.871 7.79883C253.855 8.88867 254.348 10.2246 254.348 11.8066C254.348 13.3887 253.855 14.707 252.871 15.7617C251.887 16.8164 250.445 17.3438 248.547 17.3438C246.648 17.3438 245.207 16.8164 244.223 15.7617C243.273 14.707 242.799 13.3887 242.799 11.8066ZM278.236 26.9414L278.553 34.1133C282.912 28.6289 288.607 25.8867 295.639 25.8867C307.697 25.8867 313.779 32.6895 313.885 46.2949V84H304.129V46.2422C304.094 42.1289 303.145 39.0879 301.281 37.1191C299.453 35.1504 296.588 34.166 292.686 34.166C289.521 34.166 286.744 35.0098 284.354 36.6973C281.963 38.3848 280.1 40.5996 278.764 43.3418V84H269.008V26.9414H278.236ZM326.277 54.9961C326.277 46.1016 328.334 39.0352 332.447 33.7969C336.561 28.5234 342.01 25.8867 348.795 25.8867C355.756 25.8867 361.188 28.3477 365.09 33.2695L365.564 26.9414H374.477V82.6289C374.477 90.0117 372.279 95.8301 367.885 100.084C363.525 104.338 357.654 106.465 350.271 106.465C346.158 106.465 342.133 105.586 338.195 103.828C334.258 102.07 331.252 99.6621 329.178 96.6035L334.24 90.75C338.424 95.918 343.539 98.502 349.586 98.502C354.332 98.502 358.023 97.166 360.66 94.4941C363.332 91.8223 364.668 88.0605 364.668 83.209V78.3047C360.766 82.8047 355.439 85.0547 348.689 85.0547C342.01 85.0547 336.596 82.3652 332.447 76.9863C328.334 71.6074 326.277 64.2773 326.277 54.9961ZM336.086 56.1035C336.086 62.5371 337.404 67.5996 340.041 71.291C342.678 74.9473 346.369 76.7754 351.115 76.7754C357.268 76.7754 361.785 73.9805 364.668 68.3906V42.3398C361.68 36.8906 357.197 34.166 351.221 34.166C346.475 34.166 342.766 36.0117 340.094 39.7031C337.422 43.3945 336.086 48.8613 336.086 56.1035Z" fill="white"/>
<path d="M3.91211 84H0.912109V87H3.91211V84ZM3.91211 7.21875V4.21875H0.912109V7.21875H3.91211ZM47.7871 12.3867L45.88 14.7025L45.8895 14.7103L47.7871 12.3867ZM51.0566 37.2246L53.464 39.0147L53.4695 39.0074L53.4749 39L51.0566 37.2246ZM42.7246 43.6055L41.5395 40.8495L33.7334 44.2061L41.9166 46.4946L42.7246 43.6055ZM52.5332 50.25L50.1115 52.0207L50.1223 52.0354L50.1332 52.05L52.5332 50.25ZM14.0371 48.0879V45.0879H11.0371V48.0879H14.0371ZM14.0371 75.7207H11.0371V78.7207H14.0371V75.7207ZM41.8809 72.082L43.8829 74.3162L43.8846 74.3148L41.8809 72.082ZM14.0371 39.9668H11.0371V42.9668H14.0371V39.9668ZM39.9297 36.6445L38.0151 34.3349L38.0076 34.3411L38.0001 34.3474L39.9297 36.6445ZM40.2461 18.4512L38.3926 20.8101L38.4031 20.8184L38.4137 20.8265L40.2461 18.4512ZM14.0371 15.5508V12.5508H11.0371V15.5508H14.0371ZM6.91211 84V7.21875H0.912109V84H6.91211ZM3.91211 10.2188H29.0137V4.21875H3.91211V10.2188ZM29.0137 10.2188C37.0059 10.2188 42.4558 11.8826 45.88 14.7025L49.6942 10.0709C44.7513 6.00025 37.6855 4.21875 29.0137 4.21875V10.2188ZM45.8895 14.7103C49.2463 17.4517 51.1152 21.5943 51.1152 27.6797H57.1152C57.1152 20.265 54.7655 14.2124 49.6847 10.0631L45.8895 14.7103ZM51.1152 27.6797C51.1152 30.6548 50.2834 33.2086 48.6384 35.4492L53.4749 39C55.908 35.6859 57.1152 31.8764 57.1152 27.6797H51.1152ZM48.6493 35.4345C46.962 37.7036 44.6293 39.5209 41.5395 40.8495L43.9097 46.3615C47.8512 44.6666 51.0732 42.23 53.464 39.0147L48.6493 35.4345ZM41.9166 46.4946C45.4611 47.4859 48.1443 49.3303 50.1115 52.0207L54.9549 48.4793C52.1408 44.6306 48.285 42.0454 43.5326 40.7163L41.9166 46.4946ZM50.1332 52.05C52.1256 54.7066 53.1719 57.9235 53.1719 61.8516H59.1719C59.1719 56.7796 57.7924 52.2622 54.9332 48.45L50.1332 52.05ZM53.1719 61.8516C53.1719 68.031 51.2049 72.5678 47.4903 75.8437L51.4589 80.3438C56.674 75.7447 59.1719 69.4534 59.1719 61.8516H53.1719ZM47.4903 75.8437C43.7477 79.1443 38.2401 81 30.543 81V87C39.1583 87 46.2718 84.9182 51.4589 80.3438L47.4903 75.8437ZM30.543 81H3.91211V87H30.543V81ZM11.0371 48.0879V75.7207H17.0371V48.0879H11.0371ZM14.0371 78.7207H30.7539V72.7207H14.0371V78.7207ZM30.7539 78.7207C35.9792 78.7207 40.4786 77.3668 43.8829 74.3162L39.8788 69.8478C37.869 71.6488 34.9505 72.7207 30.7539 72.7207V78.7207ZM43.8846 74.3148C47.3669 71.1896 48.9941 66.9443 48.9941 61.957H42.9941C42.9941 65.5479 41.8792 68.0526 39.8771 69.8493L43.8846 74.3148ZM48.9941 61.957C48.9941 56.8039 47.5815 52.4066 44.2543 49.3469C40.9746 46.331 36.3424 45.0879 30.9121 45.0879V51.0879C35.5365 51.0879 38.4453 52.1563 40.193 53.7634C41.8931 55.3268 42.9941 57.8641 42.9941 61.957H48.9941ZM30.9121 45.0879H14.0371V51.0879H30.9121V45.0879ZM14.0371 42.9668H29.3301V36.9668H14.0371V42.9668ZM29.3301 42.9668C34.2594 42.9668 38.5428 41.7275 41.8593 38.9416L38.0001 34.3474C36.0431 35.9913 33.2601 36.9668 29.3301 36.9668V42.9668ZM41.8443 38.9542C45.2739 36.1112 46.9375 32.2215 46.9375 27.627H40.9375C40.9375 30.6261 39.9293 32.7482 38.0151 34.3349L41.8443 38.9542ZM46.9375 27.627C46.9375 22.8345 45.5181 18.7293 42.0785 16.0758L38.4137 20.8265C39.8959 21.97 40.9375 23.9819 40.9375 27.627H46.9375ZM42.0996 16.0922C38.8741 13.558 34.3343 12.5508 29.0137 12.5508V18.5508C33.7477 18.5508 36.6962 19.4772 38.3926 20.8101L42.0996 16.0922ZM29.0137 12.5508H14.0371V18.5508H29.0137V12.5508ZM11.0371 15.5508V39.9668H17.0371V15.5508H11.0371ZM104.898 84L102.215 85.3416L103.044 87H104.898V84ZM103.527 77.9883L106.505 77.6251L105.742 71.3626L101.366 75.9077L103.527 77.9883ZM73.416 80.3086L71.4188 82.5472L71.4304 82.5575L71.4421 82.5677L73.416 80.3086ZM74.7871 54.3633L76.5505 56.7903L76.5539 56.7879L74.7871 54.3633ZM103.369 49.4062V52.4062H106.369V49.4062H103.369ZM100.311 36.8027L98.1892 38.9241L98.1984 38.9333L98.2078 38.9424L100.311 36.8027ZM79.0059 42.7617V45.7617H82.0059V42.7617H79.0059ZM69.1973 42.7617H66.1973V45.7617H69.1973V42.7617ZM72.2031 34.5352L69.8183 32.7151L69.8146 32.7199L72.2031 34.5352ZM80.4297 28.207L79.2113 25.4656L79.2009 25.4702L80.4297 28.207ZM107.324 30.8438L105.334 33.0883L105.34 33.0936L105.346 33.0988L107.324 30.8438ZM113.125 44.3965H116.125V44.3599L116.124 44.3233L113.125 44.3965ZM115.129 83.1562H118.129V82.5362L117.883 81.9669L115.129 83.1562ZM115.129 84V87H118.129V84H115.129ZM103.369 68.0215L106.067 69.3331L106.369 68.712V68.0215H103.369ZM103.369 56.3145H106.369V53.3145H103.369V56.3145ZM107.582 82.6584C107.272 82.039 106.855 80.4965 106.505 77.6251L100.549 78.3514C100.902 81.2457 101.4 83.711 102.215 85.3416L107.582 82.6584ZM101.366 75.9077C97.3716 80.057 92.7276 82.0547 87.2852 82.0547V88.0547C94.4287 88.0547 100.613 85.3415 105.689 80.0689L101.366 75.9077ZM87.2852 82.0547C82.2558 82.0547 78.3737 80.6566 75.39 78.0495L71.4421 82.5677C75.7006 86.2887 81.0645 88.0547 87.2852 88.0547V82.0547ZM75.4132 78.07C72.4775 75.4509 71.0371 72.2279 71.0371 68.1797H65.0371C65.0371 73.9049 67.1827 78.7679 71.4188 82.5472L75.4132 78.07ZM71.0371 68.1797C71.0371 63.122 72.8874 59.4518 76.5505 56.7903L73.0237 51.9363C67.6869 55.8138 65.0371 61.3546 65.0371 68.1797H71.0371ZM76.5539 56.7879C80.3885 53.9936 86.041 52.4062 93.877 52.4062V46.4062C85.3301 46.4062 78.256 48.1236 73.0204 51.9387L76.5539 56.7879ZM93.877 52.4062H103.369V46.4062H93.877V52.4062ZM106.369 49.4062V44.9238H100.369V49.4062H106.369ZM106.369 44.9238C106.369 40.8758 105.135 37.3381 102.413 34.663L98.2078 38.9424C99.5639 40.2752 100.369 42.1515 100.369 44.9238H106.369ZM102.432 34.6814C99.6452 31.8947 95.7545 30.7441 91.293 30.7441V36.7441C94.7767 36.7441 96.8978 37.6326 98.1892 38.9241L102.432 34.6814ZM91.293 30.7441C87.2888 30.7441 83.7091 31.7644 80.7448 33.9766L84.3333 38.7852C86.08 37.4817 88.3362 36.7441 91.293 36.7441V30.7441ZM80.7448 33.9766C77.783 36.1869 76.0059 39.1435 76.0059 42.7617H82.0059C82.0059 41.3877 82.5842 40.0905 84.3333 38.7852L80.7448 33.9766ZM79.0059 39.7617H69.1973V45.7617H79.0059V39.7617ZM72.1973 42.7617C72.1973 40.6728 72.9172 38.5536 74.5916 36.3504L69.8146 32.7199C67.4813 35.7901 66.1973 39.1553 66.1973 42.7617H72.1973ZM74.588 36.3552C76.2881 34.1274 78.6116 32.3118 81.6585 30.9438L79.2009 25.4702C75.3572 27.196 72.1963 29.5991 69.8183 32.7151L74.588 36.3552ZM81.6481 30.9485C84.7119 29.5868 88.1065 28.8867 91.873 28.8867V22.8867C87.3427 22.8867 83.1084 23.7335 79.2113 25.4656L81.6481 30.9485ZM91.873 28.8867C97.9528 28.8867 102.312 30.4085 105.334 33.0883L109.315 28.5992C104.884 24.6697 98.9418 22.8867 91.873 22.8867V28.8867ZM105.346 33.0988C108.338 35.7239 110.002 39.3921 110.126 44.4696L116.124 44.3233C115.967 37.8696 113.764 32.5027 109.303 28.5887L105.346 33.0988ZM110.125 44.3965V70.6582H116.125V44.3965H110.125ZM110.125 70.6582C110.125 76.1026 110.812 80.7264 112.375 84.3456L117.883 81.9669C116.774 79.3986 116.125 75.6903 116.125 70.6582H110.125ZM112.129 83.1562V84H118.129V83.1562H112.129ZM115.129 81H104.898V87H115.129V81ZM88.709 79.5645C92.3128 79.5645 95.728 78.6254 98.9093 76.79L95.911 71.5928C93.608 72.9215 91.2224 73.5645 88.709 73.5645V79.5645ZM98.9093 76.79C102.104 74.9471 104.543 72.4692 106.067 69.3331L100.671 66.7099C99.7346 68.6362 98.2011 70.2716 95.911 71.5928L98.9093 76.79ZM106.369 68.0215V56.3145H100.369V68.0215H106.369ZM103.369 53.3145H95.7227V59.3145H103.369V53.3145ZM95.7227 53.3145C89.5517 53.3145 84.4313 54.2 80.76 56.3489C76.8406 58.6429 74.793 62.2586 74.793 66.8086H80.793C80.793 64.3624 81.7337 62.7311 83.7908 61.5271C86.096 60.1779 89.9405 59.3145 95.7227 59.3145V53.3145ZM74.793 66.8086C74.793 70.6067 76.0991 73.8928 78.9155 76.2721L82.7876 71.6888C81.5259 70.6229 80.793 69.1277 80.793 66.8086H74.793ZM78.9155 76.2721C81.5986 78.5388 84.948 79.5645 88.709 79.5645V73.5645C86.0715 73.5645 84.1827 72.8674 82.7876 71.6888L78.9155 76.2721ZM137.646 26.9414L140.644 26.8092L140.517 23.9414H137.646V26.9414ZM137.963 34.1133L134.966 34.2455L135.319 42.2602L140.311 35.98L137.963 34.1133ZM173.295 46.2949H176.295V46.2833L176.295 46.2717L173.295 46.2949ZM173.295 84V87H176.295V84H173.295ZM163.539 84H160.539V87H163.539V84ZM163.539 46.2422H166.539V46.2294L166.539 46.2165L163.539 46.2422ZM160.691 37.1191L158.493 39.1605L158.503 39.1709L158.513 39.1813L160.691 37.1191ZM138.174 43.3418L135.477 42.0279L135.174 42.6499V43.3418H138.174ZM138.174 84V87H141.174V84H138.174ZM128.418 84H125.418V87H128.418V84ZM128.418 26.9414V23.9414H125.418V26.9414H128.418ZM134.649 27.0736L134.966 34.2455L140.96 33.9811L140.644 26.8092L134.649 27.0736ZM140.311 35.98C144.099 31.2147 148.928 28.8867 155.049 28.8867V22.8867C147.107 22.8867 140.545 26.0431 135.614 32.2465L140.311 35.98ZM155.049 28.8867C160.514 28.8867 164.114 30.4115 166.418 32.9883C168.782 35.6325 170.245 39.8967 170.295 46.3182L176.295 46.2717C176.239 39.0877 174.609 33.1478 170.891 28.9892C167.113 24.7633 161.642 22.8867 155.049 22.8867V28.8867ZM170.295 46.2949V84H176.295V46.2949H170.295ZM173.295 81H163.539V87H173.295V81ZM166.539 84V46.2422H160.539V84H166.539ZM166.539 46.2165C166.501 41.7269 165.468 37.8021 162.87 35.057L158.513 39.1813C159.641 40.3736 160.507 42.5309 160.539 46.2678L166.539 46.2165ZM162.89 35.0778C160.278 32.2649 156.45 31.166 152.096 31.166V37.166C155.546 37.166 157.449 38.0359 158.493 39.1605L162.89 35.0778ZM152.096 31.166C148.365 31.166 144.972 32.1722 142.034 34.2464L145.494 39.1482C147.337 37.8474 149.498 37.166 152.096 37.166V31.166ZM142.034 34.2464C139.212 36.2379 137.024 38.8513 135.477 42.0279L140.871 44.6557C141.995 42.3479 143.534 40.5316 145.494 39.1482L142.034 34.2464ZM135.174 43.3418V84H141.174V43.3418H135.174ZM138.174 81H128.418V87H138.174V81ZM131.418 84V26.9414H125.418V84H131.418ZM128.418 29.9414H137.646V23.9414H128.418V29.9414ZM203.934 57.5801L206.331 55.7763L204.209 52.9573L201.768 55.504L203.934 57.5801ZM197.816 63.9609L195.651 61.8848L194.816 62.7552V63.9609H197.816ZM197.816 84V87H200.816V84H197.816ZM188.061 84H185.061V87H188.061V84ZM188.061 3V0H185.061V3H188.061ZM197.816 3H200.816V0H197.816V3ZM197.816 51.9902H194.816V60.2871L200.123 53.9089L197.816 51.9902ZM203.037 45.7148L200.858 43.6525L200.792 43.7223L200.731 43.7962L203.037 45.7148ZM220.809 26.9414V23.9414H219.518L218.63 24.879L220.809 26.9414ZM232.674 26.9414L234.869 28.9861L239.568 23.9414H232.674V26.9414ZM210.473 50.7773L208.277 48.7326L206.571 50.5646L208.068 52.5712L210.473 50.7773ZM235.258 84V87H241.239L237.662 82.2061L235.258 84ZM223.814 84L221.417 85.8038L222.317 87H223.814V84ZM201.768 55.504L195.651 61.8848L199.982 66.037L206.099 59.6562L201.768 55.504ZM194.816 63.9609V84H200.816V63.9609H194.816ZM197.816 81H188.061V87H197.816V81ZM191.061 84V3H185.061V84H191.061ZM188.061 6H197.816V0H188.061V6ZM194.816 3V51.9902H200.816V3H194.816ZM200.123 53.9089L205.343 47.6335L200.731 43.7962L195.51 50.0716L200.123 53.9089ZM205.216 47.7772L222.987 29.0038L218.63 24.879L200.858 43.6525L205.216 47.7772ZM220.809 29.9414H232.674V23.9414H220.809V29.9414ZM230.479 24.8967L208.277 48.7326L212.668 52.822L234.869 28.9861L230.479 24.8967ZM208.068 52.5712L232.853 85.7939L237.662 82.2061L212.877 48.9835L208.068 52.5712ZM235.258 81H223.814V87H235.258V81ZM226.212 82.1962L206.331 55.7763L201.536 59.3839L221.417 85.8038L226.212 82.1962ZM253.346 84V87H256.346V84H253.346ZM243.59 84H240.59V87H243.59V84ZM243.59 26.9414V23.9414H240.59V26.9414H243.59ZM253.346 26.9414H256.346V23.9414H253.346V26.9414ZM244.223 7.79883L241.996 5.78797L241.978 5.80807L241.96 5.82849L244.223 7.79883ZM244.223 15.7617L241.993 17.7686L242.011 17.7888L242.029 17.8087L244.223 15.7617ZM253.346 81H243.59V87H253.346V81ZM246.59 84V26.9414H240.59V84H246.59ZM243.59 29.9414H253.346V23.9414H243.59V29.9414ZM250.346 26.9414V84H256.346V26.9414H250.346ZM245.799 11.8066C245.799 10.875 246.058 10.2596 246.485 9.76917L241.96 5.82849C240.489 7.51776 239.799 9.57418 239.799 11.8066H245.799ZM246.449 9.80969C246.709 9.5218 247.233 9.16406 248.547 9.16406V3.16406C246.064 3.16406 243.705 3.89616 241.996 5.78797L246.449 9.80969ZM248.547 9.16406C249.86 9.16406 250.385 9.5218 250.645 9.80969L255.097 5.78797C253.389 3.89616 251.03 3.16406 248.547 3.16406V9.16406ZM250.645 9.80969C251.091 10.3035 251.348 10.9051 251.348 11.8066H257.348C257.348 9.5441 256.62 7.47383 255.097 5.78797L250.645 9.80969ZM251.348 11.8066C251.348 12.7087 251.092 13.2713 250.678 13.7148L255.064 17.8087C256.619 16.1427 257.348 14.0687 257.348 11.8066H251.348ZM250.678 13.7148C250.425 13.9857 249.889 14.3438 248.547 14.3438V20.3438C251.001 20.3438 253.348 19.6471 255.064 17.8087L250.678 13.7148ZM248.547 14.3438C247.204 14.3438 246.669 13.9857 246.416 13.7148L242.029 17.8087C243.745 19.6471 246.093 20.3438 248.547 20.3438V14.3438ZM246.453 13.7548C246.057 13.3156 245.799 12.7393 245.799 11.8066H239.799C239.799 14.038 240.49 16.0985 241.993 17.7686L246.453 13.7548ZM278.236 26.9414L281.233 26.8092L281.107 23.9414H278.236V26.9414ZM278.553 34.1133L275.556 34.2455L275.909 42.2602L280.901 35.98L278.553 34.1133ZM313.885 46.2949H316.885V46.2833L316.885 46.2717L313.885 46.2949ZM313.885 84V87H316.885V84H313.885ZM304.129 84H301.129V87H304.129V84ZM304.129 46.2422H307.129V46.2294L307.129 46.2165L304.129 46.2422ZM301.281 37.1191L299.083 39.1605L299.093 39.1709L299.102 39.1813L301.281 37.1191ZM278.764 43.3418L276.067 42.0279L275.764 42.6499V43.3418H278.764ZM278.764 84V87H281.764V84H278.764ZM269.008 84H266.008V87H269.008V84ZM269.008 26.9414V23.9414H266.008V26.9414H269.008ZM275.239 27.0736L275.556 34.2455L281.55 33.9811L281.233 26.8092L275.239 27.0736ZM280.901 35.98C284.689 31.2147 289.518 28.8867 295.639 28.8867V22.8867C287.697 22.8867 281.135 26.0431 276.204 32.2465L280.901 35.98ZM295.639 28.8867C301.104 28.8867 304.704 30.4115 307.008 32.9883C309.372 35.6325 310.835 39.8967 310.885 46.3182L316.885 46.2717C316.829 39.0877 315.199 33.1478 311.481 28.9892C307.702 24.7633 302.232 22.8867 295.639 22.8867V28.8867ZM310.885 46.2949V84H316.885V46.2949H310.885ZM313.885 81H304.129V87H313.885V81ZM307.129 84V46.2422H301.129V84H307.129ZM307.129 46.2165C307.09 41.7269 306.058 37.8021 303.46 35.057L299.102 39.1813C300.231 40.3736 301.097 42.5309 301.129 46.2678L307.129 46.2165ZM303.48 35.0778C300.868 32.2649 297.04 31.166 292.686 31.166V37.166C296.136 37.166 298.039 38.0359 299.083 39.1605L303.48 35.0778ZM292.686 31.166C288.955 31.166 285.562 32.1722 282.623 34.2464L286.084 39.1482C287.926 37.8474 290.088 37.166 292.686 37.166V31.166ZM282.623 34.2464C279.802 36.2379 277.614 38.8513 276.067 42.0279L281.461 44.6557C282.585 42.3479 284.124 40.5316 286.084 39.1482L282.623 34.2464ZM275.764 43.3418V84H281.764V43.3418H275.764ZM278.764 81H269.008V87H278.764V81ZM272.008 84V26.9414H266.008V84H272.008ZM269.008 29.9414H278.236V23.9414H269.008V29.9414ZM332.447 33.7969L334.807 35.6497L334.813 35.642L332.447 33.7969ZM365.09 33.2695L362.739 35.1334L367.507 41.1475L368.081 33.4939L365.09 33.2695ZM365.564 26.9414V23.9414H362.781L362.573 26.717L365.564 26.9414ZM374.477 26.9414H377.477V23.9414H374.477V26.9414ZM367.885 100.084L365.798 97.9284L365.79 97.9369L367.885 100.084ZM329.178 96.6035L326.909 94.6411L325.403 96.3822L326.695 98.2873L329.178 96.6035ZM334.24 90.75L336.572 88.8624L334.316 86.076L331.971 88.7875L334.24 90.75ZM360.66 94.4941L358.539 92.3728L358.532 92.3798L358.525 92.3869L360.66 94.4941ZM364.668 78.3047H367.668V70.2662L362.401 76.3392L364.668 78.3047ZM332.447 76.9863L330.064 78.8087L330.072 78.8185L332.447 76.9863ZM340.041 71.291L337.6 73.0348L337.608 73.0458L340.041 71.291ZM364.668 68.3906L367.334 69.7657L367.668 69.1187V68.3906H364.668ZM364.668 42.3398H367.668V41.5713L367.298 40.8973L364.668 42.3398ZM329.277 54.9961C329.277 46.5485 331.229 40.2062 334.807 35.6496L330.088 31.9441C325.439 37.8641 323.277 45.6546 323.277 54.9961H329.277ZM334.813 35.642C338.348 31.1097 342.918 28.8867 348.795 28.8867V22.8867C341.101 22.8867 334.773 25.9372 330.082 31.9518L334.813 35.642ZM348.795 28.8867C354.953 28.8867 359.472 31.0133 362.739 35.1334L367.441 31.4057C362.903 25.682 356.559 22.8867 348.795 22.8867V28.8867ZM368.081 33.4939L368.556 27.1658L362.573 26.717L362.098 33.0452L368.081 33.4939ZM365.564 29.9414H374.477V23.9414H365.564V29.9414ZM371.477 26.9414V82.6289H377.477V26.9414H371.477ZM371.477 82.6289C371.477 89.3799 369.491 94.3541 365.798 97.9285L369.971 102.24C375.068 97.306 377.477 90.6436 377.477 82.6289H371.477ZM365.79 97.9369C362.105 101.532 357.048 103.465 350.271 103.465V109.465C358.261 109.465 364.945 107.144 369.98 102.231L365.79 97.9369ZM350.271 103.465C346.6 103.465 342.99 102.683 339.418 101.089L336.972 106.568C341.276 108.489 345.716 109.465 350.271 109.465V103.465ZM339.418 101.089C335.904 99.52 333.372 97.4434 331.661 94.9197L326.695 98.2873C329.132 101.881 332.611 104.621 336.972 106.568L339.418 101.089ZM331.447 98.566L336.509 92.7125L331.971 88.7875L326.909 94.6411L331.447 98.566ZM331.909 92.6376C336.597 98.4294 342.536 101.502 349.586 101.502V95.502C344.542 95.502 340.251 93.4065 336.572 88.8624L331.909 92.6376ZM349.586 101.502C354.911 101.502 359.455 99.9861 362.795 96.6014L358.525 92.3869C356.592 94.3459 353.753 95.502 349.586 95.502V101.502ZM362.781 96.6155C366.164 93.2333 367.668 88.6197 367.668 83.209H361.668C361.668 87.5014 360.5 90.4112 358.539 92.3728L362.781 96.6155ZM367.668 83.209V78.3047H361.668V83.209H367.668ZM362.401 76.3392C359.148 80.0904 354.699 82.0547 348.689 82.0547V88.0547C356.18 88.0547 362.383 85.519 366.934 80.2702L362.401 76.3392ZM348.689 82.0547C342.958 82.0547 338.415 79.8112 334.823 75.1542L330.072 78.8185C334.777 84.9192 341.061 88.0547 348.689 88.0547V82.0547ZM334.83 75.164C331.242 70.4718 329.277 63.8593 329.277 54.9961H323.277C323.277 64.6954 325.426 72.7431 330.064 78.8087L334.83 75.164ZM333.086 56.1035C333.086 62.9099 334.476 68.6617 337.6 73.0347L342.482 69.5473C340.332 66.5375 339.086 62.1644 339.086 56.1035H333.086ZM337.608 73.0458C340.843 77.5314 345.465 79.7754 351.115 79.7754V73.7754C347.273 73.7754 344.513 72.3632 342.474 69.5363L337.608 73.0458ZM351.115 79.7754C354.659 79.7754 357.892 78.9652 360.696 77.2304C363.496 75.498 365.69 72.9543 367.334 69.7657L362.002 67.0155C360.763 69.4167 359.257 71.0655 357.539 72.128C355.826 73.1882 353.724 73.7754 351.115 73.7754V79.7754ZM367.668 68.3906V42.3398H361.668V68.3906H367.668ZM367.298 40.8973C365.598 37.7971 363.391 35.3281 360.623 33.6459C357.85 31.9601 354.68 31.166 351.221 31.166V37.166C353.738 37.166 355.798 37.7343 357.507 38.773C359.222 39.8155 360.749 41.4333 362.038 43.7823L367.298 40.8973ZM351.221 31.166C345.56 31.166 340.927 33.4359 337.664 37.9441L342.524 41.4621C344.605 38.5876 347.39 37.166 351.221 37.166V31.166ZM337.664 37.9441C334.461 42.3692 333.086 48.5739 333.086 56.1035H339.086C339.086 49.1488 340.383 44.4199 342.524 41.4621L337.664 37.9441Z" fill="#90EE90"/>
</svg>
