<svg width="306" height="234" viewBox="0 0 306 234" fill="none" xmlns="http://www.w3.org/2000/svg">
<path d="M62.6016 70.9277C60 74.6543 56.3613 77.4492 51.6855 79.3125C47.0449 81.1406 41.6309 82.0547 35.4434 82.0547C29.1855 82.0547 23.6309 80.5957 18.7793 77.6777C13.9277 74.7246 10.166 70.541 7.49414 65.127C4.85742 59.7129 3.50391 53.4375 3.43359 46.3008V39.6035C3.43359 28.0371 6.12305 19.0723 11.502 12.709C16.916 6.3457 24.5098 3.16406 34.2832 3.16406C42.2988 3.16406 48.75 5.2207 53.6367 9.33398C58.5234 13.4121 61.5117 19.2129 62.6016 26.7363H52.4766C50.5781 16.5762 44.5312 11.4961 34.3359 11.4961C27.5508 11.4961 22.4004 13.8867 18.8848 18.668C15.4043 23.4141 13.6465 30.3047 13.6113 39.3398V45.6152C13.6113 54.2285 15.5801 61.084 19.5176 66.1816C23.4551 71.2441 28.7812 73.7754 35.4961 73.7754C39.293 73.7754 42.6152 73.3535 45.4629 72.5098C48.3105 71.666 50.666 70.2422 52.5293 68.2383V50.9941H34.7578V42.7676H62.6016V70.9277ZM105.58 32.6953C104.104 32.4492 102.504 32.3262 100.781 32.3262C94.3828 32.3262 90.041 35.0508 87.7559 40.5V81H78V23.9414H87.4922L87.6504 30.5332C90.8496 25.4355 95.3848 22.8867 101.256 22.8867C103.154 22.8867 104.596 23.1328 105.58 23.625V32.6953ZM137.221 82.0547C129.486 82.0547 123.193 79.5234 118.342 74.4609C113.49 69.3633 111.064 62.5605 111.064 54.0527V52.2598C111.064 46.5996 112.137 41.5547 114.281 37.125C116.461 32.6602 119.484 29.1797 123.352 26.6836C127.254 24.1523 131.473 22.8867 136.008 22.8867C143.426 22.8867 149.191 25.3301 153.305 30.2168C157.418 35.1035 159.475 42.0996 159.475 51.2051V55.2656H120.82C120.961 60.8906 122.596 65.4434 125.725 68.9238C128.889 72.3691 132.896 74.0918 137.748 74.0918C141.193 74.0918 144.111 73.3887 146.502 71.9824C148.893 70.5762 150.984 68.7129 152.777 66.3926L158.736 71.0332C153.955 78.3809 146.783 82.0547 137.221 82.0547ZM136.008 30.9023C132.07 30.9023 128.766 32.3438 126.094 35.2266C123.422 38.0742 121.77 42.082 121.137 47.25H149.719V46.5117C149.438 41.5547 148.102 37.7227 145.711 35.0156C143.32 32.2734 140.086 30.9023 136.008 30.9023ZM194.49 82.0547C186.756 82.0547 180.463 79.5234 175.611 74.4609C170.76 69.3633 168.334 62.5605 168.334 54.0527V52.2598C168.334 46.5996 169.406 41.5547 171.551 37.125C173.73 32.6602 176.754 29.1797 180.621 26.6836C184.523 24.1523 188.742 22.8867 193.277 22.8867C200.695 22.8867 206.461 25.3301 210.574 30.2168C214.688 35.1035 216.744 42.0996 216.744 51.2051V55.2656H178.09C178.23 60.8906 179.865 65.4434 182.994 68.9238C186.158 72.3691 190.166 74.0918 195.018 74.0918C198.463 74.0918 201.381 73.3887 203.771 71.9824C206.162 70.5762 208.254 68.7129 210.047 66.3926L216.006 71.0332C211.225 78.3809 204.053 82.0547 194.49 82.0547ZM193.277 30.9023C189.34 30.9023 186.035 32.3438 183.363 35.2266C180.691 38.0742 179.039 42.082 178.406 47.25H206.988V46.5117C206.707 41.5547 205.371 37.7227 202.98 35.0156C200.59 32.2734 197.355 30.9023 193.277 30.9023ZM237.311 23.9414L237.627 31.1133C241.986 25.6289 247.682 22.8867 254.713 22.8867C266.771 22.8867 272.854 29.6895 272.959 43.2949V81H263.203V43.2422C263.168 39.1289 262.219 36.0879 260.355 34.1191C258.527 32.1504 255.662 31.166 251.76 31.166C248.596 31.166 245.818 32.0098 243.428 33.6973C241.037 35.3848 239.174 37.5996 237.838 40.3418V81H228.082V23.9414H237.311ZM5.91211 208V131.219H31.0137C39.3457 131.219 45.6035 132.941 49.7871 136.387C54.0059 139.832 56.1152 144.93 56.1152 151.68C56.1152 155.266 55.0957 158.447 53.0566 161.225C51.0176 163.967 48.2402 166.094 44.7246 167.605C48.873 168.766 52.1426 170.98 54.5332 174.25C56.959 177.484 58.1719 181.352 58.1719 185.852C58.1719 192.742 55.9395 198.156 51.4746 202.094C47.0098 206.031 40.6992 208 32.543 208H5.91211ZM16.0371 172.088V199.721H32.7539C37.4648 199.721 41.1738 198.508 43.8809 196.082C46.623 193.621 47.9941 190.246 47.9941 185.957C47.9941 176.711 42.9668 172.088 32.9121 172.088H16.0371ZM16.0371 163.967H31.3301C35.7598 163.967 39.293 162.859 41.9297 160.645C44.6016 158.43 45.9375 155.424 45.9375 151.627C45.9375 147.408 44.707 144.35 42.2461 142.451C39.7852 140.518 36.041 139.551 31.0137 139.551H16.0371V163.967ZM99.252 159.695C97.7754 159.449 96.1758 159.326 94.4531 159.326C88.0547 159.326 83.7129 162.051 81.4277 167.5V208H71.6719V150.941H81.1641L81.3223 157.533C84.5215 152.436 89.0566 149.887 94.9277 149.887C96.8262 149.887 98.2676 150.133 99.252 150.625V159.695ZM118.869 208H109.113V150.941H118.869V208ZM108.322 135.807C108.322 134.225 108.797 132.889 109.746 131.799C110.73 130.709 112.172 130.164 114.07 130.164C115.969 130.164 117.41 130.709 118.395 131.799C119.379 132.889 119.871 134.225 119.871 135.807C119.871 137.389 119.379 138.707 118.395 139.762C117.41 140.816 115.969 141.344 114.07 141.344C112.172 141.344 110.73 140.816 109.746 139.762C108.797 138.707 108.322 137.389 108.322 135.807ZM132.158 178.996C132.158 170.242 134.232 163.211 138.381 157.902C142.529 152.559 147.961 149.887 154.676 149.887C161.355 149.887 166.646 152.172 170.549 156.742V127H180.305V208H171.34L170.865 201.883C166.963 206.664 161.531 209.055 154.57 209.055C147.961 209.055 142.564 206.348 138.381 200.934C134.232 195.52 132.158 188.453 132.158 179.734V178.996ZM141.914 180.104C141.914 186.572 143.25 191.635 145.922 195.291C148.594 198.947 152.285 200.775 156.996 200.775C163.184 200.775 167.701 197.998 170.549 192.443V166.234C167.631 160.855 163.148 158.166 157.102 158.166C152.32 158.166 148.594 160.012 145.922 163.703C143.25 167.395 141.914 172.861 141.914 180.104ZM193.172 178.996C193.172 170.102 195.229 163.035 199.342 157.797C203.455 152.523 208.904 149.887 215.689 149.887C222.65 149.887 228.082 152.348 231.984 157.27L232.459 150.941H241.371V206.629C241.371 214.012 239.174 219.83 234.779 224.084C230.42 228.338 224.549 230.465 217.166 230.465C213.053 230.465 209.027 229.586 205.09 227.828C201.152 226.07 198.146 223.662 196.072 220.604L201.135 214.75C205.318 219.918 210.434 222.502 216.48 222.502C221.227 222.502 224.918 221.166 227.555 218.494C230.227 215.822 231.562 212.061 231.562 207.209V202.305C227.66 206.805 222.334 209.055 215.584 209.055C208.904 209.055 203.49 206.365 199.342 200.986C195.229 195.607 193.172 188.277 193.172 178.996ZM202.98 180.104C202.98 186.537 204.299 191.6 206.936 195.291C209.572 198.947 213.264 200.775 218.01 200.775C224.162 200.775 228.68 197.98 231.562 192.391V166.34C228.574 160.891 224.092 158.166 218.115 158.166C213.369 158.166 209.66 160.012 206.988 163.703C204.316 167.395 202.98 172.861 202.98 180.104ZM279.814 209.055C272.08 209.055 265.787 206.523 260.936 201.461C256.084 196.363 253.658 189.561 253.658 181.053V179.26C253.658 173.6 254.73 168.555 256.875 164.125C259.055 159.66 262.078 156.18 265.945 153.684C269.848 151.152 274.066 149.887 278.602 149.887C286.02 149.887 291.785 152.33 295.898 157.217C300.012 162.104 302.068 169.1 302.068 178.205V182.266H263.414C263.555 187.891 265.189 192.443 268.318 195.924C271.482 199.369 275.49 201.092 280.342 201.092C283.787 201.092 286.705 200.389 289.096 198.982C291.486 197.576 293.578 195.713 295.371 193.393L301.33 198.033C296.549 205.381 289.377 209.055 279.814 209.055ZM278.602 157.902C274.664 157.902 271.359 159.344 268.688 162.227C266.016 165.074 264.363 169.082 263.73 174.25H292.312V173.512C292.031 168.555 290.695 164.723 288.305 162.016C285.914 159.273 282.68 157.902 278.602 157.902Z" fill="#90EE90"/>
<path d="M62.6016 70.9277L65.0614 72.645L65.6016 71.8713V70.9277H62.6016ZM51.6855 79.3125L52.7851 82.1037L52.7961 82.0994L51.6855 79.3125ZM18.7793 77.6777L17.2195 80.2403L17.2263 80.2445L17.2331 80.2486L18.7793 77.6777ZM7.49414 65.127L4.79699 66.4405L4.80043 66.4476L4.80391 66.4546L7.49414 65.127ZM3.43359 46.3008H0.433594V46.3156L0.433739 46.3303L3.43359 46.3008ZM11.502 12.709L9.21706 10.7649L9.21083 10.7723L11.502 12.709ZM53.6367 9.33398L51.7048 11.6292L51.7145 11.6373L53.6367 9.33398ZM62.6016 26.7363V29.7363H66.0675L65.5706 26.3062L62.6016 26.7363ZM52.4766 26.7363L49.5276 27.2873L49.9852 29.7363H52.4766V26.7363ZM18.8848 18.668L16.4678 16.8908L16.4656 16.8939L18.8848 18.668ZM13.6113 39.3398L10.6113 39.3282V39.3398H13.6113ZM19.5176 66.1816L17.1434 68.0155L17.1495 68.0235L19.5176 66.1816ZM52.5293 68.2383L54.7263 70.2811L55.5293 69.4175V68.2383H52.5293ZM52.5293 50.9941H55.5293V47.9941H52.5293V50.9941ZM34.7578 50.9941H31.7578V53.9941H34.7578V50.9941ZM34.7578 42.7676V39.7676H31.7578V42.7676H34.7578ZM62.6016 42.7676H65.6016V39.7676H62.6016V42.7676ZM60.1417 69.2105C57.9113 72.4053 54.7669 74.8552 50.575 76.5256L52.7961 82.0994C57.9557 80.0433 62.0887 76.9033 65.0614 72.645L60.1417 69.2105ZM50.586 76.5213C46.3686 78.1827 41.3419 79.0547 35.4434 79.0547V85.0547C41.9198 85.0547 47.7213 84.0986 52.7851 82.1037L50.586 76.5213ZM35.4434 79.0547C29.6713 79.0547 24.662 77.7151 20.3255 75.1069L17.2331 80.2486C22.5997 83.4763 28.6998 85.0547 35.4434 85.0547V79.0547ZM20.3391 75.1151C16.005 72.477 12.6209 68.7364 10.1844 63.7993L4.80391 66.4546C7.71115 72.3456 11.8505 76.9722 17.2195 80.2403L20.3391 75.1151ZM10.1913 63.8134C7.78232 58.867 6.50018 53.0444 6.43345 46.2712L0.433739 46.3303C0.507634 53.8306 1.93253 60.5588 4.79699 66.4405L10.1913 63.8134ZM6.43359 46.3008V39.6035H0.433594V46.3008H6.43359ZM6.43359 39.6035C6.43359 28.4727 9.02195 20.2899 13.7931 14.6457L9.21083 10.7723C3.22414 17.8546 0.433594 27.6016 0.433594 39.6035H6.43359ZM13.7868 14.653C18.5317 9.07623 25.2239 6.16406 34.2832 6.16406V0.164062C23.7956 0.164062 15.3003 3.61518 9.21707 10.7649L13.7868 14.653ZM34.2832 6.16406C41.7773 6.16406 47.4856 8.07769 51.7048 11.6291L55.5686 7.03882C50.0144 2.36372 42.8203 0.164062 34.2832 0.164062V6.16406ZM51.7145 11.6373C55.9267 15.1525 58.627 20.225 59.6326 27.1664L65.5706 26.3062C64.3964 18.2008 61.1201 11.6717 55.5589 7.03068L51.7145 11.6373ZM62.6016 23.7363H52.4766V29.7363H62.6016V23.7363ZM55.4255 26.1853C54.3886 20.6358 52.1474 16.1177 48.4473 13.0092C44.7423 9.89652 39.9303 8.49609 34.3359 8.49609V14.4961C38.9369 14.4961 42.246 15.6357 44.5878 17.6031C46.9347 19.5747 48.6661 22.6767 49.5276 27.2873L55.4255 26.1853ZM34.3359 8.49609C26.7531 8.49609 20.6355 11.2227 16.4678 16.8908L21.3017 20.4451C24.1652 16.5507 28.3484 14.4961 34.3359 14.4961V8.49609ZM16.4656 16.8939C12.4577 22.3591 10.6477 29.9774 10.6114 39.3282L16.6113 39.3515C16.6452 30.632 18.3509 24.469 21.304 20.4421L16.4656 16.8939ZM10.6113 39.3398V45.6152H16.6113V39.3398H10.6113ZM10.6113 45.6152C10.6113 54.6694 12.6823 62.24 17.1434 68.0155L21.8918 64.3478C18.4779 59.928 16.6113 53.7876 16.6113 45.6152H10.6113ZM17.1495 68.0235C21.6857 73.8557 27.906 76.7754 35.4961 76.7754V70.7754C29.6565 70.7754 25.2244 68.6326 21.8856 64.3398L17.1495 68.0235ZM35.4961 76.7754C39.5055 76.7754 43.1264 76.331 46.3152 75.3862L44.6106 69.6334C42.1041 70.376 39.0804 70.7754 35.4961 70.7754V76.7754ZM46.3152 75.3862C49.6321 74.4033 52.4665 72.7115 54.7263 70.2811L50.3323 66.1954C48.8656 67.7729 46.9889 68.9287 44.6106 69.6334L46.3152 75.3862ZM55.5293 68.2383V50.9941H49.5293V68.2383H55.5293ZM52.5293 47.9941H34.7578V53.9941H52.5293V47.9941ZM37.7578 50.9941V42.7676H31.7578V50.9941H37.7578ZM34.7578 45.7676H62.6016V39.7676H34.7578V45.7676ZM59.6016 42.7676V70.9277H65.6016V42.7676H59.6016ZM105.58 32.6953L105.087 35.6545L108.58 36.2367V32.6953H105.58ZM87.7559 40.5L84.9893 39.3398L84.7559 39.8964V40.5H87.7559ZM87.7559 81V84H90.7559V81H87.7559ZM78 81H75V84H78V81ZM78 23.9414V20.9414H75V23.9414H78ZM87.4922 23.9414L90.4913 23.8694L90.4211 20.9414H87.4922V23.9414ZM87.6504 30.5332L84.6513 30.6052L84.8905 40.5744L90.1914 32.1279L87.6504 30.5332ZM105.58 23.625H108.58V21.7709L106.922 20.9417L105.58 23.625ZM106.073 29.7361C104.412 29.4592 102.645 29.3262 100.781 29.3262V35.3262C102.363 35.3262 103.795 35.4393 105.087 35.6545L106.073 29.7361ZM100.781 29.3262C97.1574 29.3262 93.886 30.1 91.1315 31.8285C88.36 33.5677 86.3332 36.1352 84.9893 39.3398L90.5224 41.6602C91.4637 39.4156 92.7504 37.8961 94.3207 36.9107C95.908 35.9147 98.0066 35.3262 100.781 35.3262V29.3262ZM84.7559 40.5V81H90.7559V40.5H84.7559ZM87.7559 78H78V84H87.7559V78ZM81 81V23.9414H75V81H81ZM78 26.9414H87.4922V20.9414H78V26.9414ZM84.493 24.0134L84.6513 30.6052L90.6495 30.4612L90.4913 23.8694L84.493 24.0134ZM90.1914 32.1279C92.8586 27.878 96.4483 25.8867 101.256 25.8867V19.8867C94.3213 19.8867 88.8406 22.9931 85.1094 28.9385L90.1914 32.1279ZM101.256 25.8867C102.98 25.8867 103.87 26.1243 104.238 26.3083L106.922 20.9417C105.321 20.1413 103.328 19.8867 101.256 19.8867V25.8867ZM102.58 23.625V32.6953H108.58V23.625H102.58ZM118.342 74.4609L116.169 76.5292L116.176 76.5367L118.342 74.4609ZM114.281 37.125L111.585 35.8089L111.581 35.8178L114.281 37.125ZM123.352 26.6836L124.978 29.2042L124.984 29.2005L123.352 26.6836ZM159.475 55.2656V58.2656H162.475V55.2656H159.475ZM120.82 55.2656V52.2656H117.744L117.821 55.3406L120.82 55.2656ZM125.725 68.9238L123.494 70.9295L123.504 70.9413L123.515 70.953L125.725 68.9238ZM152.777 66.3926L154.621 64.0257L152.245 62.1754L150.403 64.5582L152.777 66.3926ZM158.736 71.0332L161.251 72.6694L162.754 70.3596L160.58 68.6663L158.736 71.0332ZM126.094 35.2266L128.282 37.2793L128.288 37.2726L128.294 37.2659L126.094 35.2266ZM121.137 47.25L118.159 46.8854L117.747 50.25H121.137V47.25ZM149.719 47.25V50.25H152.719V47.25H149.719ZM149.719 46.5117H152.719V46.4267L152.714 46.3418L149.719 46.5117ZM145.711 35.0156L143.45 36.987L143.456 36.9943L143.462 37.0015L145.711 35.0156ZM137.221 79.0547C130.211 79.0547 124.732 76.7933 120.508 72.3852L116.176 76.5367C121.655 82.2536 128.762 85.0547 137.221 85.0547V79.0547ZM120.515 72.3927C116.301 67.9652 114.064 61.9611 114.064 54.0527H108.064C108.064 63.16 110.679 70.7614 116.169 76.5292L120.515 72.3927ZM114.064 54.0527V52.2598H108.064V54.0527H114.064ZM114.064 52.2598C114.064 46.9844 115.062 42.3973 116.981 38.4322L111.581 35.8178C109.212 40.712 108.064 46.2148 108.064 52.2598H114.064ZM116.977 38.4411C118.937 34.4272 121.607 31.3802 124.978 29.2041L121.725 24.163C117.362 26.9792 113.985 30.8931 111.585 35.8089L116.977 38.4411ZM124.984 29.2005C128.414 26.976 132.068 25.8867 136.008 25.8867V19.8867C130.878 19.8867 126.094 21.3287 121.719 24.1667L124.984 29.2005ZM136.008 25.8867C142.7 25.8867 147.561 28.052 151.01 32.1487L155.6 28.2849C150.822 22.6082 144.152 19.8867 136.008 19.8867V25.8867ZM151.01 32.1487C154.508 36.3048 156.475 42.5107 156.475 51.2051H162.475C162.475 41.6885 160.328 33.9023 155.6 28.2849L151.01 32.1487ZM156.475 51.2051V55.2656H162.475V51.2051H156.475ZM159.475 52.2656H120.82V58.2656H159.475V52.2656ZM117.821 55.3406C117.976 61.529 119.795 66.815 123.494 70.9295L127.956 66.9182C125.397 64.0717 123.946 60.2522 123.819 55.1907L117.821 55.3406ZM123.515 70.953C127.271 75.0426 132.092 77.0918 137.748 77.0918V71.0918C133.701 71.0918 130.507 69.6957 127.934 66.8946L123.515 70.953ZM137.748 77.0918C141.6 77.0918 145.072 76.3041 148.023 74.5682L144.981 69.3966C143.151 70.4732 140.787 71.0918 137.748 71.0918V77.0918ZM148.023 74.5682C150.762 72.9572 153.138 70.8322 155.151 68.2269L150.403 64.5582C148.831 66.5936 147.023 68.1952 144.981 69.3966L148.023 74.5682ZM150.934 68.7595L156.893 73.4001L160.58 68.6663L154.621 64.0257L150.934 68.7595ZM156.222 69.397C152.051 75.8061 145.878 79.0547 137.221 79.0547V85.0547C147.689 85.0547 155.859 80.9556 161.251 72.6694L156.222 69.397ZM136.008 27.9023C131.237 27.9023 127.134 29.6907 123.893 33.1873L128.294 37.2659C130.397 34.9968 132.904 33.9023 136.008 33.9023V27.9023ZM123.906 33.1738C120.674 36.619 118.844 41.2938 118.159 46.8854L124.114 47.6146C124.695 42.8702 126.17 39.5295 128.282 37.2793L123.906 33.1738ZM121.137 50.25H149.719V44.25H121.137V50.25ZM152.719 47.25V46.5117H146.719V47.25H152.719ZM152.714 46.3418C152.409 40.9617 150.937 36.4007 147.96 33.0298L143.462 37.0015C145.267 39.0446 146.466 42.1477 146.724 46.6817L152.714 46.3418ZM147.972 33.0442C144.939 29.565 140.836 27.9023 136.008 27.9023V33.9023C139.336 33.9023 141.701 34.9818 143.45 36.987L147.972 33.0442ZM175.611 74.4609L173.438 76.5292L173.445 76.5367L175.611 74.4609ZM171.551 37.125L168.855 35.8089L168.851 35.8178L171.551 37.125ZM180.621 26.6836L182.248 29.2042L182.254 29.2005L180.621 26.6836ZM216.744 55.2656V58.2656H219.744V55.2656H216.744ZM178.09 55.2656V52.2656H175.014L175.091 55.3406L178.09 55.2656ZM182.994 68.9238L180.763 70.9295L180.774 70.9413L180.785 70.953L182.994 68.9238ZM210.047 66.3926L211.89 64.0257L209.514 62.1754L207.673 64.5582L210.047 66.3926ZM216.006 71.0332L218.52 72.6694L220.023 70.3596L217.849 68.6663L216.006 71.0332ZM183.363 35.2266L185.551 37.2793L185.557 37.2726L185.564 37.2659L183.363 35.2266ZM178.406 47.25L175.428 46.8854L175.016 50.25H178.406V47.25ZM206.988 47.25V50.25H209.988V47.25H206.988ZM206.988 46.5117H209.988V46.4267L209.983 46.3418L206.988 46.5117ZM202.98 35.0156L200.719 36.987L200.725 36.9943L200.732 37.0015L202.98 35.0156ZM194.49 79.0547C187.481 79.0547 182.002 76.7933 177.777 72.3852L173.445 76.5367C178.924 82.2536 186.031 85.0547 194.49 85.0547V79.0547ZM177.784 72.3927C173.571 67.9652 171.334 61.9611 171.334 54.0527H165.334C165.334 63.16 167.949 70.7614 173.438 76.5292L177.784 72.3927ZM171.334 54.0527V52.2598H165.334V54.0527H171.334ZM171.334 52.2598C171.334 46.9844 172.331 42.3973 174.251 38.4322L168.851 35.8178C166.481 40.712 165.334 46.2148 165.334 52.2598H171.334ZM174.247 38.4411C176.206 34.4272 178.877 31.3802 182.248 29.2041L178.994 24.163C174.631 26.9792 171.255 30.8931 168.855 35.8089L174.247 38.4411ZM182.254 29.2005C185.683 26.976 189.337 25.8867 193.277 25.8867V19.8867C188.147 19.8867 183.364 21.3287 178.989 24.1667L182.254 29.2005ZM193.277 25.8867C199.969 25.8867 204.831 28.052 208.279 32.1487L212.869 28.2849C208.091 22.6082 201.422 19.8867 193.277 19.8867V25.8867ZM208.279 32.1487C211.777 36.3048 213.744 42.5107 213.744 51.2051H219.744C219.744 41.6885 217.598 33.9023 212.869 28.2849L208.279 32.1487ZM213.744 51.2051V55.2656H219.744V51.2051H213.744ZM216.744 52.2656H178.09V58.2656H216.744V52.2656ZM175.091 55.3406C175.245 61.529 177.064 66.815 180.763 70.9295L185.225 66.9182C182.666 64.0717 181.215 60.2522 181.089 55.1907L175.091 55.3406ZM180.785 70.953C184.54 75.0426 189.361 77.0918 195.018 77.0918V71.0918C190.971 71.0918 187.776 69.6957 185.204 66.8946L180.785 70.953ZM195.018 77.0918C198.869 77.0918 202.342 76.3041 205.293 74.5682L202.25 69.3966C200.42 70.4732 198.056 71.0918 195.018 71.0918V77.0918ZM205.293 74.5682C208.031 72.9572 210.408 70.8322 212.421 68.2269L207.673 64.5582C206.1 66.5936 204.293 68.1952 202.25 69.3966L205.293 74.5682ZM208.204 68.7595L214.163 73.4001L217.849 68.6663L211.89 64.0257L208.204 68.7595ZM213.491 69.397C209.321 75.8061 203.147 79.0547 194.49 79.0547V85.0547C204.958 85.0547 213.128 80.9556 218.52 72.6694L213.491 69.397ZM193.277 27.9023C188.506 27.9023 184.404 29.6907 181.163 33.1873L185.564 37.2659C187.667 34.9968 190.173 33.9023 193.277 33.9023V27.9023ZM181.176 33.1738C177.943 36.619 176.113 41.2938 175.428 46.8854L181.384 47.6146C181.965 42.8702 183.44 39.5295 185.551 37.2793L181.176 33.1738ZM178.406 50.25H206.988V44.25H178.406V50.25ZM209.988 47.25V46.5117H203.988V47.25H209.988ZM209.983 46.3418C209.678 40.9617 208.206 36.4007 205.229 33.0298L200.732 37.0015C202.536 39.0446 203.736 42.1477 203.993 46.6817L209.983 46.3418ZM205.242 33.0442C202.209 29.565 198.105 27.9023 193.277 27.9023V33.9023C196.606 33.9023 198.971 34.9818 200.719 36.987L205.242 33.0442ZM237.311 23.9414L240.308 23.8092L240.181 20.9414H237.311V23.9414ZM237.627 31.1133L234.63 31.2455L234.983 39.2602L239.975 32.98L237.627 31.1133ZM272.959 43.2949H275.959V43.2833L275.959 43.2717L272.959 43.2949ZM272.959 81V84H275.959V81H272.959ZM263.203 81H260.203V84H263.203V81ZM263.203 43.2422H266.203V43.2294L266.203 43.2165L263.203 43.2422ZM260.355 34.1191L258.157 36.1605L258.167 36.1709L258.177 36.1813L260.355 34.1191ZM237.838 40.3418L235.141 39.0279L234.838 39.6499V40.3418H237.838ZM237.838 81V84H240.838V81H237.838ZM228.082 81H225.082V84H228.082V81ZM228.082 23.9414V20.9414H225.082V23.9414H228.082ZM234.313 24.0736L234.63 31.2455L240.624 30.9811L240.308 23.8092L234.313 24.0736ZM239.975 32.98C243.763 28.2147 248.592 25.8867 254.713 25.8867V19.8867C246.771 19.8867 240.209 23.0431 235.278 29.2465L239.975 32.98ZM254.713 25.8867C260.178 25.8867 263.778 27.4115 266.082 29.9883C268.446 32.6325 269.909 36.8967 269.959 43.3182L275.959 43.2717C275.903 36.0877 274.273 30.1478 270.555 25.9892C266.777 21.7633 261.306 19.8867 254.713 19.8867V25.8867ZM269.959 43.2949V81H275.959V43.2949H269.959ZM272.959 78H263.203V84H272.959V78ZM266.203 81V43.2422H260.203V81H266.203ZM266.203 43.2165C266.165 38.7269 265.132 34.8021 262.534 32.057L258.177 36.1813C259.305 37.3736 260.171 39.5309 260.203 43.2678L266.203 43.2165ZM262.554 32.0778C259.942 29.2649 256.114 28.166 251.76 28.166V34.166C255.21 34.166 257.113 35.0359 258.157 36.1605L262.554 32.0778ZM251.76 28.166C248.029 28.166 244.636 29.1722 241.698 31.2464L245.158 36.1482C247.001 34.8474 249.162 34.166 251.76 34.166V28.166ZM241.698 31.2464C238.876 33.2379 236.688 35.8513 235.141 39.0279L240.535 41.6557C241.659 39.3479 243.198 37.5316 245.158 36.1482L241.698 31.2464ZM234.838 40.3418V81H240.838V40.3418H234.838ZM237.838 78H228.082V84H237.838V78ZM231.082 81V23.9414H225.082V81H231.082ZM228.082 26.9414H237.311V20.9414H228.082V26.9414ZM5.91211 208H2.91211V211H5.91211V208ZM5.91211 131.219V128.219H2.91211V131.219H5.91211ZM49.7871 136.387L47.88 138.703L47.8895 138.71L49.7871 136.387ZM53.0566 161.225L55.464 163.015L55.4695 163.007L55.4749 163L53.0566 161.225ZM44.7246 167.605L43.5395 164.849L35.7334 168.206L43.9166 170.495L44.7246 167.605ZM54.5332 174.25L52.1115 176.021L52.1223 176.035L52.1332 176.05L54.5332 174.25ZM16.0371 172.088V169.088H13.0371V172.088H16.0371ZM16.0371 199.721H13.0371V202.721H16.0371V199.721ZM43.8809 196.082L45.8829 198.316L45.8846 198.315L43.8809 196.082ZM16.0371 163.967H13.0371V166.967H16.0371V163.967ZM41.9297 160.645L40.0151 158.335L40.0076 158.341L40.0001 158.347L41.9297 160.645ZM42.2461 142.451L40.3926 144.81L40.4031 144.818L40.4137 144.827L42.2461 142.451ZM16.0371 139.551V136.551H13.0371V139.551H16.0371ZM8.91211 208V131.219H2.91211V208H8.91211ZM5.91211 134.219H31.0137V128.219H5.91211V134.219ZM31.0137 134.219C39.0059 134.219 44.4558 135.883 47.88 138.703L51.6942 134.071C46.7513 130 39.6855 128.219 31.0137 128.219V134.219ZM47.8895 138.71C51.2463 141.452 53.1152 145.594 53.1152 151.68H59.1152C59.1152 144.265 56.7655 138.212 51.6847 134.063L47.8895 138.71ZM53.1152 151.68C53.1152 154.655 52.2834 157.209 50.6384 159.449L55.4749 163C57.908 159.686 59.1152 155.876 59.1152 151.68H53.1152ZM50.6493 159.434C48.962 161.704 46.6293 163.521 43.5395 164.849L45.9097 170.361C49.8512 168.667 53.0732 166.23 55.464 163.015L50.6493 159.434ZM43.9166 170.495C47.4611 171.486 50.1443 173.33 52.1115 176.021L56.9549 172.479C54.1408 168.631 50.285 166.045 45.5326 164.716L43.9166 170.495ZM52.1332 176.05C54.1256 178.707 55.1719 181.923 55.1719 185.852H61.1719C61.1719 180.78 59.7924 176.262 56.9332 172.45L52.1332 176.05ZM55.1719 185.852C55.1719 192.031 53.2049 196.568 49.4903 199.844L53.4589 204.344C58.674 199.745 61.1719 193.453 61.1719 185.852H55.1719ZM49.4903 199.844C45.7477 203.144 40.2401 205 32.543 205V211C41.1583 211 48.2718 208.918 53.4589 204.344L49.4903 199.844ZM32.543 205H5.91211V211H32.543V205ZM13.0371 172.088V199.721H19.0371V172.088H13.0371ZM16.0371 202.721H32.7539V196.721H16.0371V202.721ZM32.7539 202.721C37.9792 202.721 42.4786 201.367 45.8829 198.316L41.8788 193.848C39.869 195.649 36.9505 196.721 32.7539 196.721V202.721ZM45.8846 198.315C49.3669 195.19 50.9941 190.944 50.9941 185.957H44.9941C44.9941 189.548 43.8792 192.053 41.8771 193.849L45.8846 198.315ZM50.9941 185.957C50.9941 180.804 49.5815 176.407 46.2543 173.347C42.9746 170.331 38.3424 169.088 32.9121 169.088V175.088C37.5365 175.088 40.4453 176.156 42.193 177.763C43.8931 179.327 44.9941 181.864 44.9941 185.957H50.9941ZM32.9121 169.088H16.0371V175.088H32.9121V169.088ZM16.0371 166.967H31.3301V160.967H16.0371V166.967ZM31.3301 166.967C36.2594 166.967 40.5428 165.727 43.8593 162.942L40.0001 158.347C38.0431 159.991 35.2601 160.967 31.3301 160.967V166.967ZM43.8443 162.954C47.2739 160.111 48.9375 156.222 48.9375 151.627H42.9375C42.9375 154.626 41.9293 156.748 40.0151 158.335L43.8443 162.954ZM48.9375 151.627C48.9375 146.835 47.5181 142.729 44.0785 140.076L40.4137 144.827C41.8959 145.97 42.9375 147.982 42.9375 151.627H48.9375ZM44.0996 140.092C40.8741 137.558 36.3343 136.551 31.0137 136.551V142.551C35.7477 142.551 38.6962 143.477 40.3926 144.81L44.0996 140.092ZM31.0137 136.551H16.0371V142.551H31.0137V136.551ZM13.0371 139.551V163.967H19.0371V139.551H13.0371ZM99.252 159.695L98.7588 162.654L102.252 163.237V159.695H99.252ZM81.4277 167.5L78.6611 166.34L78.4277 166.896V167.5H81.4277ZM81.4277 208V211H84.4277V208H81.4277ZM71.6719 208H68.6719V211H71.6719V208ZM71.6719 150.941V147.941H68.6719V150.941H71.6719ZM81.1641 150.941L84.1632 150.869L84.0929 147.941H81.1641V150.941ZM81.3223 157.533L78.3231 157.605L78.5624 167.574L83.8633 159.128L81.3223 157.533ZM99.252 150.625H102.252V148.771L100.594 147.942L99.252 150.625ZM99.7451 156.736C98.0834 156.459 96.3169 156.326 94.4531 156.326V162.326C96.0346 162.326 97.4674 162.439 98.7588 162.654L99.7451 156.736ZM94.4531 156.326C90.8293 156.326 87.5579 157.1 84.8033 158.829C82.0318 160.568 80.005 163.135 78.6611 166.34L84.1943 168.66C85.1356 166.416 86.4223 164.896 87.9926 163.911C89.5798 162.915 91.6785 162.326 94.4531 162.326V156.326ZM78.4277 167.5V208H84.4277V167.5H78.4277ZM81.4277 205H71.6719V211H81.4277V205ZM74.6719 208V150.941H68.6719V208H74.6719ZM71.6719 153.941H81.1641V147.941H71.6719V153.941ZM78.1649 151.013L78.3231 157.605L84.3214 157.461L84.1632 150.869L78.1649 151.013ZM83.8633 159.128C86.5305 154.878 90.1202 152.887 94.9277 152.887V146.887C87.9931 146.887 82.5125 149.993 78.7812 155.938L83.8633 159.128ZM94.9277 152.887C96.6523 152.887 97.5423 153.124 97.9103 153.308L100.594 147.942C98.9929 147.141 97.0001 146.887 94.9277 146.887V152.887ZM96.252 150.625V159.695H102.252V150.625H96.252ZM118.869 208V211H121.869V208H118.869ZM109.113 208H106.113V211H109.113V208ZM109.113 150.941V147.941H106.113V150.941H109.113ZM118.869 150.941H121.869V147.941H118.869V150.941ZM109.746 131.799L107.52 129.788L107.502 129.808L107.484 129.828L109.746 131.799ZM109.746 139.762L107.516 141.769L107.534 141.789L107.553 141.809L109.746 139.762ZM118.869 205H109.113V211H118.869V205ZM112.113 208V150.941H106.113V208H112.113ZM109.113 153.941H118.869V147.941H109.113V153.941ZM115.869 150.941V208H121.869V150.941H115.869ZM111.322 135.807C111.322 134.875 111.581 134.26 112.008 133.769L107.484 129.828C106.013 131.518 105.322 133.574 105.322 135.807H111.322ZM111.972 133.81C112.232 133.522 112.757 133.164 114.07 133.164V127.164C111.587 127.164 109.229 127.896 107.52 129.788L111.972 133.81ZM114.07 133.164C115.384 133.164 115.908 133.522 116.168 133.81L120.621 129.788C118.912 127.896 116.554 127.164 114.07 127.164V133.164ZM116.168 133.81C116.614 134.304 116.871 134.905 116.871 135.807H122.871C122.871 133.544 122.144 131.474 120.621 129.788L116.168 133.81ZM116.871 135.807C116.871 136.709 116.615 137.271 116.201 137.715L120.588 141.809C122.143 140.143 122.871 138.069 122.871 135.807H116.871ZM116.201 137.715C115.948 137.986 115.413 138.344 114.07 138.344V144.344C116.525 144.344 118.872 143.647 120.588 141.809L116.201 137.715ZM114.07 138.344C112.728 138.344 112.192 137.986 111.939 137.715L107.553 141.809C109.269 143.647 111.616 144.344 114.07 144.344V138.344ZM111.976 137.755C111.581 137.316 111.322 136.739 111.322 135.807H105.322C105.322 138.038 106.013 140.098 107.516 141.769L111.976 137.755ZM138.381 157.902L140.745 159.75L140.751 159.742L138.381 157.902ZM170.549 156.742L168.267 158.69L173.549 164.876V156.742H170.549ZM170.549 127V124H167.549V127H170.549ZM180.305 127H183.305V124H180.305V127ZM180.305 208V211H183.305V208H180.305ZM171.34 208L168.349 208.232L168.564 211H171.34V208ZM170.865 201.883L173.856 201.651L173.277 194.183L168.541 199.986L170.865 201.883ZM138.381 200.934L136 202.758L136.007 202.768L138.381 200.934ZM170.549 192.443L173.218 193.812L173.549 193.168V192.443H170.549ZM170.549 166.234H173.549V165.473L173.186 164.804L170.549 166.234ZM135.158 178.996C135.158 170.71 137.118 164.391 140.745 159.75L136.017 156.055C131.347 162.031 129.158 169.775 129.158 178.996H135.158ZM140.751 159.742C144.336 155.124 148.896 152.887 154.676 152.887V146.887C147.026 146.887 140.723 149.993 136.011 156.063L140.751 159.742ZM154.676 152.887C160.588 152.887 165.003 154.867 168.267 158.69L172.83 154.794C168.29 149.477 162.123 146.887 154.676 146.887V152.887ZM173.549 156.742V127H167.549V156.742H173.549ZM170.549 130H180.305V124H170.549V130ZM177.305 127V208H183.305V127H177.305ZM180.305 205H171.34V211H180.305V205ZM174.331 207.768L173.856 201.651L167.874 202.115L168.349 208.232L174.331 207.768ZM168.541 199.986C165.286 203.974 160.76 206.055 154.57 206.055V212.055C162.302 212.055 168.64 209.354 173.189 203.78L168.541 199.986ZM154.57 206.055C148.928 206.055 144.394 203.808 140.755 199.099L136.007 202.768C140.735 208.887 146.994 212.055 154.57 212.055V206.055ZM140.762 199.109C137.115 194.349 135.158 187.979 135.158 179.734H129.158C129.158 188.927 131.35 196.69 136 202.758L140.762 199.109ZM135.158 179.734V178.996H129.158V179.734H135.158ZM138.914 180.104C138.914 186.945 140.322 192.713 143.5 197.061L148.344 193.521C146.178 190.557 144.914 186.199 144.914 180.104H138.914ZM143.5 197.061C146.763 201.526 151.373 203.775 156.996 203.775V197.775C153.197 197.775 150.425 196.368 148.344 193.521L143.5 197.061ZM156.996 203.775C160.551 203.775 163.791 202.973 166.596 201.248C169.4 199.524 171.589 196.991 173.218 193.812L167.879 191.075C166.661 193.451 165.167 195.083 163.454 196.137C161.742 197.189 159.629 197.775 156.996 197.775V203.775ZM173.549 192.443V166.234H167.549V192.443H173.549ZM173.186 164.804C171.515 161.724 169.317 159.275 166.542 157.611C163.766 155.945 160.582 155.166 157.102 155.166V161.166C159.668 161.166 161.749 161.732 163.455 162.756C165.163 163.78 166.665 165.366 167.912 167.665L173.186 164.804ZM157.102 155.166C151.414 155.166 146.76 157.429 143.492 161.944L148.352 165.462C150.428 162.594 153.227 161.166 157.102 161.166V155.166ZM143.492 161.944C140.289 166.369 138.914 172.574 138.914 180.104H144.914C144.914 173.149 146.211 168.42 148.352 165.462L143.492 161.944ZM199.342 157.797L201.701 159.65L201.707 159.642L199.342 157.797ZM231.984 157.27L229.634 159.133L234.402 165.147L234.976 157.494L231.984 157.27ZM232.459 150.941V147.941H229.676L229.467 150.717L232.459 150.941ZM241.371 150.941H244.371V147.941H241.371V150.941ZM234.779 224.084L232.693 221.928L232.684 221.937L234.779 224.084ZM196.072 220.604L193.803 218.641L192.297 220.382L193.589 222.287L196.072 220.604ZM201.135 214.75L203.467 212.862L201.211 210.076L198.866 212.788L201.135 214.75ZM227.555 218.494L225.433 216.373L225.426 216.38L225.419 216.387L227.555 218.494ZM231.562 202.305H234.562V194.266L229.296 200.339L231.562 202.305ZM199.342 200.986L196.959 202.809L196.966 202.818L199.342 200.986ZM206.936 195.291L204.494 197.035L204.502 197.046L206.936 195.291ZM231.562 192.391L234.229 193.766L234.562 193.119V192.391H231.562ZM231.562 166.34H234.562V165.571L234.193 164.897L231.562 166.34ZM196.172 178.996C196.172 170.548 198.123 164.206 201.701 159.65L196.982 155.944C192.334 161.864 190.172 169.655 190.172 178.996H196.172ZM201.707 159.642C205.242 155.11 209.813 152.887 215.689 152.887V146.887C207.996 146.887 201.668 149.937 196.976 155.952L201.707 159.642ZM215.689 152.887C221.847 152.887 226.367 155.013 229.634 159.133L234.335 155.406C229.797 149.682 223.453 146.887 215.689 146.887V152.887ZM234.976 157.494L235.451 151.166L229.467 150.717L228.993 157.045L234.976 157.494ZM232.459 153.941H241.371V147.941H232.459V153.941ZM238.371 150.941V206.629H244.371V150.941H238.371ZM238.371 206.629C238.371 213.38 236.385 218.354 232.693 221.928L236.866 226.24C241.962 221.306 244.371 214.644 244.371 206.629H238.371ZM232.684 221.937C229 225.532 223.942 227.465 217.166 227.465V233.465C225.155 233.465 231.84 231.144 236.874 226.231L232.684 221.937ZM217.166 227.465C213.494 227.465 209.884 226.683 206.313 225.089L203.867 230.568C208.17 232.489 212.611 233.465 217.166 233.465V227.465ZM206.313 225.089C202.799 223.52 200.267 221.443 198.555 218.92L193.589 222.287C196.026 225.881 199.506 228.621 203.867 230.568L206.313 225.089ZM198.341 222.566L203.404 216.712L198.866 212.788L193.803 218.641L198.341 222.566ZM198.803 216.638C203.492 222.429 209.43 225.502 216.48 225.502V219.502C211.437 219.502 207.145 217.407 203.467 212.862L198.803 216.638ZM216.48 225.502C221.805 225.502 226.35 223.986 229.69 220.601L225.419 216.387C223.486 218.346 220.648 219.502 216.48 219.502V225.502ZM229.676 220.615C233.058 217.233 234.562 212.62 234.562 207.209H228.562C228.562 211.501 227.395 214.411 225.433 216.373L229.676 220.615ZM234.562 207.209V202.305H228.562V207.209H234.562ZM229.296 200.339C226.043 204.09 221.593 206.055 215.584 206.055V212.055C223.075 212.055 229.277 209.519 233.829 204.27L229.296 200.339ZM215.584 206.055C209.853 206.055 205.309 203.811 201.717 199.154L196.966 202.818C201.671 208.919 207.956 212.055 215.584 212.055V206.055ZM201.725 199.164C198.137 194.472 196.172 187.859 196.172 178.996H190.172C190.172 188.695 192.32 196.743 196.959 202.809L201.725 199.164ZM199.98 180.104C199.98 186.91 201.371 192.662 204.494 197.035L209.377 193.547C207.227 190.538 205.98 186.164 205.98 180.104H199.98ZM204.502 197.046C207.737 201.531 212.36 203.775 218.01 203.775V197.775C214.168 197.775 211.407 196.363 209.369 193.536L204.502 197.046ZM218.01 203.775C221.554 203.775 224.787 202.965 227.591 201.23C230.391 199.498 232.584 196.954 234.229 193.766L228.896 191.016C227.658 193.417 226.151 195.066 224.434 196.128C222.72 197.188 220.618 197.775 218.01 197.775V203.775ZM234.562 192.391V166.34H228.562V192.391H234.562ZM234.193 164.897C232.493 161.797 230.285 159.328 227.518 157.646C224.744 155.96 221.575 155.166 218.115 155.166V161.166C220.632 161.166 222.692 161.734 224.401 162.773C226.116 163.816 227.644 165.433 228.932 167.782L234.193 164.897ZM218.115 155.166C212.454 155.166 207.821 157.436 204.558 161.944L209.418 165.462C211.499 162.588 214.284 161.166 218.115 161.166V155.166ZM204.558 161.944C201.355 166.369 199.98 172.574 199.98 180.104H205.98C205.98 173.149 207.278 168.42 209.418 165.462L204.558 161.944ZM260.936 201.461L258.762 203.529L258.77 203.537L260.936 201.461ZM256.875 164.125L254.179 162.809L254.175 162.818L256.875 164.125ZM265.945 153.684L267.572 156.204L267.578 156.2L265.945 153.684ZM302.068 182.266V185.266H305.068V182.266H302.068ZM263.414 182.266V179.266H260.338L260.415 182.341L263.414 182.266ZM268.318 195.924L266.087 197.929L266.098 197.941L266.109 197.953L268.318 195.924ZM295.371 193.393L297.214 191.026L294.839 189.175L292.997 191.558L295.371 193.393ZM301.33 198.033L303.845 199.669L305.348 197.36L303.173 195.666L301.33 198.033ZM268.688 162.227L270.875 164.279L270.882 164.273L270.888 164.266L268.688 162.227ZM263.73 174.25L260.753 173.885L260.341 177.25H263.73V174.25ZM292.312 174.25V177.25H295.312V174.25H292.312ZM292.312 173.512H295.312V173.427L295.308 173.342L292.312 173.512ZM288.305 162.016L286.043 163.987L286.05 163.994L286.056 164.001L288.305 162.016ZM279.814 206.055C272.805 206.055 267.326 203.793 263.102 199.385L258.77 203.537C264.248 209.254 271.355 212.055 279.814 212.055V206.055ZM263.109 199.393C258.895 194.965 256.658 188.961 256.658 181.053H250.658C250.658 190.16 253.273 197.761 258.762 203.529L263.109 199.393ZM256.658 181.053V179.26H250.658V181.053H256.658ZM256.658 179.26C256.658 173.984 257.656 169.397 259.575 165.432L254.175 162.818C251.805 167.712 250.658 173.215 250.658 179.26H256.658ZM259.571 165.441C261.53 161.427 264.201 158.38 267.572 156.204L264.318 151.163C259.955 153.979 256.579 157.893 254.179 162.809L259.571 165.441ZM267.578 156.2C271.007 153.976 274.661 152.887 278.602 152.887V146.887C273.471 146.887 268.688 148.329 264.313 151.167L267.578 156.2ZM278.602 152.887C285.293 152.887 290.155 155.052 293.603 159.149L298.194 155.285C293.415 149.608 286.746 146.887 278.602 146.887V152.887ZM293.603 159.149C297.102 163.305 299.068 169.511 299.068 178.205H305.068C305.068 168.689 302.922 160.902 298.194 155.285L293.603 159.149ZM299.068 178.205V182.266H305.068V178.205H299.068ZM302.068 179.266H263.414V185.266H302.068V179.266ZM260.415 182.341C260.57 188.529 262.388 193.815 266.087 197.929L270.549 193.918C267.99 191.072 266.54 187.252 266.413 182.191L260.415 182.341ZM266.109 197.953C269.864 202.043 274.686 204.092 280.342 204.092V198.092C276.295 198.092 273.1 196.696 270.528 193.895L266.109 197.953ZM280.342 204.092C284.194 204.092 287.666 203.304 290.617 201.568L287.575 196.397C285.744 197.473 283.381 198.092 280.342 198.092V204.092ZM290.617 201.568C293.356 199.957 295.732 197.832 297.745 195.227L292.997 191.558C291.424 193.594 289.617 195.195 287.575 196.397L290.617 201.568ZM293.528 195.76L299.487 200.4L303.173 195.666L297.214 191.026L293.528 195.76ZM298.816 196.397C294.645 202.806 288.472 206.055 279.814 206.055V212.055C290.282 212.055 298.453 207.956 303.845 199.669L298.816 196.397ZM278.602 154.902C273.831 154.902 269.728 156.691 266.487 160.187L270.888 164.266C272.991 161.997 275.498 160.902 278.602 160.902V154.902ZM266.5 160.174C263.267 163.619 261.437 168.294 260.753 173.885L266.708 174.615C267.289 169.87 268.764 166.529 270.875 164.279L266.5 160.174ZM263.73 177.25H292.312V171.25H263.73V177.25ZM295.312 174.25V173.512H289.312V174.25H295.312ZM295.308 173.342C295.002 167.962 293.53 163.401 290.553 160.03L286.056 164.001C287.86 166.045 289.06 169.148 289.317 173.682L295.308 173.342ZM290.566 160.044C287.533 156.565 283.429 154.902 278.602 154.902V160.902C281.93 160.902 284.295 161.982 286.043 163.987L290.566 160.044Z" fill="white"/>
</svg>
