<svg width="271" height="86" viewBox="0 0 271 86" fill="none" xmlns="http://www.w3.org/2000/svg">
<path d="M62.6016 70.9277C60 74.6543 56.3613 77.4492 51.6855 79.3125C47.0449 81.1406 41.6309 82.0547 35.4434 82.0547C29.1855 82.0547 23.6309 80.5957 18.7793 77.6777C13.9277 74.7246 10.166 70.541 7.49414 65.127C4.85742 59.7129 3.50391 53.4375 3.43359 46.3008V39.6035C3.43359 28.0371 6.12305 19.0723 11.502 12.709C16.916 6.3457 24.5098 3.16406 34.2832 3.16406C42.2988 3.16406 48.75 5.2207 53.6367 9.33398C58.5234 13.4121 61.5117 19.2129 62.6016 26.7363H52.4766C50.5781 16.5762 44.5312 11.4961 34.3359 11.4961C27.5508 11.4961 22.4004 13.8867 18.8848 18.668C15.4043 23.4141 13.6465 30.3047 13.6113 39.3398V45.6152C13.6113 54.2285 15.5801 61.084 19.5176 66.1816C23.4551 71.2441 28.7812 73.7754 35.4961 73.7754C39.293 73.7754 42.6152 73.3535 45.4629 72.5098C48.3105 71.666 50.666 70.2422 52.5293 68.2383V50.9941H34.7578V42.7676H62.6016V70.9277ZM138.592 45.0879C138.592 52.6113 137.326 59.1855 134.795 64.8105C132.264 70.4004 128.678 74.6719 124.037 77.625C119.396 80.5781 113.982 82.0547 107.795 82.0547C101.748 82.0547 96.3867 80.5781 91.7109 77.625C87.0352 74.6367 83.3965 70.4004 80.7949 64.916C78.2285 59.3965 76.9102 53.0156 76.8398 45.7734V40.2363C76.8398 32.8535 78.123 26.332 80.6895 20.6719C83.2559 15.0117 86.877 10.6875 91.5527 7.69922C96.2637 4.67578 101.643 3.16406 107.689 3.16406C113.842 3.16406 119.256 4.6582 123.932 7.64648C128.643 10.5996 132.264 14.9062 134.795 20.5664C137.326 26.1914 138.592 32.748 138.592 40.2363V45.0879ZM128.52 40.1309C128.52 31.0254 126.691 24.0469 123.035 19.1953C119.379 14.3086 114.264 11.8652 107.689 11.8652C101.291 11.8652 96.2461 14.3086 92.5547 19.1953C88.8984 24.0469 87.0176 30.7969 86.9121 39.4453V45.0879C86.9121 53.9121 88.7578 60.8555 92.4492 65.918C96.1758 70.9453 101.291 73.459 107.795 73.459C114.334 73.459 119.396 71.0859 122.982 66.3398C126.568 61.5586 128.414 54.7207 128.52 45.8262V40.1309ZM163.957 72.7207H200.344V81H153.779V4.21875H163.957V72.7207ZM211.893 81V4.21875H233.566C240.246 4.21875 246.152 5.69531 251.285 8.64844C256.418 11.6016 260.373 15.8027 263.15 21.252C265.963 26.7012 267.387 32.959 267.422 40.0254V44.9297C267.422 52.1719 266.016 58.5176 263.203 63.9668C260.426 69.416 256.436 73.5996 251.232 76.5176C246.064 79.4355 240.035 80.9297 233.145 81H211.893ZM222.018 12.5508V72.7207H232.67C240.475 72.7207 246.539 70.2949 250.863 65.4434C255.223 60.5918 257.402 53.6836 257.402 44.7188V40.2363C257.402 31.5176 255.346 24.75 251.232 19.9336C247.154 15.082 241.354 12.6211 233.83 12.5508H222.018Z" fill="#90EE90"/>
<path d="M62.6016 70.9277L65.0614 72.645L65.6016 71.8713V70.9277H62.6016ZM51.6855 79.3125L52.7851 82.1037L52.7961 82.0994L51.6855 79.3125ZM18.7793 77.6777L17.2195 80.2403L17.2263 80.2445L17.2331 80.2486L18.7793 77.6777ZM7.49414 65.127L4.79699 66.4405L4.80043 66.4476L4.80391 66.4546L7.49414 65.127ZM3.43359 46.3008H0.433594V46.3156L0.433739 46.3303L3.43359 46.3008ZM11.502 12.709L9.21706 10.7649L9.21083 10.7723L11.502 12.709ZM53.6367 9.33398L51.7048 11.6292L51.7145 11.6373L53.6367 9.33398ZM62.6016 26.7363V29.7363H66.0675L65.5706 26.3062L62.6016 26.7363ZM52.4766 26.7363L49.5276 27.2873L49.9852 29.7363H52.4766V26.7363ZM18.8848 18.668L16.4678 16.8908L16.4656 16.8939L18.8848 18.668ZM13.6113 39.3398L10.6113 39.3282V39.3398H13.6113ZM19.5176 66.1816L17.1434 68.0155L17.1495 68.0235L19.5176 66.1816ZM52.5293 68.2383L54.7263 70.2811L55.5293 69.4175V68.2383H52.5293ZM52.5293 50.9941H55.5293V47.9941H52.5293V50.9941ZM34.7578 50.9941H31.7578V53.9941H34.7578V50.9941ZM34.7578 42.7676V39.7676H31.7578V42.7676H34.7578ZM62.6016 42.7676H65.6016V39.7676H62.6016V42.7676ZM60.1417 69.2105C57.9113 72.4053 54.7669 74.8552 50.575 76.5256L52.7961 82.0994C57.9557 80.0433 62.0887 76.9033 65.0614 72.645L60.1417 69.2105ZM50.586 76.5213C46.3686 78.1827 41.3419 79.0547 35.4434 79.0547V85.0547C41.9198 85.0547 47.7213 84.0986 52.7851 82.1037L50.586 76.5213ZM35.4434 79.0547C29.6713 79.0547 24.662 77.7151 20.3255 75.1069L17.2331 80.2486C22.5997 83.4763 28.6998 85.0547 35.4434 85.0547V79.0547ZM20.3391 75.1151C16.005 72.477 12.6209 68.7364 10.1844 63.7993L4.80391 66.4546C7.71115 72.3456 11.8505 76.9722 17.2195 80.2403L20.3391 75.1151ZM10.1913 63.8134C7.78232 58.867 6.50018 53.0444 6.43345 46.2712L0.433739 46.3303C0.507634 53.8306 1.93253 60.5588 4.79699 66.4405L10.1913 63.8134ZM6.43359 46.3008V39.6035H0.433594V46.3008H6.43359ZM6.43359 39.6035C6.43359 28.4727 9.02195 20.2899 13.7931 14.6457L9.21083 10.7723C3.22414 17.8546 0.433594 27.6016 0.433594 39.6035H6.43359ZM13.7868 14.653C18.5317 9.07623 25.2239 6.16406 34.2832 6.16406V0.164062C23.7956 0.164062 15.3003 3.61518 9.21707 10.7649L13.7868 14.653ZM34.2832 6.16406C41.7773 6.16406 47.4856 8.07769 51.7048 11.6291L55.5686 7.03882C50.0144 2.36372 42.8203 0.164062 34.2832 0.164062V6.16406ZM51.7145 11.6373C55.9267 15.1525 58.627 20.225 59.6326 27.1664L65.5706 26.3062C64.3964 18.2008 61.1201 11.6717 55.5589 7.03068L51.7145 11.6373ZM62.6016 23.7363H52.4766V29.7363H62.6016V23.7363ZM55.4255 26.1853C54.3886 20.6358 52.1474 16.1177 48.4473 13.0092C44.7423 9.89652 39.9303 8.49609 34.3359 8.49609V14.4961C38.9369 14.4961 42.246 15.6357 44.5878 17.6031C46.9347 19.5747 48.6661 22.6767 49.5276 27.2873L55.4255 26.1853ZM34.3359 8.49609C26.7531 8.49609 20.6355 11.2227 16.4678 16.8908L21.3017 20.4451C24.1652 16.5507 28.3484 14.4961 34.3359 14.4961V8.49609ZM16.4656 16.8939C12.4577 22.3591 10.6477 29.9774 10.6114 39.3282L16.6113 39.3515C16.6452 30.632 18.3509 24.469 21.304 20.4421L16.4656 16.8939ZM10.6113 39.3398V45.6152H16.6113V39.3398H10.6113ZM10.6113 45.6152C10.6113 54.6694 12.6823 62.24 17.1434 68.0155L21.8918 64.3478C18.4779 59.928 16.6113 53.7876 16.6113 45.6152H10.6113ZM17.1495 68.0235C21.6857 73.8557 27.906 76.7754 35.4961 76.7754V70.7754C29.6565 70.7754 25.2244 68.6326 21.8856 64.3398L17.1495 68.0235ZM35.4961 76.7754C39.5055 76.7754 43.1264 76.331 46.3152 75.3862L44.6106 69.6334C42.1041 70.376 39.0804 70.7754 35.4961 70.7754V76.7754ZM46.3152 75.3862C49.6321 74.4033 52.4665 72.7115 54.7263 70.2811L50.3323 66.1954C48.8656 67.7729 46.9889 68.9287 44.6106 69.6334L46.3152 75.3862ZM55.5293 68.2383V50.9941H49.5293V68.2383H55.5293ZM52.5293 47.9941H34.7578V53.9941H52.5293V47.9941ZM37.7578 50.9941V42.7676H31.7578V50.9941H37.7578ZM34.7578 45.7676H62.6016V39.7676H34.7578V45.7676ZM59.6016 42.7676V70.9277H65.6016V42.7676H59.6016ZM134.795 64.8105L137.528 66.0481L137.531 66.0416L134.795 64.8105ZM91.7109 77.625L90.0954 80.1528L90.1022 80.1572L90.109 80.1615L91.7109 77.625ZM80.7949 64.916L78.0746 66.1809L78.0795 66.1913L78.0844 66.2018L80.7949 64.916ZM76.8398 45.7734H73.8398V45.788L73.84 45.8026L76.8398 45.7734ZM91.5527 7.69922L93.1683 10.2271L93.1731 10.224L91.5527 7.69922ZM123.932 7.64648L122.316 10.1743L122.327 10.1814L122.338 10.1883L123.932 7.64648ZM134.795 20.5664L132.056 21.7911L132.059 21.7975L134.795 20.5664ZM123.035 19.1953L120.633 20.9926L120.639 21.0009L123.035 19.1953ZM92.5547 19.1953L90.1609 17.3871L90.1589 17.3898L92.5547 19.1953ZM86.9121 39.4453L83.9123 39.4087L83.9121 39.427V39.4453H86.9121ZM92.4492 65.918L90.0252 67.6855L90.0321 67.695L90.0391 67.7045L92.4492 65.918ZM122.982 66.3398L125.376 68.1484L125.382 68.1398L122.982 66.3398ZM128.52 45.8262L131.519 45.8617L131.52 45.844V45.8262H128.52ZM135.592 45.0879C135.592 52.2781 134.382 58.4168 132.059 63.5795L137.531 66.0416C140.27 59.9543 141.592 52.9446 141.592 45.0879H135.592ZM132.062 63.573C129.743 68.6954 126.52 72.4893 122.426 75.094L125.648 80.156C130.836 76.8544 134.785 72.1054 137.528 66.0481L132.062 63.573ZM122.426 75.094C118.326 77.7037 113.485 79.0547 107.795 79.0547V85.0547C114.48 85.0547 120.467 83.4526 125.648 80.156L122.426 75.094ZM107.795 79.0547C102.26 79.0547 97.4648 77.7108 93.3129 75.0885L90.109 80.1615C95.3086 83.4455 101.236 85.0547 107.795 85.0547V79.0547ZM93.3265 75.0972C89.1691 72.4402 85.8892 68.6556 83.5054 63.6303L78.0844 66.2018C80.9037 72.1452 84.9012 76.8333 90.0954 80.1528L93.3265 75.0972ZM83.5152 63.6512C81.1598 58.5854 79.9066 52.6393 79.8397 45.7443L73.84 45.8026C73.9137 53.3919 75.2972 60.2076 78.0746 66.1809L83.5152 63.6512ZM79.8398 45.7734V40.2363H73.8398V45.7734H79.8398ZM79.8398 40.2363C79.8398 33.2016 81.0618 27.1155 83.4217 21.9107L77.9572 19.433C75.1843 25.5486 73.8398 32.5054 73.8398 40.2363H79.8398ZM83.4217 21.9107C85.7781 16.7137 89.0389 12.8661 93.1683 10.2271L89.9372 5.17137C84.715 8.50886 80.7336 13.3098 77.9572 19.433L83.4217 21.9107ZM93.1731 10.224C97.3616 7.53581 102.169 6.16406 107.689 6.16406V0.164062C101.116 0.164062 95.1657 1.81575 89.9324 5.17446L93.1731 10.224ZM107.689 6.16406C113.334 6.16406 118.174 7.52731 122.316 10.1743L125.547 5.11864C120.337 1.7891 114.35 0.164062 107.689 0.164062V6.16406ZM122.338 10.1883C126.488 12.7899 129.739 16.6089 132.056 21.7911L137.534 19.3417C134.789 13.2036 130.797 8.40935 125.525 5.10462L122.338 10.1883ZM132.059 21.7975C134.383 26.9618 135.592 33.0835 135.592 40.2363H141.592C141.592 32.4126 140.269 25.421 137.531 19.3353L132.059 21.7975ZM135.592 40.2363V45.0879H141.592V40.2363H135.592ZM131.52 40.1309C131.52 30.6831 129.632 22.9637 125.431 17.3898L120.639 21.0009C123.751 25.13 125.52 31.3677 125.52 40.1309H131.52ZM125.437 17.3981C121.166 11.6889 115.124 8.86523 107.689 8.86523V14.8652C113.403 14.8652 117.592 16.9283 120.633 20.9925L125.437 17.3981ZM107.689 8.86523C100.4 8.86523 94.4483 11.7113 90.1609 17.3871L94.9485 21.0036C98.0439 16.9058 102.182 14.8652 107.689 14.8652V8.86523ZM90.1589 17.3898C85.9857 22.9272 84.0224 30.3833 83.9123 39.4087L89.9119 39.4819C90.0128 31.2105 91.8111 25.1666 94.9505 21.0009L90.1589 17.3898ZM83.9121 39.4453V45.0879H89.9121V39.4453H83.9121ZM83.9121 45.0879C83.9121 54.2956 85.8343 61.938 90.0252 67.6855L94.8732 64.1505C91.6813 59.7729 89.9121 53.5286 89.9121 45.0879H83.9121ZM90.0391 67.7045C94.3572 73.5297 100.385 76.459 107.795 76.459V70.459C102.197 70.459 97.9944 68.3609 94.8593 64.1315L90.0391 67.7045ZM107.795 76.459C115.167 76.459 121.161 73.7268 125.376 68.1483L120.589 64.5313C117.632 68.4451 113.501 70.459 107.795 70.459V76.459ZM125.382 68.1398C129.496 62.6547 131.41 55.0975 131.519 45.8617L125.52 45.7906C125.418 54.3439 123.64 60.4625 120.582 64.5398L125.382 68.1398ZM131.52 45.8262V40.1309H125.52V45.8262H131.52ZM163.957 72.7207H160.957V75.7207H163.957V72.7207ZM200.344 72.7207H203.344V69.7207H200.344V72.7207ZM200.344 81V84H203.344V81H200.344ZM153.779 81H150.779V84H153.779V81ZM153.779 4.21875V1.21875H150.779V4.21875H153.779ZM163.957 4.21875H166.957V1.21875H163.957V4.21875ZM163.957 75.7207H200.344V69.7207H163.957V75.7207ZM197.344 72.7207V81H203.344V72.7207H197.344ZM200.344 78H153.779V84H200.344V78ZM156.779 81V4.21875H150.779V81H156.779ZM153.779 7.21875H163.957V1.21875H153.779V7.21875ZM160.957 4.21875V72.7207H166.957V4.21875H160.957ZM211.893 81H208.893V84H211.893V81ZM211.893 4.21875V1.21875H208.893V4.21875H211.893ZM263.15 21.252L260.478 22.6142L260.481 22.6211L260.485 22.6279L263.15 21.252ZM267.422 40.0254H270.422V40.0179L270.422 40.0105L267.422 40.0254ZM263.203 63.9668L260.537 62.5909L260.534 62.5977L260.53 62.6045L263.203 63.9668ZM251.232 76.5176L249.765 73.901L249.757 73.9052L251.232 76.5176ZM233.145 81V84H233.16L233.175 83.9998L233.145 81ZM222.018 12.5508V9.55078H219.018V12.5508H222.018ZM222.018 72.7207H219.018V75.7207H222.018V72.7207ZM250.863 65.4434L248.632 63.4382L248.624 63.4473L250.863 65.4434ZM251.232 19.9336L248.936 21.8639L248.944 21.8729L248.951 21.8819L251.232 19.9336ZM233.83 12.5508L233.858 9.55091L233.844 9.55078H233.83V12.5508ZM214.893 81V4.21875H208.893V81H214.893ZM211.893 7.21875H233.566V1.21875H211.893V7.21875ZM233.566 7.21875C239.79 7.21875 245.167 8.58967 249.789 11.2488L252.781 6.0481C247.137 2.80095 240.703 1.21875 233.566 1.21875V7.21875ZM249.789 11.2488C254.401 13.9021 257.955 17.665 260.478 22.6142L265.823 19.8897C262.791 13.9404 258.435 9.30107 252.781 6.0481L249.789 11.2488ZM260.485 22.6279C263.049 27.5962 264.389 33.3752 264.422 40.0403L270.422 40.0105C270.385 32.5428 268.877 25.8061 265.816 19.876L260.485 22.6279ZM264.422 40.0254V44.9297H270.422V40.0254H264.422ZM264.422 44.9297C264.422 51.7795 263.094 57.6377 260.537 62.5909L265.869 65.3427C268.938 59.3974 270.422 52.5642 270.422 44.9297H264.422ZM260.53 62.6045C258.015 67.5399 254.438 71.2805 249.765 73.901L252.7 79.1342C258.434 75.9187 262.837 71.2921 265.876 65.3291L260.53 62.6045ZM249.757 73.9052C245.097 76.5367 239.58 77.9342 233.114 78.0002L233.175 83.9998C240.49 83.9252 247.032 82.3344 252.707 79.1299L249.757 73.9052ZM233.145 78H211.893V84H233.145V78ZM219.018 12.5508V72.7207H225.018V12.5508H219.018ZM222.018 75.7207H232.67V69.7207H222.018V75.7207ZM232.67 75.7207C241.143 75.7207 248.096 73.0574 253.103 67.4395L248.624 63.4473C244.983 67.5325 239.807 69.7207 232.67 69.7207V75.7207ZM253.095 67.4485C258.108 61.8691 260.402 54.1451 260.402 44.7188H254.402C254.402 53.2221 252.337 59.3144 248.632 63.4383L253.095 67.4485ZM260.402 44.7188V40.2363H254.402V44.7188H260.402ZM260.402 40.2363C260.402 31.0718 258.24 23.5191 253.514 17.9853L248.951 21.8819C252.452 25.9809 254.402 31.9634 254.402 40.2363H260.402ZM253.529 18.0032C248.78 12.3542 242.077 9.62772 233.858 9.55091L233.802 15.5507C240.63 15.6145 245.528 17.8099 248.936 21.8639L253.529 18.0032ZM233.83 9.55078H222.018V15.5508H233.83V9.55078Z" fill="white"/>
</svg>
