<svg width="552" height="85" viewBox="0 0 552 85" fill="none" xmlns="http://www.w3.org/2000/svg">
<path d="M13.7754 80H3.65039V3.21875H13.7754V80ZM40.0371 22.9414L40.3535 30.1133C44.7129 24.6289 50.4082 21.8867 57.4395 21.8867C69.498 21.8867 75.5801 28.6895 75.6855 42.2949V80H65.9297V42.2422C65.8945 38.1289 64.9453 35.0879 63.082 33.1191C61.2539 31.1504 58.3887 30.166 54.4863 30.166C51.3223 30.166 48.5449 31.0098 46.1543 32.6973C43.7637 34.3848 41.9004 36.5996 40.5645 39.3418V80H30.8086V22.9414H40.0371ZM113.285 73.0918C116.766 73.0918 119.807 72.0371 122.408 69.9277C125.01 67.8184 126.451 65.1816 126.732 62.0176H135.961C135.785 65.2871 134.66 68.3984 132.586 71.3516C130.512 74.3047 127.734 76.6602 124.254 78.418C120.809 80.1758 117.152 81.0547 113.285 81.0547C105.516 81.0547 99.3281 78.4707 94.7227 73.3027C90.1523 68.0996 87.8672 60.998 87.8672 51.998V50.3633C87.8672 44.8086 88.8867 39.8691 90.9258 35.5449C92.9648 31.2207 95.8828 27.8633 99.6797 25.4727C103.512 23.082 108.029 21.8867 113.232 21.8867C119.631 21.8867 124.939 23.8027 129.158 27.6348C133.412 31.4668 135.68 36.4414 135.961 42.5586H126.732C126.451 38.8672 125.045 35.8438 122.514 33.4883C120.018 31.0977 116.924 29.9023 113.232 29.9023C108.275 29.9023 104.426 31.6953 101.684 35.2812C98.9766 38.832 97.623 43.9824 97.623 50.7324V52.5781C97.623 59.1523 98.9766 64.2148 101.684 67.7656C104.391 71.3164 108.258 73.0918 113.285 73.0918ZM144.346 50.9434C144.346 45.3535 145.436 40.3262 147.615 35.8613C149.83 31.3965 152.889 27.9512 156.791 25.5254C160.729 23.0996 165.211 21.8867 170.238 21.8867C178.008 21.8867 184.283 24.5762 189.064 29.9551C193.881 35.334 196.289 42.4883 196.289 51.418V52.1035C196.289 57.6582 195.217 62.6504 193.072 67.0801C190.963 71.4746 187.922 74.9023 183.949 77.3633C180.012 79.8242 175.477 81.0547 170.344 81.0547C162.609 81.0547 156.334 78.3652 151.518 72.9863C146.736 67.6074 144.346 60.4883 144.346 51.6289V50.9434ZM154.154 52.1035C154.154 58.4316 155.613 63.5117 158.531 67.3438C161.484 71.1758 165.422 73.0918 170.344 73.0918C175.301 73.0918 179.238 71.1582 182.156 67.291C185.074 63.3887 186.533 57.9395 186.533 50.9434C186.533 44.6855 185.039 39.623 182.051 35.7559C179.098 31.8535 175.16 29.9023 170.238 29.9023C165.422 29.9023 161.537 31.8184 158.584 35.6504C155.631 39.4824 154.154 44.9668 154.154 52.1035ZM217.699 22.9414L217.963 29.2695C222.146 24.3477 227.789 21.8867 234.891 21.8867C242.871 21.8867 248.303 24.9453 251.186 31.0625C253.084 28.3203 255.545 26.1055 258.568 24.418C261.627 22.7305 265.23 21.8867 269.379 21.8867C281.895 21.8867 288.258 28.5137 288.469 41.7676V80H278.713V42.3477C278.713 38.2695 277.781 35.2285 275.918 33.2246C274.055 31.1855 270.926 30.166 266.531 30.166C262.91 30.166 259.904 31.2559 257.514 33.4355C255.123 35.5801 253.734 38.4805 253.348 42.1367V80H243.539V42.6113C243.539 34.3145 239.479 30.166 231.357 30.166C224.959 30.166 220.582 32.8906 218.227 38.3398V80H208.471V22.9414H217.699ZM326.912 81.0547C319.178 81.0547 312.885 78.5234 308.033 73.4609C303.182 68.3633 300.756 61.5605 300.756 53.0527V51.2598C300.756 45.5996 301.828 40.5547 303.973 36.125C306.152 31.6602 309.176 28.1797 313.043 25.6836C316.945 23.1523 321.164 21.8867 325.699 21.8867C333.117 21.8867 338.883 24.3301 342.996 29.2168C347.109 34.1035 349.166 41.0996 349.166 50.2051V54.2656H310.512C310.652 59.8906 312.287 64.4434 315.416 67.9238C318.58 71.3691 322.588 73.0918 327.439 73.0918C330.885 73.0918 333.803 72.3887 336.193 70.9824C338.584 69.5762 340.676 67.7129 342.469 65.3926L348.428 70.0332C343.646 77.3809 336.475 81.0547 326.912 81.0547ZM325.699 29.9023C321.762 29.9023 318.457 31.3438 315.785 34.2266C313.113 37.0742 311.461 41.082 310.828 46.25H339.41V45.5117C339.129 40.5547 337.793 36.7227 335.402 34.0156C333.012 31.2734 329.777 29.9023 325.699 29.9023ZM439.764 11.5508H415.084V80H405.012V11.5508H380.385V3.21875H439.764V11.5508ZM478.84 80C478.277 78.875 477.82 76.8711 477.469 73.9883C472.934 78.6992 467.52 81.0547 461.227 81.0547C455.602 81.0547 450.979 79.4727 447.357 76.3086C443.771 73.1094 441.979 69.0664 441.979 64.1797C441.979 58.2383 444.229 53.6328 448.729 50.3633C453.264 47.0586 459.627 45.4062 467.818 45.4062H477.311V40.9238C477.311 37.5137 476.291 34.8066 474.252 32.8027C472.213 30.7637 469.207 29.7441 465.234 29.7441C461.754 29.7441 458.836 30.623 456.48 32.3809C454.125 34.1387 452.947 36.2656 452.947 38.7617H443.139C443.139 35.9141 444.141 33.1719 446.145 30.5352C448.184 27.8633 450.926 25.7539 454.371 24.207C457.852 22.6602 461.666 21.8867 465.814 21.8867C472.389 21.8867 477.539 23.5391 481.266 26.8438C484.992 30.1133 486.926 34.6309 487.066 40.3965V66.6582C487.066 71.8965 487.734 76.0625 489.07 79.1562V80H478.84ZM462.65 72.5645C465.709 72.5645 468.609 71.7734 471.352 70.1914C474.094 68.6094 476.08 66.5527 477.311 64.0215V52.3145H469.664C457.711 52.3145 451.734 55.8125 451.734 62.8086C451.734 65.8672 452.754 68.2578 454.793 69.9805C456.832 71.7031 459.451 72.5645 462.65 72.5645ZM521.502 43.7715L534.158 22.9414H545.549L526.881 51.1543L546.129 80H534.844L521.66 58.6426L508.477 80H497.139L516.387 51.1543L497.719 22.9414H509.004L521.502 43.7715Z" fill="white"/>
<path d="M13.7754 80V83H16.7754V80H13.7754ZM3.65039 80H0.650391V83H3.65039V80ZM3.65039 3.21875V0.21875H0.650391V3.21875H3.65039ZM13.7754 3.21875H16.7754V0.21875H13.7754V3.21875ZM13.7754 77H3.65039V83H13.7754V77ZM6.65039 80V3.21875H0.650391V80H6.65039ZM3.65039 6.21875H13.7754V0.21875H3.65039V6.21875ZM10.7754 3.21875V80H16.7754V3.21875H10.7754ZM40.0371 22.9414L43.0342 22.8092L42.9077 19.9414H40.0371V22.9414ZM40.3535 30.1133L37.3564 30.2455L37.71 38.2602L42.702 31.98L40.3535 30.1133ZM75.6855 42.2949H78.6855V42.2833L78.6855 42.2717L75.6855 42.2949ZM75.6855 80V83H78.6855V80H75.6855ZM65.9297 80H62.9297V83H65.9297V80ZM65.9297 42.2422H68.9297V42.2294L68.9296 42.2165L65.9297 42.2422ZM63.082 33.1191L60.8837 35.1605L60.8933 35.1709L60.9032 35.1813L63.082 33.1191ZM40.5645 39.3418L37.8675 38.0279L37.5645 38.6499V39.3418H40.5645ZM40.5645 80V83H43.5645V80H40.5645ZM30.8086 80H27.8086V83H30.8086V80ZM30.8086 22.9414V19.9414H27.8086V22.9414H30.8086ZM37.04 23.0736L37.3564 30.2455L43.3506 29.9811L43.0342 22.8092L37.04 23.0736ZM42.702 31.98C46.4898 27.2147 51.319 24.8867 57.4395 24.8867V18.8867C49.4974 18.8867 42.936 22.0431 38.005 28.2465L42.702 31.98ZM57.4395 24.8867C62.9045 24.8867 66.5046 26.4115 68.8084 28.9883C71.1725 31.6325 72.6359 35.8967 72.6856 42.3182L78.6855 42.2717C78.6298 35.0877 76.9994 29.1478 73.2814 24.9892C69.5032 20.7633 64.033 18.8867 57.4395 18.8867V24.8867ZM72.6855 42.2949V80H78.6855V42.2949H72.6855ZM75.6855 77H65.9297V83H75.6855V77ZM68.9297 80V42.2422H62.9297V80H68.9297ZM68.9296 42.2165C68.8912 37.7269 67.859 33.8021 65.2609 31.057L60.9032 35.1813C62.0316 36.3736 62.8979 38.5309 62.9298 42.2678L68.9296 42.2165ZM65.2804 31.0778C62.6684 28.2649 58.8407 27.166 54.4863 27.166V33.166C57.9367 33.166 59.8394 34.0359 60.8837 35.1605L65.2804 31.0778ZM54.4863 27.166C50.7557 27.166 47.3627 28.1722 44.4242 30.2464L47.8843 35.1482C49.7272 33.8474 51.8888 33.166 54.4863 33.166V27.166ZM44.4242 30.2464C41.6029 32.2379 39.4151 34.8513 37.8675 38.0279L43.2614 40.6557C44.3857 38.3479 45.9245 36.5316 47.8843 35.1482L44.4242 30.2464ZM37.5645 39.3418V80H43.5645V39.3418H37.5645ZM40.5645 77H30.8086V83H40.5645V77ZM33.8086 80V22.9414H27.8086V80H33.8086ZM30.8086 25.9414H40.0371V19.9414H30.8086V25.9414ZM126.732 62.0176V59.0176H123.987L123.744 61.752L126.732 62.0176ZM135.961 62.0176L138.957 62.1786L139.127 59.0176H135.961V62.0176ZM124.254 78.418L122.901 75.7401L122.89 75.7457L124.254 78.418ZM94.7227 73.3027L92.4687 75.2826L92.4758 75.2906L92.4829 75.2987L94.7227 73.3027ZM99.6797 25.4727L98.0918 22.9273L98.0812 22.934L99.6797 25.4727ZM129.158 27.6348L127.141 29.8554L127.15 29.8637L129.158 27.6348ZM135.961 42.5586V45.5586H139.102L138.958 42.4208L135.961 42.5586ZM126.732 42.5586L123.741 42.7865L123.952 45.5586H126.732V42.5586ZM122.514 33.4883L120.439 35.6549L120.454 35.6698L120.47 35.6845L122.514 33.4883ZM101.684 35.2812L99.3005 33.4589L99.2978 33.4624L101.684 35.2812ZM113.285 76.0918C117.424 76.0918 121.139 74.8187 124.298 72.258L120.519 67.5975C118.474 69.2555 116.107 70.0918 113.285 70.0918V76.0918ZM124.298 72.258C127.491 69.6685 129.363 66.3036 129.721 62.2832L123.744 61.752C123.539 64.0597 122.528 65.9683 120.519 67.5975L124.298 72.258ZM126.732 65.0176H135.961V59.0176H126.732V65.0176ZM132.965 61.8565C132.823 64.5081 131.916 67.0856 130.131 69.6273L135.041 73.0759C137.404 69.7112 138.748 66.0661 138.957 62.1786L132.965 61.8565ZM130.131 69.6273C128.363 72.1447 125.978 74.1863 122.901 75.7401L125.606 81.0958C129.491 79.134 132.661 76.4647 135.041 73.0759L130.131 69.6273ZM122.89 75.7457C119.867 77.2881 116.678 78.0547 113.285 78.0547V84.0547C117.626 84.0547 121.75 83.0634 125.617 81.0903L122.89 75.7457ZM113.285 78.0547C106.255 78.0547 100.925 75.7539 96.9624 71.3068L92.4829 75.2987C97.7309 81.1875 104.777 84.0547 113.285 84.0547V78.0547ZM96.9766 71.3229C93.0165 66.8144 90.8672 60.4926 90.8672 51.998H84.8672C84.8672 61.5035 87.2882 69.3848 92.4687 75.2826L96.9766 71.3229ZM90.8672 51.998V50.3633H84.8672V51.998H90.8672ZM90.8672 50.3633C90.8672 45.1797 91.8171 40.6887 93.6392 36.8244L88.2123 34.2654C85.9564 39.0496 84.8672 44.4375 84.8672 50.3633H90.8672ZM93.6392 36.8244C95.451 32.9822 97.9975 30.0769 101.278 28.0114L98.0812 22.934C93.7681 25.6497 90.4787 29.4592 88.2123 34.2654L93.6392 36.8244ZM101.268 28.018C104.554 25.9675 108.504 24.8867 113.232 24.8867V18.8867C107.555 18.8867 102.469 20.1966 98.0918 22.9273L101.268 28.018ZM113.232 24.8867C118.983 24.8867 123.543 26.5874 127.141 29.8554L131.175 25.4141C126.336 21.0181 120.278 18.8867 113.232 18.8867V24.8867ZM127.15 29.8637C130.764 33.1189 132.717 37.3186 132.964 42.6964L138.958 42.4208C138.643 35.5642 136.06 29.8147 131.166 25.4058L127.15 29.8637ZM135.961 39.5586H126.732V45.5586H135.961V39.5586ZM129.724 42.3307C129.39 37.9455 127.682 34.1996 124.557 31.2921L120.47 35.6845C122.408 37.4879 123.513 39.7889 123.741 42.7865L129.724 42.3307ZM124.589 31.3217C121.494 28.3575 117.639 26.9023 113.232 26.9023V32.9023C116.208 32.9023 118.541 33.8378 120.439 35.6549L124.589 31.3217ZM113.232 26.9023C107.446 26.9023 102.671 29.0508 99.3005 33.4589L104.067 37.1036C106.18 34.3399 109.104 32.9023 113.232 32.9023V26.9023ZM99.2978 33.4624C96.0345 37.7429 94.623 43.6445 94.623 50.7324H100.623C100.623 44.3203 101.919 39.9212 104.069 37.1001L99.2978 33.4624ZM94.623 50.7324V52.5781H100.623V50.7324H94.623ZM94.623 52.5781C94.623 59.5117 96.0433 65.3155 99.2978 69.5845L104.069 65.9468C101.91 63.1142 100.623 58.793 100.623 52.5781H94.623ZM99.2978 69.5845C102.649 73.9806 107.457 76.0918 113.285 76.0918V70.0918C109.059 70.0918 106.132 68.6523 104.069 65.9468L99.2978 69.5845ZM147.615 35.8613L144.928 34.5282L144.924 34.5367L144.919 34.5452L147.615 35.8613ZM156.791 25.5254L155.217 22.9712L155.207 22.9775L156.791 25.5254ZM189.064 29.9551L186.822 31.9482L186.829 31.9563L189.064 29.9551ZM193.072 67.0801L190.372 65.7728L190.368 65.7819L193.072 67.0801ZM183.949 77.3633L182.369 74.813L182.359 74.8193L183.949 77.3633ZM151.518 72.9863L149.275 74.9794L149.283 74.9876L151.518 72.9863ZM158.531 67.3438L156.144 69.1612L156.15 69.1681L156.155 69.175L158.531 67.3438ZM182.156 67.291L184.551 69.098L184.559 69.0875L182.156 67.291ZM182.051 35.7559L179.659 37.5662L179.668 37.5782L179.677 37.5902L182.051 35.7559ZM147.346 50.9434C147.346 45.7522 148.355 41.1837 150.311 37.1774L144.919 34.5452C142.516 39.4686 141.346 44.9549 141.346 50.9434H147.346ZM150.303 37.1945C152.292 33.1854 154.986 30.1797 158.375 28.0732L155.207 22.9775C150.791 25.7226 147.369 29.6076 144.928 34.5282L150.303 37.1945ZM158.365 28.0796C161.788 25.9705 165.716 24.8867 170.238 24.8867V18.8867C164.705 18.8867 159.669 20.2287 155.217 22.9712L158.365 28.0796ZM170.238 24.8867C177.228 24.8867 182.659 27.265 186.822 31.9482L191.307 27.962C185.907 21.8874 178.788 18.8867 170.238 18.8867V24.8867ZM186.829 31.9563C191.044 36.6629 193.289 43.0445 193.289 51.418H199.289C199.289 41.9321 196.718 34.0051 191.299 27.9538L186.829 31.9563ZM193.289 51.418V52.1035H199.289V51.418H193.289ZM193.289 52.1035C193.289 57.264 192.295 61.8003 190.372 65.7728L195.772 68.3873C198.138 63.5004 199.289 58.0524 199.289 52.1035H193.289ZM190.368 65.7819C188.495 69.6837 185.834 72.6669 182.369 74.813L185.529 79.9136C190.01 77.1378 193.431 73.2655 195.777 68.3783L190.368 65.7819ZM182.359 74.8193C178.948 76.9513 174.976 78.0547 170.344 78.0547V84.0547C175.978 84.0547 181.076 82.6971 185.539 79.9073L182.359 74.8193ZM170.344 78.0547C163.394 78.0547 157.956 75.6792 153.753 70.9851L149.283 74.9876C154.712 81.0513 161.825 84.0547 170.344 84.0547V78.0547ZM153.76 70.9932C149.573 66.2828 147.346 59.9306 147.346 51.6289H141.346C141.346 61.046 143.9 68.932 149.275 74.9794L153.76 70.9932ZM147.346 51.6289V50.9434H141.346V51.6289H147.346ZM151.154 52.1035C151.154 58.8822 152.72 64.6637 156.144 69.1612L160.918 65.5263C158.507 62.3598 157.154 57.9811 157.154 52.1035H151.154ZM156.155 69.175C159.688 73.7589 164.51 76.0918 170.344 76.0918V70.0918C166.333 70.0918 163.281 68.5927 160.908 65.5125L156.155 69.175ZM170.344 76.0918C176.216 76.0918 181.051 73.7368 184.551 69.098L179.761 65.4841C177.426 68.5796 174.385 70.0918 170.344 70.0918V76.0918ZM184.559 69.0875C188.001 64.484 189.533 58.3144 189.533 50.9434H183.533C183.533 57.5645 182.147 62.2934 179.754 65.4945L184.559 69.0875ZM189.533 50.9434C189.533 44.2098 187.921 38.4457 184.425 33.9215L179.677 37.5902C182.158 40.8004 183.533 45.1613 183.533 50.9434H189.533ZM184.443 33.9455C180.919 29.2888 176.094 26.9023 170.238 26.9023V32.9023C174.227 32.9023 177.276 34.4182 179.659 37.5662L184.443 33.9455ZM170.238 26.9023C164.487 26.9023 159.726 29.254 156.208 33.8192L160.96 37.4816C163.348 34.3827 166.357 32.9023 170.238 32.9023V26.9023ZM156.208 33.8192C152.698 38.3734 151.154 44.6064 151.154 52.1035H157.154C157.154 45.3272 158.564 40.5914 160.96 37.4816L156.208 33.8192ZM217.699 22.9414L220.697 22.8165L220.577 19.9414H217.699V22.9414ZM217.963 29.2695L214.965 29.3944L215.285 37.0526L220.249 31.2125L217.963 29.2695ZM251.186 31.0625L248.472 32.3414L250.69 37.0486L253.652 32.7701L251.186 31.0625ZM258.568 24.418L257.119 21.7912L257.113 21.7948L257.106 21.7984L258.568 24.418ZM288.469 41.7676H291.469V41.7437L291.468 41.7198L288.469 41.7676ZM288.469 80V83H291.469V80H288.469ZM278.713 80H275.713V83H278.713V80ZM275.918 33.2246L273.703 35.2483L273.712 35.2579L273.721 35.2674L275.918 33.2246ZM257.514 33.4355L259.517 35.6687L259.526 35.6606L259.535 35.6524L257.514 33.4355ZM253.348 42.1367L250.364 41.8212L250.348 41.9785V42.1367H253.348ZM253.348 80V83H256.348V80H253.348ZM243.539 80H240.539V83H243.539V80ZM218.227 38.3398L215.473 37.1495L215.227 37.7192V38.3398H218.227ZM218.227 80V83H221.227V80H218.227ZM208.471 80H205.471V83H208.471V80ZM208.471 22.9414V19.9414H205.471V22.9414H208.471ZM214.702 23.0663L214.965 29.3944L220.96 29.1446L220.697 22.8165L214.702 23.0663ZM220.249 31.2125C223.801 27.0329 228.57 24.8867 234.891 24.8867V18.8867C227.008 18.8867 220.492 21.6624 215.677 27.3266L220.249 31.2125ZM234.891 24.8867C238.507 24.8867 241.32 25.5798 243.478 26.7947C245.605 27.9924 247.272 29.7956 248.472 32.3414L253.899 29.7836C252.216 26.2122 249.726 23.4275 246.422 21.5666C243.148 19.723 239.255 18.8867 234.891 18.8867V24.8867ZM253.652 32.7701C255.28 30.4192 257.391 28.5105 260.03 27.0376L257.106 21.7984C253.698 23.7004 250.888 26.2214 248.719 29.3549L253.652 32.7701ZM260.018 27.0447C262.556 25.6442 265.642 24.8867 269.379 24.8867V18.8867C264.819 18.8867 260.698 19.8167 257.119 21.7912L260.018 27.0447ZM269.379 24.8867C275.125 24.8867 278.94 26.3993 281.374 28.9348C283.838 31.501 285.37 35.6132 285.469 41.8153L291.468 41.7198C291.356 34.6681 289.601 28.8398 285.702 24.7791C281.773 20.6876 276.148 18.8867 269.379 18.8867V24.8867ZM285.469 41.7676V80H291.469V41.7676H285.469ZM288.469 77H278.713V83H288.469V77ZM281.713 80V42.3477H275.713V80H281.713ZM281.713 42.3477C281.713 37.8759 280.698 33.9598 278.115 31.1818L273.721 35.2674C274.865 36.4973 275.713 38.6632 275.713 42.3477H281.713ZM278.133 31.2009C275.44 28.2537 271.281 27.166 266.531 27.166V33.166C270.57 33.166 272.67 34.1174 273.703 35.2483L278.133 31.2009ZM266.531 27.166C262.259 27.166 258.503 28.4739 255.492 31.2187L259.535 35.6524C261.306 34.0378 263.562 33.166 266.531 33.166V27.166ZM255.51 31.2024C252.487 33.9146 250.817 37.5408 250.364 41.8212L256.331 42.4523C256.652 39.4201 257.759 37.2456 259.517 35.6687L255.51 31.2024ZM250.348 42.1367V80H256.348V42.1367H250.348ZM253.348 77H243.539V83H253.348V77ZM246.539 80V42.6113H240.539V80H246.539ZM246.539 42.6113C246.539 38.0164 245.415 34.0161 242.638 31.1789C239.849 28.3297 235.897 27.166 231.357 27.166V33.166C234.939 33.166 237.078 34.0765 238.35 35.3758C239.633 36.687 240.539 38.9094 240.539 42.6113H246.539ZM231.357 27.166C227.732 27.166 224.457 27.9402 221.69 29.6626C218.908 31.3946 216.855 33.952 215.473 37.1495L220.98 39.5302C221.954 37.2785 223.267 35.7489 224.861 34.7563C226.471 33.7541 228.584 33.166 231.357 33.166V27.166ZM215.227 38.3398V80H221.227V38.3398H215.227ZM218.227 77H208.471V83H218.227V77ZM211.471 80V22.9414H205.471V80H211.471ZM208.471 25.9414H217.699V19.9414H208.471V25.9414ZM308.033 73.4609L305.86 75.5292L305.867 75.5367L308.033 73.4609ZM303.973 36.125L301.277 34.8089L301.272 34.8178L303.973 36.125ZM313.043 25.6836L314.67 28.2042L314.676 28.2005L313.043 25.6836ZM349.166 54.2656V57.2656H352.166V54.2656H349.166ZM310.512 54.2656V51.2656H307.436L307.513 54.3406L310.512 54.2656ZM315.416 67.9238L313.185 69.9295L313.196 69.9413L313.206 69.953L315.416 67.9238ZM342.469 65.3926L344.312 63.0257L341.936 61.1754L340.095 63.5582L342.469 65.3926ZM348.428 70.0332L350.942 71.6694L352.445 69.3596L350.271 67.6663L348.428 70.0332ZM315.785 34.2266L317.973 36.2793L317.979 36.2726L317.985 36.2659L315.785 34.2266ZM310.828 46.25L307.85 45.8854L307.438 49.25H310.828V46.25ZM339.41 46.25V49.25H342.41V46.25H339.41ZM339.41 45.5117H342.41V45.4267L342.405 45.3418L339.41 45.5117ZM335.402 34.0156L333.141 35.987L333.147 35.9943L333.154 36.0015L335.402 34.0156ZM326.912 78.0547C319.902 78.0547 314.424 75.7933 310.199 71.3852L305.867 75.5367C311.346 81.2536 318.453 84.0547 326.912 84.0547V78.0547ZM310.206 71.3927C305.993 66.9652 303.756 60.9611 303.756 53.0527H297.756C297.756 62.16 300.371 69.7614 305.86 75.5292L310.206 71.3927ZM303.756 53.0527V51.2598H297.756V53.0527H303.756ZM303.756 51.2598C303.756 45.9844 304.753 41.3973 306.673 37.4322L301.272 34.8178C298.903 39.712 297.756 45.2148 297.756 51.2598H303.756ZM306.669 37.4411C308.628 33.4272 311.299 30.3802 314.67 28.2041L311.416 23.163C307.053 25.9792 303.677 29.8931 301.277 34.8089L306.669 37.4411ZM314.676 28.2005C318.105 25.976 321.759 24.8867 325.699 24.8867V18.8867C320.569 18.8867 315.786 20.3287 311.41 23.1667L314.676 28.2005ZM325.699 24.8867C332.391 24.8867 337.253 27.052 340.701 31.1487L345.291 27.2849C340.513 21.6082 333.843 18.8867 325.699 18.8867V24.8867ZM340.701 31.1487C344.199 35.3048 346.166 41.5107 346.166 50.2051H352.166C352.166 40.6885 350.02 32.9023 345.291 27.2849L340.701 31.1487ZM346.166 50.2051V54.2656H352.166V50.2051H346.166ZM349.166 51.2656H310.512V57.2656H349.166V51.2656ZM307.513 54.3406C307.667 60.529 309.486 65.815 313.185 69.9295L317.647 65.9182C315.088 63.0717 313.637 59.2522 313.511 54.1907L307.513 54.3406ZM313.206 69.953C316.962 74.0426 321.783 76.0918 327.439 76.0918V70.0918C323.393 70.0918 320.198 68.6957 317.626 65.8946L313.206 69.953ZM327.439 76.0918C331.291 76.0918 334.763 75.3041 337.714 73.5682L334.672 68.3966C332.842 69.4732 330.478 70.0918 327.439 70.0918V76.0918ZM337.714 73.5682C340.453 71.9572 342.829 69.8322 344.843 67.2269L340.095 63.5582C338.522 65.5936 336.715 67.1952 334.672 68.3966L337.714 73.5682ZM340.625 67.7595L346.584 72.4001L350.271 67.6663L344.312 63.0257L340.625 67.7595ZM345.913 68.397C341.743 74.8061 335.569 78.0547 326.912 78.0547V84.0547C337.38 84.0547 345.55 79.9556 350.942 71.6694L345.913 68.397ZM325.699 26.9023C320.928 26.9023 316.826 28.6907 313.585 32.1873L317.985 36.2659C320.088 33.9968 322.595 32.9023 325.699 32.9023V26.9023ZM313.597 32.1738C310.365 35.619 308.535 40.2938 307.85 45.8854L313.806 46.6146C314.387 41.8702 315.862 38.5295 317.973 36.2793L313.597 32.1738ZM310.828 49.25H339.41V43.25H310.828V49.25ZM342.41 46.25V45.5117H336.41V46.25H342.41ZM342.405 45.3418C342.1 39.9617 340.628 35.4007 337.651 32.0298L333.154 36.0015C334.958 38.0446 336.158 41.1477 336.415 45.6817L342.405 45.3418ZM337.664 32.0442C334.631 28.565 330.527 26.9023 325.699 26.9023V32.9023C329.028 32.9023 331.393 33.9818 333.141 35.987L337.664 32.0442ZM439.764 11.5508V14.5508H442.764V11.5508H439.764ZM415.084 11.5508V8.55078H412.084V11.5508H415.084ZM415.084 80V83H418.084V80H415.084ZM405.012 80H402.012V83H405.012V80ZM405.012 11.5508H408.012V8.55078H405.012V11.5508ZM380.385 11.5508H377.385V14.5508H380.385V11.5508ZM380.385 3.21875V0.21875H377.385V3.21875H380.385ZM439.764 3.21875H442.764V0.21875H439.764V3.21875ZM439.764 8.55078H415.084V14.5508H439.764V8.55078ZM412.084 11.5508V80H418.084V11.5508H412.084ZM415.084 77H405.012V83H415.084V77ZM408.012 80V11.5508H402.012V80H408.012ZM405.012 8.55078H380.385V14.5508H405.012V8.55078ZM383.385 11.5508V3.21875H377.385V11.5508H383.385ZM380.385 6.21875H439.764V0.21875H380.385V6.21875ZM436.764 3.21875V11.5508H442.764V3.21875H436.764ZM478.84 80L476.157 81.3416L476.986 83H478.84V80ZM477.469 73.9883L480.447 73.6251L479.683 67.3626L475.307 71.9077L477.469 73.9883ZM447.357 76.3086L445.36 78.5472L445.372 78.5575L445.383 78.5677L447.357 76.3086ZM448.729 50.3633L450.492 52.7903L450.495 52.7879L448.729 50.3633ZM477.311 45.4062V48.4062H480.311V45.4062H477.311ZM474.252 32.8027L472.131 34.9241L472.14 34.9333L472.149 34.9424L474.252 32.8027ZM452.947 38.7617V41.7617H455.947V38.7617H452.947ZM443.139 38.7617H440.139V41.7617H443.139V38.7617ZM446.145 30.5352L443.76 28.7151L443.756 28.7199L446.145 30.5352ZM454.371 24.207L453.153 21.4656L453.142 21.4702L454.371 24.207ZM481.266 26.8438L479.275 29.0883L479.281 29.0936L479.287 29.0988L481.266 26.8438ZM487.066 40.3965H490.066V40.3599L490.066 40.3233L487.066 40.3965ZM489.07 79.1562H492.07V78.5362L491.824 77.9669L489.07 79.1562ZM489.07 80V83H492.07V80H489.07ZM477.311 64.0215L480.009 65.3331L480.311 64.712V64.0215H477.311ZM477.311 52.3145H480.311V49.3145H477.311V52.3145ZM481.523 78.6584C481.213 78.039 480.797 76.4965 480.447 73.6251L474.491 74.3514C474.844 77.2457 475.341 79.711 476.157 81.3416L481.523 78.6584ZM475.307 71.9077C471.313 76.057 466.669 78.0547 461.227 78.0547V84.0547C468.37 84.0547 474.554 81.3415 479.63 76.0689L475.307 71.9077ZM461.227 78.0547C456.197 78.0547 452.315 76.6566 449.331 74.0495L445.383 78.5677C449.642 82.2887 455.006 84.0547 461.227 84.0547V78.0547ZM449.355 74.07C446.419 71.4509 444.979 68.2279 444.979 64.1797H438.979C438.979 69.9049 441.124 74.7679 445.36 78.5472L449.355 74.07ZM444.979 64.1797C444.979 59.122 446.829 55.4518 450.492 52.7903L446.965 47.9363C441.628 51.8138 438.979 57.3546 438.979 64.1797H444.979ZM450.495 52.7879C454.33 49.9936 459.982 48.4062 467.818 48.4062V42.4062C459.271 42.4062 452.197 44.1236 446.962 47.9387L450.495 52.7879ZM467.818 48.4062H477.311V42.4062H467.818V48.4062ZM480.311 45.4062V40.9238H474.311V45.4062H480.311ZM480.311 40.9238C480.311 36.8758 479.077 33.3381 476.355 30.663L472.149 34.9424C473.505 36.2752 474.311 38.1515 474.311 40.9238H480.311ZM476.373 30.6814C473.587 27.8947 469.696 26.7441 465.234 26.7441V32.7441C468.718 32.7441 470.839 33.6326 472.131 34.9241L476.373 30.6814ZM465.234 26.7441C461.23 26.7441 457.65 27.7644 454.686 29.9766L458.275 34.7852C460.021 33.4817 462.278 32.7441 465.234 32.7441V26.7441ZM454.686 29.9766C451.724 32.1869 449.947 35.1435 449.947 38.7617H455.947C455.947 37.3877 456.526 36.0905 458.275 34.7852L454.686 29.9766ZM452.947 35.7617H443.139V41.7617H452.947V35.7617ZM446.139 38.7617C446.139 36.6728 446.859 34.5536 448.533 32.3504L443.756 28.7199C441.423 31.7901 440.139 35.1553 440.139 38.7617H446.139ZM448.529 32.3552C450.23 30.1274 452.553 28.3118 455.6 26.9438L453.142 21.4702C449.299 23.196 446.138 25.5991 443.76 28.7151L448.529 32.3552ZM455.59 26.9485C458.653 25.5868 462.048 24.8867 465.814 24.8867V18.8867C461.284 18.8867 457.05 19.7335 453.153 21.4656L455.59 26.9485ZM465.814 24.8867C471.894 24.8867 476.253 26.4085 479.275 29.0883L483.256 24.5992C478.825 20.6697 472.883 18.8867 465.814 18.8867V24.8867ZM479.287 29.0988C482.279 31.7239 483.943 35.3921 484.067 40.4696L490.066 40.3233C489.908 33.8696 487.705 28.5027 483.244 24.5887L479.287 29.0988ZM484.066 40.3965V66.6582H490.066V40.3965H484.066ZM484.066 66.6582C484.066 72.1026 484.753 76.7264 486.316 80.3456L491.824 77.9669C490.715 75.3986 490.066 71.6903 490.066 66.6582H484.066ZM486.07 79.1562V80H492.07V79.1562H486.07ZM489.07 77H478.84V83H489.07V77ZM462.65 75.5645C466.254 75.5645 469.669 74.6254 472.851 72.79L469.852 67.5928C467.549 68.9215 465.164 69.5645 462.65 69.5645V75.5645ZM472.851 72.79C476.045 70.9471 478.484 68.4692 480.009 65.3331L474.612 62.7099C473.676 64.6362 472.143 66.2716 469.852 67.5928L472.851 72.79ZM480.311 64.0215V52.3145H474.311V64.0215H480.311ZM477.311 49.3145H469.664V55.3145H477.311V49.3145ZM469.664 49.3145C463.493 49.3145 458.373 50.2 454.701 52.3489C450.782 54.6429 448.734 58.2586 448.734 62.8086H454.734C454.734 60.3624 455.675 58.7311 457.732 57.5271C460.037 56.1779 463.882 55.3145 469.664 55.3145V49.3145ZM448.734 62.8086C448.734 66.6067 450.04 69.8928 452.857 72.2721L456.729 67.6888C455.467 66.6229 454.734 65.1277 454.734 62.8086H448.734ZM452.857 72.2721C455.54 74.5388 458.889 75.5645 462.65 75.5645V69.5645C460.013 69.5645 458.124 68.8674 456.729 67.6888L452.857 72.2721ZM521.502 43.7715L518.93 45.315L521.486 49.5755L524.066 45.3293L521.502 43.7715ZM534.158 22.9414V19.9414H532.471L531.594 21.3836L534.158 22.9414ZM545.549 22.9414L548.051 24.5969L551.131 19.9414H545.549V22.9414ZM526.881 51.1543L524.379 49.4988L523.279 51.1613L524.385 52.8195L526.881 51.1543ZM546.129 80V83H551.737L548.624 78.3348L546.129 80ZM534.844 80L532.291 81.5758L533.17 83H534.844V80ZM521.66 58.6426L524.213 57.0668L521.66 52.9312L519.107 57.0668L521.66 58.6426ZM508.477 80V83H510.15L511.029 81.5758L508.477 80ZM497.139 80L494.643 78.3348L491.53 83H497.139V80ZM516.387 51.1543L518.882 52.8195L519.989 51.1613L518.889 49.4988L516.387 51.1543ZM497.719 22.9414V19.9414H492.136L495.217 24.5969L497.719 22.9414ZM509.004 22.9414L511.576 21.3979L510.702 19.9414H509.004V22.9414ZM524.066 45.3293L536.722 24.4992L531.594 21.3836L518.938 42.2137L524.066 45.3293ZM534.158 25.9414H545.549V19.9414H534.158V25.9414ZM543.047 21.2859L524.379 49.4988L529.383 52.8098L548.051 24.5969L543.047 21.2859ZM524.385 52.8195L543.633 81.6652L548.624 78.3348L529.376 49.4891L524.385 52.8195ZM546.129 77H534.844V83H546.129V77ZM537.397 78.4242L524.213 57.0668L519.107 60.2184L532.291 81.5758L537.397 78.4242ZM519.107 57.0668L505.924 78.4242L511.029 81.5758L524.213 60.2184L519.107 57.0668ZM508.477 77H497.139V83H508.477V77ZM499.634 81.6652L518.882 52.8195L513.891 49.4891L494.643 78.3348L499.634 81.6652ZM518.889 49.4988L500.221 21.2859L495.217 24.5969L513.885 52.8098L518.889 49.4988ZM497.719 25.9414H509.004V19.9414H497.719V25.9414ZM506.431 24.4849L518.93 45.315L524.074 42.228L511.576 21.3979L506.431 24.4849Z" fill="#FA9B99"/>
</svg>
