<svg width="324" height="216" viewBox="0 0 324 216" fill="none" xmlns="http://www.w3.org/2000/svg">
<path d="M16.9902 7.21875L42.0918 69.8672L67.1934 7.21875H80.3242V84H70.1992V54.0996L71.1484 21.8262L45.9414 84H38.1895L13.0352 21.9844L14.0371 54.0996V84H3.91211V7.21875H16.9902ZM131.898 78.3574C128.102 82.8223 122.529 85.0547 115.182 85.0547C109.1 85.0547 104.459 83.2969 101.26 79.7812C98.0957 76.2305 96.4961 70.9922 96.4609 64.0664V26.9414H106.217V63.8027C106.217 72.4512 109.732 76.7754 116.764 76.7754C124.217 76.7754 129.174 73.998 131.635 68.4434V26.9414H141.391V84H132.109L131.898 78.3574ZM169.498 13.125V26.9414H180.15V34.4824H169.498V69.8672C169.498 72.1523 169.973 73.875 170.922 75.0352C171.871 76.1602 173.488 76.7227 175.773 76.7227C176.898 76.7227 178.445 76.5117 180.414 76.0898V84C177.848 84.7031 175.352 85.0547 172.926 85.0547C168.566 85.0547 165.279 83.7363 163.064 81.0996C160.85 78.4629 159.742 74.7188 159.742 69.8672V34.4824H149.354V26.9414H159.742V13.125H169.498ZM226.82 78.3574C223.023 82.8223 217.451 85.0547 210.104 85.0547C204.021 85.0547 199.381 83.2969 196.182 79.7812C193.018 76.2305 191.418 70.9922 191.383 64.0664V26.9414H201.139V63.8027C201.139 72.4512 204.654 76.7754 211.686 76.7754C219.139 76.7754 224.096 73.998 226.557 68.4434V26.9414H236.312V84H227.031L226.82 78.3574ZM286.41 84C285.848 82.875 285.391 80.8711 285.039 77.9883C280.504 82.6992 275.09 85.0547 268.797 85.0547C263.172 85.0547 258.549 83.4727 254.928 80.3086C251.342 77.1094 249.549 73.0664 249.549 68.1797C249.549 62.2383 251.799 57.6328 256.299 54.3633C260.834 51.0586 267.197 49.4062 275.389 49.4062H284.881V44.9238C284.881 41.5137 283.861 38.8066 281.822 36.8027C279.783 34.7637 276.777 33.7441 272.805 33.7441C269.324 33.7441 266.406 34.623 264.051 36.3809C261.695 38.1387 260.518 40.2656 260.518 42.7617H250.709C250.709 39.9141 251.711 37.1719 253.715 34.5352C255.754 31.8633 258.496 29.7539 261.941 28.207C265.422 26.6602 269.236 25.8867 273.385 25.8867C279.959 25.8867 285.109 27.5391 288.836 30.8438C292.562 34.1133 294.496 38.6309 294.637 44.3965V70.6582C294.637 75.8965 295.305 80.0625 296.641 83.1562V84H286.41ZM270.221 76.5645C273.279 76.5645 276.18 75.7734 278.922 74.1914C281.664 72.6094 283.65 70.5527 284.881 68.0215V56.3145H277.234C265.281 56.3145 259.305 59.8125 259.305 66.8086C259.305 69.8672 260.324 72.2578 262.363 73.9805C264.402 75.7031 267.021 76.5645 270.221 76.5645ZM320.529 84H310.773V3H320.529V84ZM46.2578 177.092H14.0371V211H3.91211V134.219H51.4785V142.551H14.0371V168.812H46.2578V177.092ZM96.1445 205.357C92.3477 209.822 86.7754 212.055 79.4277 212.055C73.3457 212.055 68.7051 210.297 65.5059 206.781C62.3418 203.23 60.7422 197.992 60.707 191.066V153.941H70.4629V190.803C70.4629 199.451 73.9785 203.775 81.0098 203.775C88.4629 203.775 93.4199 200.998 95.8809 195.443V153.941H105.637V211H96.3555L96.1445 205.357ZM129.736 153.941L130.053 161.113C134.412 155.629 140.107 152.887 147.139 152.887C159.197 152.887 165.279 159.689 165.385 173.295V211H155.629V173.242C155.594 169.129 154.645 166.088 152.781 164.119C150.953 162.15 148.088 161.166 144.186 161.166C141.021 161.166 138.244 162.01 135.854 163.697C133.463 165.385 131.6 167.6 130.264 170.342V211H120.508V153.941H129.736ZM177.725 181.996C177.725 173.242 179.799 166.211 183.947 160.902C188.096 155.559 193.527 152.887 200.242 152.887C206.922 152.887 212.213 155.172 216.115 159.742V130H225.871V211H216.906L216.432 204.883C212.529 209.664 207.098 212.055 200.137 212.055C193.527 212.055 188.131 209.348 183.947 203.934C179.799 198.52 177.725 191.453 177.725 182.734V181.996ZM187.48 183.104C187.48 189.572 188.816 194.635 191.488 198.291C194.16 201.947 197.852 203.775 202.562 203.775C208.75 203.775 213.268 200.998 216.115 195.443V169.234C213.197 163.855 208.715 161.166 202.668 161.166C197.887 161.166 194.16 163.012 191.488 166.703C188.816 170.395 187.48 175.861 187.48 183.104ZM274.281 195.865C274.281 193.229 273.279 191.189 271.275 189.748C269.307 188.271 265.844 187.006 260.887 185.951C255.965 184.896 252.045 183.631 249.127 182.154C246.244 180.678 244.1 178.92 242.693 176.881C241.322 174.842 240.637 172.416 240.637 169.604C240.637 164.928 242.605 160.973 246.543 157.738C250.516 154.504 255.578 152.887 261.73 152.887C268.199 152.887 273.438 154.557 277.445 157.896C281.488 161.236 283.51 165.508 283.51 170.711H273.701C273.701 168.039 272.559 165.736 270.273 163.803C268.023 161.869 265.176 160.902 261.73 160.902C258.18 160.902 255.402 161.676 253.398 163.223C251.395 164.77 250.393 166.791 250.393 169.287C250.393 171.643 251.324 173.418 253.188 174.613C255.051 175.809 258.408 176.951 263.26 178.041C268.146 179.131 272.102 180.432 275.125 181.943C278.148 183.455 280.381 185.283 281.822 187.428C283.299 189.537 284.037 192.121 284.037 195.18C284.037 200.277 281.998 204.373 277.92 207.467C273.842 210.525 268.551 212.055 262.047 212.055C257.477 212.055 253.434 211.246 249.918 209.629C246.402 208.012 243.643 205.762 241.639 202.879C239.67 199.961 238.686 196.814 238.686 193.439H248.441C248.617 196.709 249.918 199.311 252.344 201.244C254.805 203.143 258.039 204.092 262.047 204.092C265.738 204.092 268.691 203.354 270.906 201.877C273.156 200.365 274.281 198.361 274.281 195.865Z" fill="white"/>
<path d="M16.9902 7.21875L19.775 6.10296L19.0201 4.21875H16.9902V7.21875ZM42.0918 69.8672L39.307 70.983L42.0918 77.9332L44.8766 70.983L42.0918 69.8672ZM67.1934 7.21875V4.21875H65.1635L64.4086 6.10296L67.1934 7.21875ZM80.3242 7.21875H83.3242V4.21875H80.3242V7.21875ZM80.3242 84V87H83.3242V84H80.3242ZM70.1992 84H67.1992V87H70.1992V84ZM70.1992 54.0996L67.2005 54.0114L67.1992 54.0555V54.0996H70.1992ZM71.1484 21.8262L74.1471 21.9144L68.3682 20.699L71.1484 21.8262ZM45.9414 84V87H47.9623L48.7216 85.1272L45.9414 84ZM38.1895 84L35.4094 85.1276L36.1689 87H38.1895V84ZM13.0352 21.9844L15.8152 20.8568L10.0366 22.0779L13.0352 21.9844ZM14.0371 54.0996H17.0371V54.0528L17.0357 54.0061L14.0371 54.0996ZM14.0371 84V87H17.0371V84H14.0371ZM3.91211 84H0.912109V87H3.91211V84ZM3.91211 7.21875V4.21875H0.912109V7.21875H3.91211ZM14.2055 8.33454L39.307 70.983L44.8766 68.7514L19.775 6.10296L14.2055 8.33454ZM44.8766 70.983L69.9781 8.33454L64.4086 6.10296L39.307 68.7514L44.8766 70.983ZM67.1934 10.2188H80.3242V4.21875H67.1934V10.2188ZM77.3242 7.21875V84H83.3242V7.21875H77.3242ZM80.3242 81H70.1992V87H80.3242V81ZM73.1992 84V54.0996H67.1992V84H73.1992ZM73.1979 54.1878L74.1471 21.9144L68.1497 21.738L67.2005 54.0114L73.1979 54.1878ZM68.3682 20.699L43.1612 82.8728L48.7216 85.1272L73.9286 22.9533L68.3682 20.699ZM45.9414 81H38.1895V87H45.9414V81ZM40.9695 82.8724L15.8152 20.8568L10.2551 23.112L35.4094 85.1276L40.9695 82.8724ZM10.0366 22.0779L11.0386 54.1932L17.0357 54.0061L16.0337 21.8908L10.0366 22.0779ZM11.0371 54.0996V84H17.0371V54.0996H11.0371ZM14.0371 81H3.91211V87H14.0371V81ZM6.91211 84V7.21875H0.912109V84H6.91211ZM3.91211 10.2188H16.9902V4.21875H3.91211V10.2188ZM131.898 78.3574L134.896 78.2454L134.608 70.5399L129.613 76.414L131.898 78.3574ZM101.26 79.7812L99.02 81.7771L99.0304 81.7888L99.0409 81.8004L101.26 79.7812ZM96.4609 64.0664H93.4609V64.074L93.461 64.0816L96.4609 64.0664ZM96.4609 26.9414V23.9414H93.4609V26.9414H96.4609ZM106.217 26.9414H109.217V23.9414H106.217V26.9414ZM131.635 68.4434L134.378 69.6586L134.635 69.0782V68.4434H131.635ZM131.635 26.9414V23.9414H128.635V26.9414H131.635ZM141.391 26.9414H144.391V23.9414H141.391V26.9414ZM141.391 84V87H144.391V84H141.391ZM132.109 84L129.111 84.1121L129.219 87H132.109V84ZM129.613 76.414C126.526 80.0439 121.891 82.0547 115.182 82.0547V88.0547C123.167 88.0547 129.677 85.6006 134.184 80.3009L129.613 76.414ZM115.182 82.0547C109.693 82.0547 105.96 80.4886 103.479 77.7621L99.0409 81.8004C102.958 86.1051 108.506 88.0547 115.182 88.0547V82.0547ZM103.5 77.7854C101.002 74.9831 99.494 70.5735 99.4609 64.0512L93.461 64.0816C93.4982 71.4109 95.189 77.4779 99.02 81.7771L103.5 77.7854ZM99.4609 64.0664V26.9414H93.4609V64.0664H99.4609ZM96.4609 29.9414H106.217V23.9414H96.4609V29.9414ZM103.217 26.9414V63.8027H109.217V26.9414H103.217ZM103.217 63.8027C103.217 68.4561 104.15 72.5027 106.526 75.4247C108.998 78.4655 112.603 79.7754 116.764 79.7754V73.7754C113.894 73.7754 112.225 72.9231 111.181 71.6397C110.041 70.2375 109.217 67.7978 109.217 63.8027H103.217ZM116.764 79.7754C120.849 79.7754 124.493 79.0155 127.538 77.3096C130.622 75.5813 132.904 72.9853 134.378 69.6586L128.892 67.2282C127.905 69.4561 126.477 71.0261 124.605 72.0752C122.693 73.1466 120.132 73.7754 116.764 73.7754V79.7754ZM134.635 68.4434V26.9414H128.635V68.4434H134.635ZM131.635 29.9414H141.391V23.9414H131.635V29.9414ZM138.391 26.9414V84H144.391V26.9414H138.391ZM141.391 81H132.109V87H141.391V81ZM135.107 83.8879L134.896 78.2454L128.901 78.4695L129.111 84.1121L135.107 83.8879ZM169.498 13.125H172.498V10.125H169.498V13.125ZM169.498 26.9414H166.498V29.9414H169.498V26.9414ZM180.15 26.9414H183.15V23.9414H180.15V26.9414ZM180.15 34.4824V37.4824H183.15V34.4824H180.15ZM169.498 34.4824V31.4824H166.498V34.4824H169.498ZM170.922 75.0352L168.6 76.9349L168.614 76.9524L168.629 76.9698L170.922 75.0352ZM180.414 76.0898H183.414V72.3789L179.785 73.1564L180.414 76.0898ZM180.414 84L181.207 86.8934L183.414 86.2886V84H180.414ZM159.742 34.4824H162.742V31.4824H159.742V34.4824ZM149.354 34.4824H146.354V37.4824H149.354V34.4824ZM149.354 26.9414V23.9414H146.354V26.9414H149.354ZM159.742 26.9414V29.9414H162.742V26.9414H159.742ZM159.742 13.125V10.125H156.742V13.125H159.742ZM166.498 13.125V26.9414H172.498V13.125H166.498ZM169.498 29.9414H180.15V23.9414H169.498V29.9414ZM177.15 26.9414V34.4824H183.15V26.9414H177.15ZM180.15 31.4824H169.498V37.4824H180.15V31.4824ZM166.498 34.4824V69.8672H172.498V34.4824H166.498ZM166.498 69.8672C166.498 72.4982 167.034 75.0208 168.6 76.9349L173.244 73.1354C172.911 72.7292 172.498 71.8065 172.498 69.8672H166.498ZM168.629 76.9698C170.402 79.0713 173.093 79.7227 175.773 79.7227V73.7227C173.883 73.7227 173.34 73.2491 173.215 73.1005L168.629 76.9698ZM175.773 79.7227C177.213 79.7227 179.002 79.4606 181.043 79.0233L179.785 73.1564C177.889 73.5629 176.584 73.7227 175.773 73.7227V79.7227ZM177.414 76.0898V84H183.414V76.0898H177.414ZM179.621 81.1066C177.288 81.7458 175.059 82.0547 172.926 82.0547V88.0547C175.644 88.0547 178.407 87.6605 181.207 86.8934L179.621 81.1066ZM172.926 82.0547C169.197 82.0547 166.86 80.9544 165.362 79.17L160.767 83.0292C163.698 86.5182 167.935 88.0547 172.926 88.0547V82.0547ZM165.362 79.17C163.755 77.2579 162.742 74.2979 162.742 69.8672H156.742C156.742 75.1396 157.944 79.6679 160.767 83.0292L165.362 79.17ZM162.742 69.8672V34.4824H156.742V69.8672H162.742ZM159.742 31.4824H149.354V37.4824H159.742V31.4824ZM152.354 34.4824V26.9414H146.354V34.4824H152.354ZM149.354 29.9414H159.742V23.9414H149.354V29.9414ZM162.742 26.9414V13.125H156.742V26.9414H162.742ZM159.742 16.125H169.498V10.125H159.742V16.125ZM226.82 78.3574L229.818 78.2454L229.53 70.5399L224.535 76.414L226.82 78.3574ZM196.182 79.7812L193.942 81.7771L193.952 81.7888L193.963 81.8004L196.182 79.7812ZM191.383 64.0664H188.383V64.074L188.383 64.0816L191.383 64.0664ZM191.383 26.9414V23.9414H188.383V26.9414H191.383ZM201.139 26.9414H204.139V23.9414H201.139V26.9414ZM226.557 68.4434L229.299 69.6586L229.557 69.0782V68.4434H226.557ZM226.557 26.9414V23.9414H223.557V26.9414H226.557ZM236.312 26.9414H239.312V23.9414H236.312V26.9414ZM236.312 84V87H239.312V84H236.312ZM227.031 84L224.033 84.1121L224.141 87H227.031V84ZM224.535 76.414C221.448 80.0439 216.813 82.0547 210.104 82.0547V88.0547C218.089 88.0547 224.599 85.6006 229.106 80.3009L224.535 76.414ZM210.104 82.0547C204.615 82.0547 200.882 80.4886 198.4 77.7621L193.963 81.8004C197.88 86.1051 203.428 88.0547 210.104 88.0547V82.0547ZM198.421 77.7854C195.924 74.9831 194.416 70.5735 194.383 64.0512L188.383 64.0816C188.42 71.4109 190.111 77.4779 193.942 81.7771L198.421 77.7854ZM194.383 64.0664V26.9414H188.383V64.0664H194.383ZM191.383 29.9414H201.139V23.9414H191.383V29.9414ZM198.139 26.9414V63.8027H204.139V26.9414H198.139ZM198.139 63.8027C198.139 68.4561 199.072 72.5027 201.448 75.4247C203.92 78.4655 207.524 79.7754 211.686 79.7754V73.7754C208.815 73.7754 207.147 72.9231 206.103 71.6397C204.963 70.2375 204.139 67.7978 204.139 63.8027H198.139ZM211.686 79.7754C215.77 79.7754 219.415 79.0155 222.46 77.3096C225.544 75.5813 227.826 72.9853 229.299 69.6586L223.814 67.2282C222.827 69.4561 221.399 71.0261 219.527 72.0752C217.615 73.1466 215.054 73.7754 211.686 73.7754V79.7754ZM229.557 68.4434V26.9414H223.557V68.4434H229.557ZM226.557 29.9414H236.312V23.9414H226.557V29.9414ZM233.312 26.9414V84H239.312V26.9414H233.312ZM236.312 81H227.031V87H236.312V81ZM230.029 83.8879L229.818 78.2454L223.822 78.4695L224.033 84.1121L230.029 83.8879ZM286.41 84L283.727 85.3416L284.556 87H286.41V84ZM285.039 77.9883L288.017 77.6251L287.253 71.3626L282.878 75.9077L285.039 77.9883ZM254.928 80.3086L252.931 82.5472L252.942 82.5575L252.954 82.5677L254.928 80.3086ZM256.299 54.3633L258.062 56.7903L258.066 56.7879L256.299 54.3633ZM284.881 49.4062V52.4062H287.881V49.4062H284.881ZM281.822 36.8027L279.701 38.9241L279.71 38.9333L279.719 38.9424L281.822 36.8027ZM260.518 42.7617V45.7617H263.518V42.7617H260.518ZM250.709 42.7617H247.709V45.7617H250.709V42.7617ZM253.715 34.5352L251.33 32.7151L251.326 32.7199L253.715 34.5352ZM261.941 28.207L260.723 25.4656L260.713 25.4702L261.941 28.207ZM288.836 30.8438L286.845 33.0883L286.851 33.0936L286.857 33.0988L288.836 30.8438ZM294.637 44.3965H297.637V44.3599L297.636 44.3233L294.637 44.3965ZM296.641 83.1562H299.641V82.5362L299.395 81.9669L296.641 83.1562ZM296.641 84V87H299.641V84H296.641ZM284.881 68.0215L287.579 69.3331L287.881 68.712V68.0215H284.881ZM284.881 56.3145H287.881V53.3145H284.881V56.3145ZM289.093 82.6584C288.784 82.039 288.367 80.4965 288.017 77.6251L282.061 78.3514C282.414 81.2457 282.912 83.711 283.727 85.3416L289.093 82.6584ZM282.878 75.9077C278.883 80.057 274.239 82.0547 268.797 82.0547V88.0547C275.94 88.0547 282.124 85.3415 287.2 80.0689L282.878 75.9077ZM268.797 82.0547C263.768 82.0547 259.885 80.6566 256.902 78.0495L252.954 82.5677C257.212 86.2887 262.576 88.0547 268.797 88.0547V82.0547ZM256.925 78.07C253.989 75.4509 252.549 72.2279 252.549 68.1797H246.549C246.549 73.9049 248.694 78.7679 252.931 82.5472L256.925 78.07ZM252.549 68.1797C252.549 63.122 254.399 59.4518 258.062 56.7903L254.535 51.9363C249.199 55.8138 246.549 61.3546 246.549 68.1797H252.549ZM258.066 56.7879C261.9 53.9936 267.553 52.4062 275.389 52.4062V46.4062C266.842 46.4062 259.768 48.1236 254.532 51.9387L258.066 56.7879ZM275.389 52.4062H284.881V46.4062H275.389V52.4062ZM287.881 49.4062V44.9238H281.881V49.4062H287.881ZM287.881 44.9238C287.881 40.8758 286.647 37.3381 283.925 34.663L279.719 38.9424C281.076 40.2752 281.881 42.1515 281.881 44.9238H287.881ZM283.944 34.6814C281.157 31.8947 277.266 30.7441 272.805 30.7441V36.7441C276.288 36.7441 278.41 37.6326 279.701 38.9241L283.944 34.6814ZM272.805 30.7441C268.801 30.7441 265.221 31.7644 262.257 33.9766L265.845 38.7852C267.592 37.4817 269.848 36.7441 272.805 36.7441V30.7441ZM262.257 33.9766C259.295 36.1869 257.518 39.1435 257.518 42.7617H263.518C263.518 41.3877 264.096 40.0905 265.845 38.7852L262.257 33.9766ZM260.518 39.7617H250.709V45.7617H260.518V39.7617ZM253.709 42.7617C253.709 40.6728 254.429 38.5536 256.103 36.3504L251.326 32.7199C248.993 35.7901 247.709 39.1553 247.709 42.7617H253.709ZM256.1 36.3552C257.8 34.1274 260.123 32.3118 263.17 30.9438L260.713 25.4702C256.869 27.196 253.708 29.5991 251.33 32.7151L256.1 36.3552ZM263.16 30.9485C266.224 29.5868 269.618 28.8867 273.385 28.8867V22.8867C268.854 22.8867 264.62 23.7335 260.723 25.4656L263.16 30.9485ZM273.385 28.8867C279.464 28.8867 283.824 30.4085 286.845 33.0883L290.826 28.5992C286.395 24.6697 280.453 22.8867 273.385 22.8867V28.8867ZM286.857 33.0988C289.849 35.7239 291.514 39.3921 291.638 44.4696L297.636 44.3233C297.478 37.8696 295.276 32.5027 290.814 28.5887L286.857 33.0988ZM291.637 44.3965V70.6582H297.637V44.3965H291.637ZM291.637 70.6582C291.637 76.1026 292.324 80.7264 293.886 84.3456L299.395 81.9669C298.286 79.3986 297.637 75.6903 297.637 70.6582H291.637ZM293.641 83.1562V84H299.641V83.1562H293.641ZM296.641 81H286.41V87H296.641V81ZM270.221 79.5645C273.825 79.5645 277.24 78.6254 280.421 76.79L277.423 71.5928C275.12 72.9215 272.734 73.5645 270.221 73.5645V79.5645ZM280.421 76.79C283.615 74.9471 286.054 72.4692 287.579 69.3331L282.183 66.7099C281.246 68.6362 279.713 70.2716 277.423 71.5928L280.421 76.79ZM287.881 68.0215V56.3145H281.881V68.0215H287.881ZM284.881 53.3145H277.234V59.3145H284.881V53.3145ZM277.234 53.3145C271.063 53.3145 265.943 54.2 262.272 56.3489C258.352 58.6429 256.305 62.2586 256.305 66.8086H262.305C262.305 64.3624 263.245 62.7311 265.303 61.5271C267.608 60.1779 271.452 59.3145 277.234 59.3145V53.3145ZM256.305 66.8086C256.305 70.6067 257.611 73.8928 260.427 76.2721L264.299 71.6888C263.038 70.6229 262.305 69.1277 262.305 66.8086H256.305ZM260.427 76.2721C263.11 78.5388 266.46 79.5645 270.221 79.5645V73.5645C267.583 73.5645 265.694 72.8674 264.299 71.6888L260.427 76.2721ZM320.529 84V87H323.529V84H320.529ZM310.773 84H307.773V87H310.773V84ZM310.773 3V0H307.773V3H310.773ZM320.529 3H323.529V0H320.529V3ZM320.529 81H310.773V87H320.529V81ZM313.773 84V3H307.773V84H313.773ZM310.773 6H320.529V0H310.773V6ZM317.529 3V84H323.529V3H317.529ZM46.2578 177.092V180.092H49.2578V177.092H46.2578ZM14.0371 177.092V174.092H11.0371V177.092H14.0371ZM14.0371 211V214H17.0371V211H14.0371ZM3.91211 211H0.912109V214H3.91211V211ZM3.91211 134.219V131.219H0.912109V134.219H3.91211ZM51.4785 134.219H54.4785V131.219H51.4785V134.219ZM51.4785 142.551V145.551H54.4785V142.551H51.4785ZM14.0371 142.551V139.551H11.0371V142.551H14.0371ZM14.0371 168.812H11.0371V171.812H14.0371V168.812ZM46.2578 168.812H49.2578V165.812H46.2578V168.812ZM46.2578 174.092H14.0371V180.092H46.2578V174.092ZM11.0371 177.092V211H17.0371V177.092H11.0371ZM14.0371 208H3.91211V214H14.0371V208ZM6.91211 211V134.219H0.912109V211H6.91211ZM3.91211 137.219H51.4785V131.219H3.91211V137.219ZM48.4785 134.219V142.551H54.4785V134.219H48.4785ZM51.4785 139.551H14.0371V145.551H51.4785V139.551ZM11.0371 142.551V168.812H17.0371V142.551H11.0371ZM14.0371 171.812H46.2578V165.812H14.0371V171.812ZM43.2578 168.812V177.092H49.2578V168.812H43.2578ZM96.1445 205.357L99.1424 205.245L98.8544 197.54L93.8592 203.414L96.1445 205.357ZM65.5059 206.781L63.2661 208.777L63.2765 208.789L63.287 208.8L65.5059 206.781ZM60.707 191.066H57.707V191.074L57.7071 191.082L60.707 191.066ZM60.707 153.941V150.941H57.707V153.941H60.707ZM70.4629 153.941H73.4629V150.941H70.4629V153.941ZM95.8809 195.443L98.6237 196.659L98.8809 196.078V195.443H95.8809ZM95.8809 153.941V150.941H92.8809V153.941H95.8809ZM105.637 153.941H108.637V150.941H105.637V153.941ZM105.637 211V214H108.637V211H105.637ZM96.3555 211L93.3576 211.112L93.4655 214H96.3555V211ZM93.8592 203.414C90.7723 207.044 86.1374 209.055 79.4277 209.055V215.055C87.4134 215.055 93.923 212.601 98.4299 207.301L93.8592 203.414ZM79.4277 209.055C73.9392 209.055 70.2058 207.489 67.7247 204.762L63.287 208.8C67.2044 213.105 72.7522 215.055 79.4277 215.055V209.055ZM67.7456 204.785C65.2485 201.983 63.7401 197.573 63.707 191.051L57.7071 191.082C57.7443 198.411 59.4351 204.478 63.2661 208.777L67.7456 204.785ZM63.707 191.066V153.941H57.707V191.066H63.707ZM60.707 156.941H70.4629V150.941H60.707V156.941ZM67.4629 153.941V190.803H73.4629V153.941H67.4629ZM67.4629 190.803C67.4629 195.456 68.3962 199.503 70.7718 202.425C73.244 205.466 76.8486 206.775 81.0098 206.775V200.775C78.1397 200.775 76.4708 199.923 75.4274 198.64C74.2874 197.238 73.4629 194.798 73.4629 190.803H67.4629ZM81.0098 206.775C85.0946 206.775 88.739 206.016 91.7838 204.31C94.8684 202.581 97.1499 199.985 98.6237 196.659L93.138 194.228C92.1509 196.456 90.7234 198.026 88.851 199.075C86.9388 200.147 84.3781 200.775 81.0098 200.775V206.775ZM98.8809 195.443V153.941H92.8809V195.443H98.8809ZM95.8809 156.941H105.637V150.941H95.8809V156.941ZM102.637 153.941V211H108.637V153.941H102.637ZM105.637 208H96.3555V214H105.637V208ZM99.3534 210.888L99.1424 205.245L93.1466 205.469L93.3576 211.112L99.3534 210.888ZM129.736 153.941L132.733 153.809L132.607 150.941H129.736V153.941ZM130.053 161.113L127.056 161.245L127.409 169.26L132.401 162.98L130.053 161.113ZM165.385 173.295H168.385V173.283L168.385 173.272L165.385 173.295ZM165.385 211V214H168.385V211H165.385ZM155.629 211H152.629V214H155.629V211ZM155.629 173.242H158.629V173.229L158.629 173.217L155.629 173.242ZM152.781 164.119L150.583 166.16L150.593 166.171L150.602 166.181L152.781 164.119ZM130.264 170.342L127.567 169.028L127.264 169.65V170.342H130.264ZM130.264 211V214H133.264V211H130.264ZM120.508 211H117.508V214H120.508V211ZM120.508 153.941V150.941H117.508V153.941H120.508ZM126.739 154.074L127.056 161.245L133.05 160.981L132.733 153.809L126.739 154.074ZM132.401 162.98C136.189 158.215 141.018 155.887 147.139 155.887V149.887C139.197 149.887 132.635 153.043 127.704 159.247L132.401 162.98ZM147.139 155.887C152.604 155.887 156.204 157.412 158.508 159.988C160.872 162.632 162.335 166.897 162.385 173.318L168.385 173.272C168.329 166.088 166.699 160.148 162.981 155.989C159.202 151.763 153.732 149.887 147.139 149.887V155.887ZM162.385 173.295V211H168.385V173.295H162.385ZM165.385 208H155.629V214H165.385V208ZM158.629 211V173.242H152.629V211H158.629ZM158.629 173.217C158.59 168.727 157.558 164.802 154.96 162.057L150.602 166.181C151.731 167.374 152.597 169.531 152.629 173.268L158.629 173.217ZM154.98 162.078C152.368 159.265 148.54 158.166 144.186 158.166V164.166C147.636 164.166 149.539 165.036 150.583 166.16L154.98 162.078ZM144.186 158.166C140.455 158.166 137.062 159.172 134.123 161.246L137.584 166.148C139.426 164.847 141.588 164.166 144.186 164.166V158.166ZM134.123 161.246C131.302 163.238 129.114 165.851 127.567 169.028L132.961 171.656C134.085 169.348 135.624 167.532 137.584 166.148L134.123 161.246ZM127.264 170.342V211H133.264V170.342H127.264ZM130.264 208H120.508V214H130.264V208ZM123.508 211V153.941H117.508V211H123.508ZM120.508 156.941H129.736V150.941H120.508V156.941ZM183.947 160.902L186.311 162.75L186.317 162.742L183.947 160.902ZM216.115 159.742L213.834 161.69L219.115 167.876V159.742H216.115ZM216.115 130V127H213.115V130H216.115ZM225.871 130H228.871V127H225.871V130ZM225.871 211V214H228.871V211H225.871ZM216.906 211L213.915 211.232L214.13 214H216.906V211ZM216.432 204.883L219.423 204.651L218.843 197.183L214.107 202.986L216.432 204.883ZM183.947 203.934L181.566 205.758L181.573 205.768L183.947 203.934ZM216.115 195.443L218.785 196.812L219.115 196.168V195.443H216.115ZM216.115 169.234H219.115V168.473L218.752 167.804L216.115 169.234ZM180.725 181.996C180.725 173.71 182.684 167.391 186.311 162.75L181.583 159.055C176.914 165.031 174.725 172.775 174.725 181.996H180.725ZM186.317 162.742C189.902 158.124 194.462 155.887 200.242 155.887V149.887C192.593 149.887 186.289 152.993 181.578 159.063L186.317 162.742ZM200.242 155.887C206.154 155.887 210.569 157.867 213.834 161.69L218.397 157.794C213.857 152.477 207.69 149.887 200.242 149.887V155.887ZM219.115 159.742V130H213.115V159.742H219.115ZM216.115 133H225.871V127H216.115V133ZM222.871 130V211H228.871V130H222.871ZM225.871 208H216.906V214H225.871V208ZM219.897 210.768L219.423 204.651L213.441 205.115L213.915 211.232L219.897 210.768ZM214.107 202.986C210.852 206.974 206.327 209.055 200.137 209.055V215.055C207.869 215.055 214.206 212.354 218.756 206.78L214.107 202.986ZM200.137 209.055C194.494 209.055 189.96 206.808 186.321 202.099L181.573 205.768C186.302 211.887 192.561 215.055 200.137 215.055V209.055ZM186.329 202.109C182.681 197.349 180.725 190.979 180.725 182.734H174.725C174.725 191.927 176.916 199.69 181.566 205.758L186.329 202.109ZM180.725 182.734V181.996H174.725V182.734H180.725ZM184.48 183.104C184.48 189.945 185.889 195.713 189.066 200.061L193.91 196.521C191.744 193.557 190.48 189.199 190.48 183.104H184.48ZM189.066 200.061C192.329 204.526 196.94 206.775 202.562 206.775V200.775C198.764 200.775 195.991 199.368 193.91 196.521L189.066 200.061ZM202.562 206.775C206.117 206.775 209.357 205.973 212.162 204.248C214.966 202.524 217.155 199.991 218.785 196.812L213.446 194.075C212.227 196.451 210.734 198.083 209.02 199.137C207.308 200.189 205.195 200.775 202.562 200.775V206.775ZM219.115 195.443V169.234H213.115V195.443H219.115ZM218.752 167.804C217.082 164.724 214.883 162.275 212.108 160.611C209.332 158.945 206.149 158.166 202.668 158.166V164.166C205.234 164.166 207.316 164.732 209.021 165.756C210.729 166.78 212.231 168.366 213.478 170.665L218.752 167.804ZM202.668 158.166C196.98 158.166 192.326 160.429 189.058 164.944L193.918 168.462C195.994 165.594 198.793 164.166 202.668 164.166V158.166ZM189.058 164.944C185.855 169.369 184.48 175.574 184.48 183.104H190.48C190.48 176.149 191.778 171.42 193.918 168.462L189.058 164.944ZM271.275 189.748L269.475 192.148L269.499 192.166L269.524 192.183L271.275 189.748ZM260.887 185.951L260.258 188.885L260.262 188.885L260.887 185.951ZM249.127 182.154L247.759 184.824L247.766 184.828L247.772 184.831L249.127 182.154ZM242.693 176.881L240.204 178.555L240.214 178.57L240.224 178.584L242.693 176.881ZM246.543 157.738L244.649 155.412L244.639 155.42L246.543 157.738ZM277.445 157.896L275.525 160.201L275.535 160.209L277.445 157.896ZM283.51 170.711V173.711H286.51V170.711H283.51ZM273.701 170.711H270.701V173.711H273.701V170.711ZM270.273 163.803L268.318 166.078L268.327 166.085L268.336 166.093L270.273 163.803ZM263.26 178.041L262.602 180.968L262.607 180.969L263.26 178.041ZM281.822 187.428L279.332 189.101L279.348 189.125L279.365 189.148L281.822 187.428ZM277.92 207.467L279.72 209.867L279.727 209.862L279.733 209.857L277.92 207.467ZM241.639 202.879L239.152 204.557L239.163 204.574L239.175 204.591L241.639 202.879ZM238.686 193.439V190.439H235.686V193.439H238.686ZM248.441 193.439L251.437 193.278L251.284 190.439H248.441V193.439ZM252.344 201.244L250.474 203.59L250.492 203.605L250.511 203.619L252.344 201.244ZM270.906 201.877L272.57 204.373L272.579 204.367L270.906 201.877ZM277.281 195.865C277.281 192.34 275.875 189.361 273.027 187.313L269.524 192.183C270.683 193.018 271.281 194.117 271.281 195.865H277.281ZM273.075 187.348C270.552 185.455 266.537 184.086 261.511 183.017L260.262 188.885C265.151 189.926 268.061 191.088 269.475 192.148L273.075 187.348ZM261.515 183.018C256.726 181.991 253.081 180.793 250.481 179.477L247.772 184.831C251.009 186.469 255.204 187.802 260.258 188.885L261.515 183.018ZM250.495 179.484C247.922 178.166 246.214 176.702 245.163 175.178L240.224 178.584C241.985 181.138 244.566 183.189 247.759 184.824L250.495 179.484ZM245.183 175.207C244.191 173.732 243.637 171.909 243.637 169.604H237.637C237.637 172.923 238.454 175.952 240.204 178.555L245.183 175.207ZM243.637 169.604C243.637 165.913 245.133 162.779 248.447 160.056L244.639 155.42C240.078 159.166 237.637 163.942 237.637 169.604H243.637ZM248.437 160.065C251.773 157.349 256.124 155.887 261.73 155.887V149.887C255.032 149.887 249.259 151.659 244.649 155.412L248.437 160.065ZM261.73 155.887C267.671 155.887 272.176 157.41 275.525 160.201L279.366 155.592C274.699 151.703 268.727 149.887 261.73 149.887V155.887ZM275.535 160.209C278.894 162.985 280.51 166.411 280.51 170.711H286.51C286.51 164.605 284.083 159.488 279.356 155.584L275.535 160.209ZM283.51 167.711H273.701V173.711H283.51V167.711ZM276.701 170.711C276.701 167.044 275.079 163.939 272.211 161.513L268.336 166.093C270.038 167.534 270.701 169.034 270.701 170.711H276.701ZM272.229 161.527C269.348 159.052 265.771 157.902 261.73 157.902V163.902C264.581 163.902 266.698 164.686 268.318 166.078L272.229 161.527ZM261.73 157.902C257.778 157.902 254.269 158.761 251.565 160.848L255.232 165.597C256.535 164.591 258.582 163.902 261.73 163.902V157.902ZM251.565 160.848C248.838 162.953 247.393 165.846 247.393 169.287H253.393C253.393 167.736 253.951 166.586 255.232 165.597L251.565 160.848ZM247.393 169.287C247.393 172.586 248.78 175.35 251.568 177.138L254.807 172.088C253.868 171.486 253.393 170.699 253.393 169.287H247.393ZM251.568 177.138C253.913 178.643 257.728 179.873 262.602 180.968L263.917 175.114C259.088 174.029 256.189 172.975 254.807 172.088L251.568 177.138ZM262.607 180.969C267.357 182.029 271.056 183.263 273.783 184.627L276.467 179.26C273.147 177.6 268.936 176.233 263.913 175.113L262.607 180.969ZM273.783 184.627C276.482 185.976 278.256 187.5 279.332 189.101L284.312 185.754C282.506 183.067 279.815 180.934 276.467 179.26L273.783 184.627ZM279.365 189.148C280.426 190.664 281.037 192.618 281.037 195.18H287.037C287.037 191.624 286.172 188.41 284.28 185.707L279.365 189.148ZM281.037 195.18C281.037 199.334 279.441 202.547 276.107 205.077L279.733 209.857C284.555 206.199 287.037 201.22 287.037 195.18H281.037ZM276.12 205.067C272.689 207.64 268.082 209.055 262.047 209.055V215.055C269.019 215.055 274.995 213.411 279.72 209.867L276.12 205.067ZM262.047 209.055C257.832 209.055 254.229 208.31 251.172 206.903L248.664 212.354C252.638 214.182 257.121 215.055 262.047 215.055V209.055ZM251.172 206.903C248.091 205.486 245.77 203.566 244.102 201.167L239.175 204.591C241.515 207.958 244.713 210.537 248.664 212.354L251.172 206.903ZM244.126 201.201C242.476 198.756 241.686 196.19 241.686 193.439H235.686C235.686 197.439 236.864 201.166 239.152 204.557L244.126 201.201ZM238.686 196.439H248.441V190.439H238.686V196.439ZM245.446 193.601C245.665 197.672 247.337 201.09 250.474 203.59L254.214 198.898C252.499 197.531 251.57 195.746 251.437 193.278L245.446 193.601ZM250.511 203.619C253.632 206.027 257.569 207.092 262.047 207.092V201.092C258.509 201.092 255.977 200.258 254.176 198.869L250.511 203.619ZM262.047 207.092C266.109 207.092 269.706 206.283 272.57 204.373L269.242 199.381C267.677 200.424 265.367 201.092 262.047 201.092V207.092ZM272.579 204.367C275.574 202.355 277.281 199.458 277.281 195.865H271.281C271.281 197.265 270.738 198.376 269.233 199.387L272.579 204.367Z" fill="#FA9B99"/>
</svg>
