<svg width="1918" height="1080" viewBox="0 0 1918 1080" fill="none" xmlns="http://www.w3.org/2000/svg">
<g clip-path="url(#clip0)">
<rect width="1920" height="1080" fill="white"/>
<rect x="-623.858" y="651.312" width="859.561" height="1445.94" transform="rotate(-43.4659 -623.858 651.312)" fill="#FA9B99"/>
<path d="M90.5352 932.775C81.8516 930.279 75.5234 927.221 71.5508 923.6C67.6133 919.943 65.6445 915.443 65.6445 910.1C65.6445 904.053 68.0527 899.061 72.8691 895.123C77.7207 891.15 84.0137 889.164 91.748 889.164C97.0215 889.164 101.715 890.184 105.828 892.223C109.977 894.262 113.176 897.074 115.426 900.66C117.711 904.246 118.854 908.166 118.854 912.42H108.676C108.676 907.779 107.199 904.141 104.246 901.504C101.293 898.832 97.127 897.496 91.748 897.496C86.7559 897.496 82.8535 898.604 80.041 900.818C77.2637 902.998 75.875 906.039 75.875 909.941C75.875 913.07 77.1934 915.725 79.8301 917.904C82.502 920.049 87.0195 922.018 93.3828 923.811C99.7812 925.604 104.773 927.59 108.359 929.77C111.98 931.914 114.652 934.428 116.375 937.311C118.133 940.193 119.012 943.586 119.012 947.488C119.012 953.711 116.586 958.703 111.734 962.465C106.883 966.191 100.396 968.055 92.2754 968.055C87.002 968.055 82.0801 967.053 77.5098 965.049C72.9395 963.01 69.4062 960.232 66.9102 956.717C64.4492 953.201 63.2188 949.211 63.2188 944.746H73.3965C73.3965 949.387 75.1016 953.061 78.5117 955.768C81.957 958.439 86.5449 959.775 92.2754 959.775C97.6191 959.775 101.715 958.686 104.562 956.506C107.41 954.326 108.834 951.355 108.834 947.594C108.834 943.832 107.516 940.932 104.879 938.893C102.242 936.818 97.4609 934.779 90.5352 932.775ZM142.9 967H132.775V890.219H142.9V967ZM171.588 936.941V967H161.463V890.219H189.781C198.184 890.219 204.758 892.363 209.504 896.652C214.285 900.941 216.676 906.619 216.676 913.686C216.676 921.139 214.338 926.887 209.662 930.93C205.021 934.938 198.359 936.941 189.676 936.941H171.588ZM171.588 928.662H189.781C195.195 928.662 199.344 927.396 202.227 924.865C205.109 922.299 206.551 918.607 206.551 913.791C206.551 909.221 205.109 905.564 202.227 902.822C199.344 900.08 195.389 898.656 190.361 898.551H171.588V928.662Z" fill="#FA9B99"/>
<path d="M90.5352 932.775L91.369 929.894L91.3639 929.892L90.5352 932.775ZM71.5508 923.6L69.5094 925.798L69.5196 925.807L69.5298 925.817L71.5508 923.6ZM72.8691 895.123L74.7679 897.446L74.7698 897.444L72.8691 895.123ZM105.828 892.223L104.496 894.911L104.505 894.915L105.828 892.223ZM115.426 900.66L112.885 902.255L112.89 902.264L112.896 902.272L115.426 900.66ZM118.854 912.42V915.42H121.854V912.42H118.854ZM108.676 912.42H105.676V915.42H108.676V912.42ZM104.246 901.504L102.233 903.729L102.241 903.735L102.248 903.742L104.246 901.504ZM80.041 900.818L81.8932 903.178L81.8971 903.175L80.041 900.818ZM79.8301 917.904L77.9186 920.217L77.9353 920.23L77.9522 920.244L79.8301 917.904ZM93.3828 923.811L92.5692 926.698L92.5733 926.699L93.3828 923.811ZM108.359 929.77L106.801 932.333L106.816 932.342L106.831 932.351L108.359 929.77ZM116.375 937.311L113.8 938.849L113.807 938.861L113.814 938.872L116.375 937.311ZM111.734 962.465L113.562 964.844L113.573 964.836L111.734 962.465ZM77.5098 965.049L76.2874 967.789L76.2963 967.792L76.3051 967.796L77.5098 965.049ZM66.9102 956.717L64.4525 958.437L64.4582 958.445L64.464 958.454L66.9102 956.717ZM63.2188 944.746V941.746H60.2188V944.746H63.2188ZM73.3965 944.746H76.3965V941.746H73.3965V944.746ZM78.5117 955.768L76.6465 958.117L76.6598 958.128L76.6732 958.138L78.5117 955.768ZM104.879 938.893L103.024 941.25L103.034 941.258L103.044 941.266L104.879 938.893ZM91.3639 929.892C82.86 927.448 77.0464 924.55 73.5717 921.382L69.5298 925.817C74.0005 929.892 80.8431 933.111 89.7064 935.659L91.3639 929.892ZM73.5921 921.401C70.2621 918.309 68.6445 914.604 68.6445 910.1H62.6445C62.6445 916.283 64.9645 921.578 69.5094 925.798L73.5921 921.401ZM68.6445 910.1C68.6445 904.983 70.6252 900.832 74.7679 897.446L70.9704 892.8C65.4802 897.289 62.6445 903.123 62.6445 910.1H68.6445ZM74.7698 897.444C78.969 894.006 84.5399 892.164 91.748 892.164V886.164C83.4875 886.164 76.4724 888.295 70.9685 892.802L74.7698 897.444ZM91.748 892.164C96.6281 892.164 100.854 893.105 104.496 894.911L107.161 889.535C102.576 887.262 97.4149 886.164 91.748 886.164V892.164ZM104.505 894.915C108.201 896.732 110.958 899.184 112.885 902.255L117.967 899.066C115.394 894.965 111.752 891.792 107.151 889.53L104.505 894.915ZM112.896 902.272C114.874 905.376 115.854 908.737 115.854 912.42H121.854C121.854 907.595 120.548 903.116 117.956 899.048L112.896 902.272ZM118.854 909.42H108.676V915.42H118.854V909.42ZM111.676 912.42C111.676 907.086 109.946 902.571 106.244 899.266L102.248 903.742C104.452 905.71 105.676 908.472 105.676 912.42H111.676ZM106.259 899.279C102.585 895.956 97.6065 894.496 91.748 894.496V900.496C96.6474 900.496 100.001 901.708 102.233 903.729L106.259 899.279ZM91.748 894.496C86.3437 894.496 81.7004 895.693 78.1849 898.461L81.8971 903.175C84.0066 901.514 87.1681 900.496 91.748 900.496V894.496ZM78.1889 898.458C74.6039 901.272 72.875 905.229 72.875 909.941H78.875C78.875 906.849 79.9234 904.724 81.8932 903.178L78.1889 898.458ZM72.875 909.941C72.875 914.056 74.6656 917.527 77.9186 920.217L81.7415 915.592C79.7211 913.922 78.875 912.085 78.875 909.941H72.875ZM77.9522 920.244C81.1112 922.779 86.1114 924.879 92.5692 926.698L94.1964 920.923C87.9276 919.157 83.8928 917.318 81.7079 915.565L77.9522 920.244ZM92.5733 926.699C98.8427 928.456 103.544 930.353 106.801 932.333L109.918 927.206C106.003 924.827 100.72 922.751 94.1923 920.922L92.5733 926.699ZM106.831 932.351C110.128 934.304 112.391 936.491 113.8 938.849L118.95 935.772C116.914 932.364 113.832 929.524 109.888 927.188L106.831 932.351ZM113.814 938.872C115.242 941.215 116.012 944.05 116.012 947.488H122.012C122.012 943.122 121.023 939.171 118.936 935.749L113.814 938.872ZM116.012 947.488C116.012 952.798 114.003 956.91 109.896 960.094L113.573 964.836C119.169 960.497 122.012 954.623 122.012 947.488H116.012ZM109.907 960.086C105.728 963.295 99.9515 965.055 92.2754 965.055V971.055C100.841 971.055 108.037 969.087 113.562 964.844L109.907 960.086ZM92.2754 965.055C87.3927 965.055 82.8836 964.129 78.7144 962.301L76.3051 967.796C81.2765 969.976 86.6112 971.055 92.2754 971.055V965.055ZM78.7321 962.309C74.5723 960.453 71.4946 957.992 69.3563 954.98L64.464 958.454C67.3179 962.473 71.3066 965.566 76.2874 967.789L78.7321 962.309ZM69.3679 954.996C67.2748 952.006 66.2188 948.622 66.2188 944.746H60.2188C60.2188 949.8 61.6237 954.396 64.4525 958.437L69.3679 954.996ZM63.2188 947.746H73.3965V941.746H63.2188V947.746ZM70.3965 944.746C70.3965 950.233 72.4668 954.799 76.6465 958.117L80.3769 953.418C77.7364 951.322 76.3965 948.541 76.3965 944.746H70.3965ZM76.6732 958.138C80.7892 961.33 86.0889 962.775 92.2754 962.775V956.775C87.0009 956.775 83.1248 955.549 80.3502 953.397L76.6732 958.138ZM92.2754 962.775C97.9697 962.775 102.814 961.622 106.386 958.888L102.739 954.124C100.616 955.749 97.2686 956.775 92.2754 956.775V962.775ZM106.386 958.888C110.017 956.109 111.834 952.236 111.834 947.594H105.834C105.834 950.475 104.804 952.543 102.739 954.124L106.386 958.888ZM111.834 947.594C111.834 943.039 110.187 939.205 106.714 936.519L103.044 941.266C104.844 942.658 105.834 944.625 105.834 947.594H111.834ZM106.734 936.535C103.608 934.076 98.3374 931.91 91.369 929.894L89.7013 935.657C96.5845 937.649 100.877 939.561 103.024 941.25L106.734 936.535ZM142.9 967V970H145.9V967H142.9ZM132.775 967H129.775V970H132.775V967ZM132.775 890.219V887.219H129.775V890.219H132.775ZM142.9 890.219H145.9V887.219H142.9V890.219ZM142.9 964H132.775V970H142.9V964ZM135.775 967V890.219H129.775V967H135.775ZM132.775 893.219H142.9V887.219H132.775V893.219ZM139.9 890.219V967H145.9V890.219H139.9ZM171.588 936.941V933.941H168.588V936.941H171.588ZM171.588 967V970H174.588V967H171.588ZM161.463 967H158.463V970H161.463V967ZM161.463 890.219V887.219H158.463V890.219H161.463ZM209.504 896.652L207.492 898.878L207.501 898.885L209.504 896.652ZM209.662 930.93L211.623 933.2L211.624 933.199L209.662 930.93ZM171.588 928.662H168.588V931.662H171.588V928.662ZM202.227 924.865L204.206 927.12L204.214 927.113L204.221 927.106L202.227 924.865ZM190.361 898.551L190.424 895.551L190.393 895.551H190.361V898.551ZM171.588 898.551V895.551H168.588V898.551H171.588ZM168.588 936.941V967H174.588V936.941H168.588ZM171.588 964H161.463V970H171.588V964ZM164.463 967V890.219H158.463V967H164.463ZM161.463 893.219H189.781V887.219H161.463V893.219ZM189.781 893.219C197.679 893.219 203.452 895.227 207.492 898.878L211.515 894.427C206.063 889.5 198.688 887.219 189.781 887.219V893.219ZM207.501 898.885C211.58 902.545 213.676 907.376 213.676 913.686H219.676C219.676 905.862 216.99 899.338 211.507 894.419L207.501 898.885ZM213.676 913.686C213.676 920.464 211.581 925.304 207.7 928.66L211.624 933.199C217.094 928.469 219.676 921.814 219.676 913.686H213.676ZM207.701 928.659C203.794 932.033 197.936 933.941 189.676 933.941V939.941C198.783 939.941 206.249 937.842 211.623 933.2L207.701 928.659ZM189.676 933.941H171.588V939.941H189.676V933.941ZM171.588 931.662H189.781V925.662H171.588V931.662ZM189.781 931.662C195.626 931.662 200.587 930.297 204.206 927.12L200.247 922.611C198.1 924.496 194.764 925.662 189.781 925.662V931.662ZM204.221 927.106C207.896 923.834 209.551 919.235 209.551 913.791H203.551C203.551 917.98 202.322 920.763 200.232 922.625L204.221 927.106ZM209.551 913.791C209.551 908.533 207.863 904.043 204.294 900.649L200.159 904.996C202.356 907.086 203.551 909.909 203.551 913.791H209.551ZM204.294 900.649C200.737 897.265 195.995 895.668 190.424 895.551L190.298 901.55C194.783 901.644 197.95 902.895 200.159 904.996L204.294 900.649ZM190.361 895.551H171.588V901.551H190.361V895.551ZM168.588 898.551V928.662H174.588V898.551H168.588Z" fill="white"/>
</g>
<defs>
<clipPath id="clip0">
<rect width="1920" height="1080" fill="white"/>
</clipPath>
</defs>
</svg>
