<svg width="1918" height="1080" viewBox="0 0 1918 1080" fill="none" xmlns="http://www.w3.org/2000/svg">
<g clip-path="url(#clip0)">
<rect width="1920" height="1080" fill="#90EE90"/>
<path d="M215.602 294.928C213 298.654 209.361 301.449 204.686 303.312C200.045 305.141 194.631 306.055 188.443 306.055C182.186 306.055 176.631 304.596 171.779 301.678C166.928 298.725 163.166 294.541 160.494 289.127C157.857 283.713 156.504 277.438 156.434 270.301V263.604C156.434 252.037 159.123 243.072 164.502 236.709C169.916 230.346 177.51 227.164 187.283 227.164C195.299 227.164 201.75 229.221 206.637 233.334C211.523 237.412 214.512 243.213 215.602 250.736H205.477C203.578 240.576 197.531 235.496 187.336 235.496C180.551 235.496 175.4 237.887 171.885 242.668C168.404 247.414 166.646 254.305 166.611 263.34V269.615C166.611 278.229 168.58 285.084 172.518 290.182C176.455 295.244 181.781 297.775 188.496 297.775C192.293 297.775 195.615 297.354 198.463 296.51C201.311 295.666 203.666 294.242 205.529 292.238V274.994H187.758V266.768H215.602V294.928ZM258.58 256.695C257.104 256.449 255.504 256.326 253.781 256.326C247.383 256.326 243.041 259.051 240.756 264.5V305H231V247.941H240.492L240.65 254.533C243.85 249.436 248.385 246.887 254.256 246.887C256.154 246.887 257.596 247.133 258.58 247.625V256.695ZM290.221 306.055C282.486 306.055 276.193 303.523 271.342 298.461C266.49 293.363 264.064 286.561 264.064 278.053V276.26C264.064 270.6 265.137 265.555 267.281 261.125C269.461 256.66 272.484 253.18 276.352 250.684C280.254 248.152 284.473 246.887 289.008 246.887C296.426 246.887 302.191 249.33 306.305 254.217C310.418 259.104 312.475 266.1 312.475 275.205V279.266H273.82C273.961 284.891 275.596 289.443 278.725 292.924C281.889 296.369 285.896 298.092 290.748 298.092C294.193 298.092 297.111 297.389 299.502 295.982C301.893 294.576 303.984 292.713 305.777 290.393L311.736 295.033C306.955 302.381 299.783 306.055 290.221 306.055ZM289.008 254.902C285.07 254.902 281.766 256.344 279.094 259.227C276.422 262.074 274.77 266.082 274.137 271.25H302.719V270.512C302.438 265.555 301.102 261.723 298.711 259.016C296.32 256.273 293.086 254.902 289.008 254.902ZM347.49 306.055C339.756 306.055 333.463 303.523 328.611 298.461C323.76 293.363 321.334 286.561 321.334 278.053V276.26C321.334 270.6 322.406 265.555 324.551 261.125C326.73 256.66 329.754 253.18 333.621 250.684C337.523 248.152 341.742 246.887 346.277 246.887C353.695 246.887 359.461 249.33 363.574 254.217C367.688 259.104 369.744 266.1 369.744 275.205V279.266H331.09C331.23 284.891 332.865 289.443 335.994 292.924C339.158 296.369 343.166 298.092 348.018 298.092C351.463 298.092 354.381 297.389 356.771 295.982C359.162 294.576 361.254 292.713 363.047 290.393L369.006 295.033C364.225 302.381 357.053 306.055 347.49 306.055ZM346.277 254.902C342.34 254.902 339.035 256.344 336.363 259.227C333.691 262.074 332.039 266.082 331.406 271.25H359.988V270.512C359.707 265.555 358.371 261.723 355.98 259.016C353.59 256.273 350.355 254.902 346.277 254.902ZM390.311 247.941L390.627 255.113C394.986 249.629 400.682 246.887 407.713 246.887C419.771 246.887 425.854 253.689 425.959 267.295V305H416.203V267.242C416.168 263.129 415.219 260.088 413.355 258.119C411.527 256.15 408.662 255.166 404.76 255.166C401.596 255.166 398.818 256.01 396.428 257.697C394.037 259.385 392.174 261.6 390.838 264.342V305H381.082V247.941H390.311ZM158.912 432V355.219H184.014C192.346 355.219 198.604 356.941 202.787 360.387C207.006 363.832 209.115 368.93 209.115 375.68C209.115 379.266 208.096 382.447 206.057 385.225C204.018 387.967 201.24 390.094 197.725 391.605C201.873 392.766 205.143 394.98 207.533 398.25C209.959 401.484 211.172 405.352 211.172 409.852C211.172 416.742 208.939 422.156 204.475 426.094C200.01 430.031 193.699 432 185.543 432H158.912ZM169.037 396.088V423.721H185.754C190.465 423.721 194.174 422.508 196.881 420.082C199.623 417.621 200.994 414.246 200.994 409.957C200.994 400.711 195.967 396.088 185.912 396.088H169.037ZM169.037 387.967H184.33C188.76 387.967 192.293 386.859 194.93 384.645C197.602 382.43 198.938 379.424 198.938 375.627C198.938 371.408 197.707 368.35 195.246 366.451C192.785 364.518 189.041 363.551 184.014 363.551H169.037V387.967ZM252.252 383.695C250.775 383.449 249.176 383.326 247.453 383.326C241.055 383.326 236.713 386.051 234.428 391.5V432H224.672V374.941H234.164L234.322 381.533C237.521 376.436 242.057 373.887 247.928 373.887C249.826 373.887 251.268 374.133 252.252 374.625V383.695ZM271.869 432H262.113V374.941H271.869V432ZM261.322 359.807C261.322 358.225 261.797 356.889 262.746 355.799C263.73 354.709 265.172 354.164 267.07 354.164C268.969 354.164 270.41 354.709 271.395 355.799C272.379 356.889 272.871 358.225 272.871 359.807C272.871 361.389 272.379 362.707 271.395 363.762C270.41 364.816 268.969 365.344 267.07 365.344C265.172 365.344 263.73 364.816 262.746 363.762C261.797 362.707 261.322 361.389 261.322 359.807ZM285.158 402.996C285.158 394.242 287.232 387.211 291.381 381.902C295.529 376.559 300.961 373.887 307.676 373.887C314.355 373.887 319.646 376.172 323.549 380.742V351H333.305V432H324.34L323.865 425.883C319.963 430.664 314.531 433.055 307.57 433.055C300.961 433.055 295.564 430.348 291.381 424.934C287.232 419.52 285.158 412.453 285.158 403.734V402.996ZM294.914 404.104C294.914 410.572 296.25 415.635 298.922 419.291C301.594 422.947 305.285 424.775 309.996 424.775C316.184 424.775 320.701 421.998 323.549 416.443V390.234C320.631 384.855 316.148 382.166 310.102 382.166C305.32 382.166 301.594 384.012 298.922 387.703C296.25 391.395 294.914 396.861 294.914 404.104ZM346.172 402.996C346.172 394.102 348.229 387.035 352.342 381.797C356.455 376.523 361.904 373.887 368.689 373.887C375.65 373.887 381.082 376.348 384.984 381.27L385.459 374.941H394.371V430.629C394.371 438.012 392.174 443.83 387.779 448.084C383.42 452.338 377.549 454.465 370.166 454.465C366.053 454.465 362.027 453.586 358.09 451.828C354.152 450.07 351.146 447.662 349.072 444.604L354.135 438.75C358.318 443.918 363.434 446.502 369.48 446.502C374.227 446.502 377.918 445.166 380.555 442.494C383.227 439.822 384.562 436.061 384.562 431.209V426.305C380.66 430.805 375.334 433.055 368.584 433.055C361.904 433.055 356.49 430.365 352.342 424.986C348.229 419.607 346.172 412.277 346.172 402.996ZM355.98 404.104C355.98 410.537 357.299 415.6 359.936 419.291C362.572 422.947 366.264 424.775 371.01 424.775C377.162 424.775 381.68 421.98 384.562 416.391V390.34C381.574 384.891 377.092 382.166 371.115 382.166C366.369 382.166 362.66 384.012 359.988 387.703C357.316 391.395 355.98 396.861 355.98 404.104ZM432.814 433.055C425.08 433.055 418.787 430.523 413.936 425.461C409.084 420.363 406.658 413.561 406.658 405.053V403.26C406.658 397.6 407.73 392.555 409.875 388.125C412.055 383.66 415.078 380.18 418.945 377.684C422.848 375.152 427.066 373.887 431.602 373.887C439.02 373.887 444.785 376.33 448.898 381.217C453.012 386.104 455.068 393.1 455.068 402.205V406.266H416.414C416.555 411.891 418.189 416.443 421.318 419.924C424.482 423.369 428.49 425.092 433.342 425.092C436.787 425.092 439.705 424.389 442.096 422.982C444.486 421.576 446.578 419.713 448.371 417.393L454.33 422.033C449.549 429.381 442.377 433.055 432.814 433.055ZM431.602 381.902C427.664 381.902 424.359 383.344 421.688 386.227C419.016 389.074 417.363 393.082 416.73 398.25H445.312V397.512C445.031 392.555 443.695 388.723 441.305 386.016C438.914 383.273 435.68 381.902 431.602 381.902Z" fill="#90EE90"/>
<path d="M215.602 294.928L218.061 296.645L218.602 295.871V294.928H215.602ZM204.686 303.312L205.785 306.104L205.796 306.099L204.686 303.312ZM171.779 301.678L170.219 304.24L170.226 304.244L170.233 304.249L171.779 301.678ZM160.494 289.127L157.797 290.44L157.8 290.448L157.804 290.455L160.494 289.127ZM156.434 270.301H153.434V270.316L153.434 270.33L156.434 270.301ZM164.502 236.709L162.217 234.765L162.211 234.772L164.502 236.709ZM206.637 233.334L204.705 235.629L204.715 235.637L206.637 233.334ZM215.602 250.736V253.736H219.067L218.571 250.306L215.602 250.736ZM205.477 250.736L202.528 251.287L202.985 253.736H205.477V250.736ZM171.885 242.668L169.468 240.891L169.466 240.894L171.885 242.668ZM166.611 263.34L163.611 263.328V263.34H166.611ZM172.518 290.182L170.143 292.016L170.15 292.023L172.518 290.182ZM205.529 292.238L207.726 294.281L208.529 293.418V292.238H205.529ZM205.529 274.994H208.529V271.994H205.529V274.994ZM187.758 274.994H184.758V277.994H187.758V274.994ZM187.758 266.768V263.768H184.758V266.768H187.758ZM215.602 266.768H218.602V263.768H215.602V266.768ZM213.142 293.21C210.911 296.405 207.767 298.855 203.575 300.526L205.796 306.099C210.956 304.043 215.089 300.903 218.061 296.645L213.142 293.21ZM203.586 300.521C199.369 302.183 194.342 303.055 188.443 303.055V309.055C194.92 309.055 200.721 308.099 205.785 306.104L203.586 300.521ZM188.443 303.055C182.671 303.055 177.662 301.715 173.326 299.107L170.233 304.249C175.6 307.476 181.7 309.055 188.443 309.055V303.055ZM173.339 299.115C169.005 296.477 165.621 292.736 163.184 287.799L157.804 290.455C160.711 296.346 164.85 300.972 170.219 304.24L173.339 299.115ZM163.191 287.813C160.782 282.867 159.5 277.044 159.433 270.271L153.434 270.33C153.508 277.831 154.933 284.559 157.797 290.44L163.191 287.813ZM159.434 270.301V263.604H153.434V270.301H159.434ZM159.434 263.604C159.434 252.473 162.022 244.29 166.793 238.646L162.211 234.772C156.224 241.855 153.434 251.602 153.434 263.604H159.434ZM166.787 238.653C171.532 233.076 178.224 230.164 187.283 230.164V224.164C176.796 224.164 168.3 227.615 162.217 234.765L166.787 238.653ZM187.283 230.164C194.777 230.164 200.486 232.078 204.705 235.629L208.569 231.039C203.014 226.364 195.82 224.164 187.283 224.164V230.164ZM204.715 235.637C208.927 239.153 211.627 244.225 212.633 251.166L218.571 250.306C217.396 242.201 214.12 235.672 208.559 231.031L204.715 235.637ZM215.602 247.736H205.477V253.736H215.602V247.736ZM208.426 250.185C207.389 244.636 205.147 240.118 201.447 237.009C197.742 233.897 192.93 232.496 187.336 232.496V238.496C191.937 238.496 195.246 239.636 197.588 241.603C199.935 243.575 201.666 246.677 202.528 251.287L208.426 250.185ZM187.336 232.496C179.753 232.496 173.636 235.223 169.468 240.891L174.302 244.445C177.165 240.551 181.348 238.496 187.336 238.496V232.496ZM169.466 240.894C165.458 246.359 163.648 253.977 163.611 263.328L169.611 263.352C169.645 254.632 171.351 248.469 174.304 244.442L169.466 240.894ZM163.611 263.34V269.615H169.611V263.34H163.611ZM163.611 269.615C163.611 278.669 165.682 286.24 170.143 292.016L174.892 288.348C171.478 283.928 169.611 277.788 169.611 269.615H163.611ZM170.15 292.023C174.686 297.856 180.906 300.775 188.496 300.775V294.775C182.656 294.775 178.224 292.633 174.886 288.34L170.15 292.023ZM188.496 300.775C192.506 300.775 196.126 300.331 199.315 299.386L197.611 293.633C195.104 294.376 192.08 294.775 188.496 294.775V300.775ZM199.315 299.386C202.632 298.403 205.466 296.711 207.726 294.281L203.332 290.195C201.866 291.773 199.989 292.929 197.611 293.633L199.315 299.386ZM208.529 292.238V274.994H202.529V292.238H208.529ZM205.529 271.994H187.758V277.994H205.529V271.994ZM190.758 274.994V266.768H184.758V274.994H190.758ZM187.758 269.768H215.602V263.768H187.758V269.768ZM212.602 266.768V294.928H218.602V266.768H212.602ZM258.58 256.695L258.087 259.654L261.58 260.237V256.695H258.58ZM240.756 264.5L237.989 263.34L237.756 263.896V264.5H240.756ZM240.756 305V308H243.756V305H240.756ZM231 305H228V308H231V305ZM231 247.941V244.941H228V247.941H231ZM240.492 247.941L243.491 247.869L243.421 244.941H240.492V247.941ZM240.65 254.533L237.651 254.605L237.891 264.574L243.191 256.128L240.65 254.533ZM258.58 247.625H261.58V245.771L259.922 244.942L258.58 247.625ZM259.073 253.736C257.412 253.459 255.645 253.326 253.781 253.326V259.326C255.363 259.326 256.795 259.439 258.087 259.654L259.073 253.736ZM253.781 253.326C250.157 253.326 246.886 254.1 244.131 255.829C241.36 257.568 239.333 260.135 237.989 263.34L243.522 265.66C244.464 263.416 245.75 261.896 247.321 260.911C248.908 259.915 251.007 259.326 253.781 259.326V253.326ZM237.756 264.5V305H243.756V264.5H237.756ZM240.756 302H231V308H240.756V302ZM234 305V247.941H228V305H234ZM231 250.941H240.492V244.941H231V250.941ZM237.493 248.013L237.651 254.605L243.65 254.461L243.491 247.869L237.493 248.013ZM243.191 256.128C245.859 251.878 249.448 249.887 254.256 249.887V243.887C247.321 243.887 241.841 246.993 238.109 252.938L243.191 256.128ZM254.256 249.887C255.98 249.887 256.87 250.124 257.238 250.308L259.922 244.942C258.321 244.141 256.328 243.887 254.256 243.887V249.887ZM255.58 247.625V256.695H261.58V247.625H255.58ZM271.342 298.461L269.169 300.529L269.176 300.537L271.342 298.461ZM267.281 261.125L264.585 259.809L264.581 259.818L267.281 261.125ZM276.352 250.684L277.978 253.204L277.984 253.2L276.352 250.684ZM312.475 279.266V282.266H315.475V279.266H312.475ZM273.82 279.266V276.266H270.744L270.821 279.341L273.82 279.266ZM278.725 292.924L276.494 294.929L276.504 294.941L276.515 294.953L278.725 292.924ZM305.777 290.393L307.621 288.026L305.245 286.175L303.403 288.558L305.777 290.393ZM311.736 295.033L314.251 296.669L315.754 294.36L313.58 292.666L311.736 295.033ZM279.094 259.227L281.282 261.279L281.288 261.273L281.294 261.266L279.094 259.227ZM274.137 271.25L271.159 270.885L270.747 274.25H274.137V271.25ZM302.719 271.25V274.25H305.719V271.25H302.719ZM302.719 270.512H305.719V270.427L305.714 270.342L302.719 270.512ZM298.711 259.016L296.45 260.987L296.456 260.994L296.462 261.001L298.711 259.016ZM290.221 303.055C283.211 303.055 277.732 300.793 273.508 296.385L269.176 300.537C274.655 306.254 281.762 309.055 290.221 309.055V303.055ZM273.515 296.393C269.301 291.965 267.064 285.961 267.064 278.053H261.064C261.064 287.16 263.679 294.761 269.169 300.529L273.515 296.393ZM267.064 278.053V276.26H261.064V278.053H267.064ZM267.064 276.26C267.064 270.984 268.062 266.397 269.981 262.432L264.581 259.818C262.212 264.712 261.064 270.215 261.064 276.26H267.064ZM269.977 262.441C271.937 258.427 274.607 255.38 277.978 253.204L274.725 248.163C270.362 250.979 266.985 254.893 264.585 259.809L269.977 262.441ZM277.984 253.2C281.414 250.976 285.068 249.887 289.008 249.887V243.887C283.878 243.887 279.094 245.329 274.719 248.167L277.984 253.2ZM289.008 249.887C295.7 249.887 300.561 252.052 304.01 256.149L308.6 252.285C303.822 246.608 297.152 243.887 289.008 243.887V249.887ZM304.01 256.149C307.508 260.305 309.475 266.511 309.475 275.205H315.475C315.475 265.689 313.328 257.902 308.6 252.285L304.01 256.149ZM309.475 275.205V279.266H315.475V275.205H309.475ZM312.475 276.266H273.82V282.266H312.475V276.266ZM270.821 279.341C270.976 285.529 272.795 290.815 276.494 294.929L280.956 290.918C278.397 288.072 276.946 284.252 276.819 279.191L270.821 279.341ZM276.515 294.953C280.271 299.043 285.092 301.092 290.748 301.092V295.092C286.701 295.092 283.507 293.696 280.934 290.895L276.515 294.953ZM290.748 301.092C294.6 301.092 298.072 300.304 301.023 298.568L297.981 293.397C296.151 294.473 293.787 295.092 290.748 295.092V301.092ZM301.023 298.568C303.762 296.957 306.138 294.832 308.151 292.227L303.403 288.558C301.831 290.594 300.023 292.195 297.981 293.397L301.023 298.568ZM303.934 292.76L309.893 297.4L313.58 292.666L307.621 288.026L303.934 292.76ZM309.222 293.397C305.051 299.806 298.878 303.055 290.221 303.055V309.055C300.689 309.055 308.859 304.956 314.251 296.669L309.222 293.397ZM289.008 251.902C284.237 251.902 280.134 253.691 276.893 257.187L281.294 261.266C283.397 258.997 285.904 257.902 289.008 257.902V251.902ZM276.906 257.174C273.674 260.619 271.844 265.294 271.159 270.885L277.114 271.615C277.695 266.87 279.17 263.529 281.282 261.279L276.906 257.174ZM274.137 274.25H302.719V268.25H274.137V274.25ZM305.719 271.25V270.512H299.719V271.25H305.719ZM305.714 270.342C305.409 264.962 303.937 260.401 300.96 257.03L296.462 261.001C298.267 263.045 299.466 266.148 299.724 270.682L305.714 270.342ZM300.972 257.044C297.939 253.565 293.836 251.902 289.008 251.902V257.902C292.336 257.902 294.701 258.982 296.45 260.987L300.972 257.044ZM328.611 298.461L326.438 300.529L326.445 300.537L328.611 298.461ZM324.551 261.125L321.855 259.809L321.851 259.818L324.551 261.125ZM333.621 250.684L335.248 253.204L335.254 253.2L333.621 250.684ZM369.744 279.266V282.266H372.744V279.266H369.744ZM331.09 279.266V276.266H328.014L328.091 279.341L331.09 279.266ZM335.994 292.924L333.763 294.929L333.774 294.941L333.785 294.953L335.994 292.924ZM363.047 290.393L364.89 288.026L362.514 286.175L360.673 288.558L363.047 290.393ZM369.006 295.033L371.52 296.669L373.023 294.36L370.849 292.666L369.006 295.033ZM336.363 259.227L338.551 261.279L338.557 261.273L338.564 261.266L336.363 259.227ZM331.406 271.25L328.428 270.885L328.016 274.25H331.406V271.25ZM359.988 271.25V274.25H362.988V271.25H359.988ZM359.988 270.512H362.988V270.427L362.983 270.342L359.988 270.512ZM355.98 259.016L353.719 260.987L353.725 260.994L353.732 261.001L355.98 259.016ZM347.49 303.055C340.481 303.055 335.002 300.793 330.777 296.385L326.445 300.537C331.924 306.254 339.031 309.055 347.49 309.055V303.055ZM330.784 296.393C326.571 291.965 324.334 285.961 324.334 278.053H318.334C318.334 287.16 320.949 294.761 326.438 300.529L330.784 296.393ZM324.334 278.053V276.26H318.334V278.053H324.334ZM324.334 276.26C324.334 270.984 325.331 266.397 327.251 262.432L321.851 259.818C319.481 264.712 318.334 270.215 318.334 276.26H324.334ZM327.247 262.441C329.206 258.427 331.877 255.38 335.248 253.204L331.994 248.163C327.631 250.979 324.255 254.893 321.855 259.809L327.247 262.441ZM335.254 253.2C338.683 250.976 342.337 249.887 346.277 249.887V243.887C341.147 243.887 336.364 245.329 331.989 248.167L335.254 253.2ZM346.277 249.887C352.969 249.887 357.831 252.052 361.279 256.149L365.869 252.285C361.091 246.608 354.422 243.887 346.277 243.887V249.887ZM361.279 256.149C364.777 260.305 366.744 266.511 366.744 275.205H372.744C372.744 265.689 370.598 257.902 365.869 252.285L361.279 256.149ZM366.744 275.205V279.266H372.744V275.205H366.744ZM369.744 276.266H331.09V282.266H369.744V276.266ZM328.091 279.341C328.245 285.529 330.064 290.815 333.763 294.929L338.225 290.918C335.666 288.072 334.215 284.252 334.089 279.191L328.091 279.341ZM333.785 294.953C337.54 299.043 342.361 301.092 348.018 301.092V295.092C343.971 295.092 340.776 293.696 338.204 290.895L333.785 294.953ZM348.018 301.092C351.869 301.092 355.342 300.304 358.293 298.568L355.25 293.397C353.42 294.473 351.056 295.092 348.018 295.092V301.092ZM358.293 298.568C361.031 296.957 363.408 294.832 365.421 292.227L360.673 288.558C359.1 290.594 357.293 292.195 355.25 293.397L358.293 298.568ZM361.204 292.76L367.163 297.4L370.849 292.666L364.89 288.026L361.204 292.76ZM366.491 293.397C362.321 299.806 356.147 303.055 347.49 303.055V309.055C357.958 309.055 366.128 304.956 371.52 296.669L366.491 293.397ZM346.277 251.902C341.506 251.902 337.404 253.691 334.163 257.187L338.564 261.266C340.667 258.997 343.173 257.902 346.277 257.902V251.902ZM334.176 257.174C330.943 260.619 329.113 265.294 328.428 270.885L334.384 271.615C334.965 266.87 336.44 263.529 338.551 261.279L334.176 257.174ZM331.406 274.25H359.988V268.25H331.406V274.25ZM362.988 271.25V270.512H356.988V271.25H362.988ZM362.983 270.342C362.678 264.962 361.206 260.401 358.229 257.03L353.732 261.001C355.536 263.045 356.736 266.148 356.993 270.682L362.983 270.342ZM358.242 257.044C355.209 253.565 351.105 251.902 346.277 251.902V257.902C349.606 257.902 351.971 258.982 353.719 260.987L358.242 257.044ZM390.311 247.941L393.308 247.809L393.181 244.941H390.311V247.941ZM390.627 255.113L387.63 255.246L387.983 263.26L392.975 256.98L390.627 255.113ZM425.959 267.295H428.959V267.283L428.959 267.272L425.959 267.295ZM425.959 305V308H428.959V305H425.959ZM416.203 305H413.203V308H416.203V305ZM416.203 267.242H419.203V267.229L419.203 267.217L416.203 267.242ZM413.355 258.119L411.157 260.16L411.167 260.171L411.177 260.181L413.355 258.119ZM390.838 264.342L388.141 263.028L387.838 263.65V264.342H390.838ZM390.838 305V308H393.838V305H390.838ZM381.082 305H378.082V308H381.082V305ZM381.082 247.941V244.941H378.082V247.941H381.082ZM387.313 248.074L387.63 255.246L393.624 254.981L393.308 247.809L387.313 248.074ZM392.975 256.98C396.763 252.215 401.592 249.887 407.713 249.887V243.887C399.771 243.887 393.209 247.043 388.278 253.247L392.975 256.98ZM407.713 249.887C413.178 249.887 416.778 251.412 419.082 253.988C421.446 256.632 422.909 260.897 422.959 267.318L428.959 267.272C428.903 260.088 427.273 254.148 423.555 249.989C419.777 245.763 414.306 243.887 407.713 243.887V249.887ZM422.959 267.295V305H428.959V267.295H422.959ZM425.959 302H416.203V308H425.959V302ZM419.203 305V267.242H413.203V305H419.203ZM419.203 267.217C419.165 262.727 418.132 258.802 415.534 256.057L411.177 260.181C412.305 261.374 413.171 263.531 413.203 267.268L419.203 267.217ZM415.554 256.078C412.942 253.265 409.114 252.166 404.76 252.166V258.166C408.21 258.166 410.113 259.036 411.157 260.16L415.554 256.078ZM404.76 252.166C401.029 252.166 397.636 253.172 394.698 255.246L398.158 260.148C400.001 258.847 402.162 258.166 404.76 258.166V252.166ZM394.698 255.246C391.876 257.238 389.688 259.851 388.141 263.028L393.535 265.656C394.659 263.348 396.198 261.532 398.158 260.148L394.698 255.246ZM387.838 264.342V305H393.838V264.342H387.838ZM390.838 302H381.082V308H390.838V302ZM384.082 305V247.941H378.082V305H384.082ZM381.082 250.941H390.311V244.941H381.082V250.941ZM158.912 432H155.912V435H158.912V432ZM158.912 355.219V352.219H155.912V355.219H158.912ZM202.787 360.387L200.88 362.703L200.89 362.71L202.787 360.387ZM206.057 385.225L208.464 387.015L208.469 387.007L208.475 387L206.057 385.225ZM197.725 391.605L196.54 388.849L188.733 392.206L196.917 394.495L197.725 391.605ZM207.533 398.25L205.112 400.021L205.122 400.035L205.133 400.05L207.533 398.25ZM169.037 396.088V393.088H166.037V396.088H169.037ZM169.037 423.721H166.037V426.721H169.037V423.721ZM196.881 420.082L198.883 422.316L198.885 422.315L196.881 420.082ZM169.037 387.967H166.037V390.967H169.037V387.967ZM194.93 384.645L193.015 382.335L193.008 382.341L193 382.347L194.93 384.645ZM195.246 366.451L193.393 368.81L193.403 368.818L193.414 368.827L195.246 366.451ZM169.037 363.551V360.551H166.037V363.551H169.037ZM161.912 432V355.219H155.912V432H161.912ZM158.912 358.219H184.014V352.219H158.912V358.219ZM184.014 358.219C192.006 358.219 197.456 359.883 200.88 362.703L204.694 358.071C199.751 354 192.686 352.219 184.014 352.219V358.219ZM200.89 362.71C204.246 365.452 206.115 369.594 206.115 375.68H212.115C212.115 368.265 209.765 362.212 204.685 358.063L200.89 362.71ZM206.115 375.68C206.115 378.655 205.283 381.209 203.638 383.449L208.475 387C210.908 383.686 212.115 379.876 212.115 375.68H206.115ZM203.649 383.434C201.962 385.704 199.629 387.521 196.54 388.849L198.91 394.361C202.851 392.667 206.073 390.23 208.464 387.015L203.649 383.434ZM196.917 394.495C200.461 395.486 203.144 397.33 205.112 400.021L209.955 396.479C207.141 392.631 203.285 390.045 198.533 388.716L196.917 394.495ZM205.133 400.05C207.126 402.707 208.172 405.923 208.172 409.852H214.172C214.172 404.78 212.792 400.262 209.933 396.45L205.133 400.05ZM208.172 409.852C208.172 416.031 206.205 420.568 202.49 423.844L206.459 428.344C211.674 423.745 214.172 417.453 214.172 409.852H208.172ZM202.49 423.844C198.748 427.144 193.24 429 185.543 429V435C194.158 435 201.272 432.918 206.459 428.344L202.49 423.844ZM185.543 429H158.912V435H185.543V429ZM166.037 396.088V423.721H172.037V396.088H166.037ZM169.037 426.721H185.754V420.721H169.037V426.721ZM185.754 426.721C190.979 426.721 195.479 425.367 198.883 422.316L194.879 417.848C192.869 419.649 189.95 420.721 185.754 420.721V426.721ZM198.885 422.315C202.367 419.19 203.994 414.944 203.994 409.957H197.994C197.994 413.548 196.879 416.053 194.877 417.849L198.885 422.315ZM203.994 409.957C203.994 404.804 202.582 400.407 199.254 397.347C195.975 394.331 191.342 393.088 185.912 393.088V399.088C190.536 399.088 193.445 400.156 195.193 401.763C196.893 403.327 197.994 405.864 197.994 409.957H203.994ZM185.912 393.088H169.037V399.088H185.912V393.088ZM169.037 390.967H184.33V384.967H169.037V390.967ZM184.33 390.967C189.259 390.967 193.543 389.727 196.859 386.942L193 382.347C191.043 383.991 188.26 384.967 184.33 384.967V390.967ZM196.844 386.954C200.274 384.111 201.938 380.222 201.938 375.627H195.938C195.938 378.626 194.929 380.748 193.015 382.335L196.844 386.954ZM201.938 375.627C201.938 370.835 200.518 366.729 197.079 364.076L193.414 368.827C194.896 369.97 195.938 371.982 195.938 375.627H201.938ZM197.1 364.092C193.874 361.558 189.334 360.551 184.014 360.551V366.551C188.748 366.551 191.696 367.477 193.393 368.81L197.1 364.092ZM184.014 360.551H169.037V366.551H184.014V360.551ZM166.037 363.551V387.967H172.037V363.551H166.037ZM252.252 383.695L251.759 386.654L255.252 387.237V383.695H252.252ZM234.428 391.5L231.661 390.34L231.428 390.896V391.5H234.428ZM234.428 432V435H237.428V432H234.428ZM224.672 432H221.672V435H224.672V432ZM224.672 374.941V371.941H221.672V374.941H224.672ZM234.164 374.941L237.163 374.869L237.093 371.941H234.164V374.941ZM234.322 381.533L231.323 381.605L231.562 391.574L236.863 383.128L234.322 381.533ZM252.252 374.625H255.252V372.771L253.594 371.942L252.252 374.625ZM252.745 380.736C251.083 380.459 249.317 380.326 247.453 380.326V386.326C249.035 386.326 250.467 386.439 251.759 386.654L252.745 380.736ZM247.453 380.326C243.829 380.326 240.558 381.1 237.803 382.829C235.032 384.568 233.005 387.135 231.661 390.34L237.194 392.66C238.136 390.416 239.422 388.896 240.993 387.911C242.58 386.915 244.679 386.326 247.453 386.326V380.326ZM231.428 391.5V432H237.428V391.5H231.428ZM234.428 429H224.672V435H234.428V429ZM227.672 432V374.941H221.672V432H227.672ZM224.672 377.941H234.164V371.941H224.672V377.941ZM231.165 375.013L231.323 381.605L237.321 381.461L237.163 374.869L231.165 375.013ZM236.863 383.128C239.53 378.878 243.12 376.887 247.928 376.887V370.887C240.993 370.887 235.512 373.993 231.781 379.938L236.863 383.128ZM247.928 376.887C249.652 376.887 250.542 377.124 250.91 377.308L253.594 371.942C251.993 371.141 250 370.887 247.928 370.887V376.887ZM249.252 374.625V383.695H255.252V374.625H249.252ZM271.869 432V435H274.869V432H271.869ZM262.113 432H259.113V435H262.113V432ZM262.113 374.941V371.941H259.113V374.941H262.113ZM271.869 374.941H274.869V371.941H271.869V374.941ZM262.746 355.799L260.52 353.788L260.502 353.808L260.484 353.828L262.746 355.799ZM262.746 363.762L260.516 365.769L260.534 365.789L260.553 365.809L262.746 363.762ZM271.869 429H262.113V435H271.869V429ZM265.113 432V374.941H259.113V432H265.113ZM262.113 377.941H271.869V371.941H262.113V377.941ZM268.869 374.941V432H274.869V374.941H268.869ZM264.322 359.807C264.322 358.875 264.581 358.26 265.008 357.769L260.484 353.828C259.013 355.518 258.322 357.574 258.322 359.807H264.322ZM264.972 357.81C265.232 357.522 265.757 357.164 267.07 357.164V351.164C264.587 351.164 262.229 351.896 260.52 353.788L264.972 357.81ZM267.07 357.164C268.384 357.164 268.908 357.522 269.168 357.81L273.621 353.788C271.912 351.896 269.554 351.164 267.07 351.164V357.164ZM269.168 357.81C269.614 358.304 269.871 358.905 269.871 359.807H275.871C275.871 357.544 275.144 355.474 273.621 353.788L269.168 357.81ZM269.871 359.807C269.871 360.709 269.615 361.271 269.201 361.715L273.588 365.809C275.143 364.143 275.871 362.069 275.871 359.807H269.871ZM269.201 361.715C268.948 361.986 268.413 362.344 267.07 362.344V368.344C269.525 368.344 271.872 367.647 273.588 365.809L269.201 361.715ZM267.07 362.344C265.728 362.344 265.192 361.986 264.939 361.715L260.553 365.809C262.269 367.647 264.616 368.344 267.07 368.344V362.344ZM264.976 361.755C264.581 361.316 264.322 360.739 264.322 359.807H258.322C258.322 362.038 259.013 364.098 260.516 365.769L264.976 361.755ZM291.381 381.902L293.745 383.75L293.751 383.742L291.381 381.902ZM323.549 380.742L321.267 382.69L326.549 388.876V380.742H323.549ZM323.549 351V348H320.549V351H323.549ZM333.305 351H336.305V348H333.305V351ZM333.305 432V435H336.305V432H333.305ZM324.34 432L321.349 432.232L321.564 435H324.34V432ZM323.865 425.883L326.856 425.651L326.277 418.183L321.541 423.986L323.865 425.883ZM291.381 424.934L289 426.758L289.007 426.768L291.381 424.934ZM323.549 416.443L326.218 417.812L326.549 417.168V416.443H323.549ZM323.549 390.234H326.549V389.473L326.186 388.804L323.549 390.234ZM288.158 402.996C288.158 394.71 290.118 388.391 293.745 383.75L289.017 380.055C284.347 386.031 282.158 393.775 282.158 402.996H288.158ZM293.751 383.742C297.336 379.124 301.896 376.887 307.676 376.887V370.887C300.026 370.887 293.723 373.993 289.011 380.063L293.751 383.742ZM307.676 376.887C313.588 376.887 318.003 378.867 321.267 382.69L325.83 378.794C321.29 373.477 315.123 370.887 307.676 370.887V376.887ZM326.549 380.742V351H320.549V380.742H326.549ZM323.549 354H333.305V348H323.549V354ZM330.305 351V432H336.305V351H330.305ZM333.305 429H324.34V435H333.305V429ZM327.331 431.768L326.856 425.651L320.874 426.115L321.349 432.232L327.331 431.768ZM321.541 423.986C318.286 427.974 313.76 430.055 307.57 430.055V436.055C315.302 436.055 321.64 433.354 326.189 427.78L321.541 423.986ZM307.57 430.055C301.928 430.055 297.394 427.808 293.755 423.099L289.007 426.768C293.735 432.887 299.994 436.055 307.57 436.055V430.055ZM293.762 423.109C290.115 418.349 288.158 411.979 288.158 403.734H282.158C282.158 412.927 284.35 420.69 289 426.758L293.762 423.109ZM288.158 403.734V402.996H282.158V403.734H288.158ZM291.914 404.104C291.914 410.945 293.322 416.713 296.5 421.061L301.344 417.521C299.178 414.557 297.914 410.199 297.914 404.104H291.914ZM296.5 421.061C299.763 425.526 304.373 427.775 309.996 427.775V421.775C306.197 421.775 303.425 420.368 301.344 417.521L296.5 421.061ZM309.996 427.775C313.551 427.775 316.791 426.973 319.596 425.248C322.4 423.524 324.589 420.991 326.218 417.812L320.879 415.075C319.661 417.451 318.167 419.083 316.454 420.137C314.742 421.189 312.629 421.775 309.996 421.775V427.775ZM326.549 416.443V390.234H320.549V416.443H326.549ZM326.186 388.804C324.515 385.724 322.317 383.275 319.542 381.611C316.766 379.945 313.582 379.166 310.102 379.166V385.166C312.668 385.166 314.749 385.732 316.455 386.756C318.163 387.78 319.665 389.366 320.912 391.665L326.186 388.804ZM310.102 379.166C304.414 379.166 299.76 381.429 296.492 385.944L301.352 389.462C303.428 386.594 306.227 385.166 310.102 385.166V379.166ZM296.492 385.944C293.289 390.369 291.914 396.574 291.914 404.104H297.914C297.914 397.149 299.211 392.42 301.352 389.462L296.492 385.944ZM352.342 381.797L354.701 383.65L354.707 383.642L352.342 381.797ZM384.984 381.27L382.634 383.133L387.402 389.147L387.976 381.494L384.984 381.27ZM385.459 374.941V371.941H382.676L382.467 374.717L385.459 374.941ZM394.371 374.941H397.371V371.941H394.371V374.941ZM387.779 448.084L385.693 445.928L385.684 445.937L387.779 448.084ZM349.072 444.604L346.803 442.641L345.297 444.382L346.589 446.287L349.072 444.604ZM354.135 438.75L356.467 436.862L354.211 434.076L351.866 436.788L354.135 438.75ZM380.555 442.494L378.433 440.373L378.426 440.38L378.419 440.387L380.555 442.494ZM384.562 426.305H387.562V418.266L382.296 424.339L384.562 426.305ZM352.342 424.986L349.959 426.809L349.966 426.818L352.342 424.986ZM359.936 419.291L357.494 421.035L357.502 421.046L359.936 419.291ZM384.562 416.391L387.229 417.766L387.562 417.119V416.391H384.562ZM384.562 390.34H387.562V389.571L387.193 388.897L384.562 390.34ZM349.172 402.996C349.172 394.548 351.123 388.206 354.701 383.65L349.982 379.944C345.334 385.864 343.172 393.655 343.172 402.996H349.172ZM354.707 383.642C358.242 379.11 362.813 376.887 368.689 376.887V370.887C360.996 370.887 354.668 373.937 349.976 379.952L354.707 383.642ZM368.689 376.887C374.847 376.887 379.367 379.013 382.634 383.133L387.335 379.406C382.797 373.682 376.453 370.887 368.689 370.887V376.887ZM387.976 381.494L388.451 375.166L382.467 374.717L381.993 381.045L387.976 381.494ZM385.459 377.941H394.371V371.941H385.459V377.941ZM391.371 374.941V430.629H397.371V374.941H391.371ZM391.371 430.629C391.371 437.38 389.385 442.354 385.693 445.928L389.866 450.24C394.962 445.306 397.371 438.644 397.371 430.629H391.371ZM385.684 445.937C382 449.532 376.942 451.465 370.166 451.465V457.465C378.155 457.465 384.84 455.144 389.874 450.231L385.684 445.937ZM370.166 451.465C366.494 451.465 362.884 450.683 359.313 449.089L356.867 454.568C361.17 456.489 365.611 457.465 370.166 457.465V451.465ZM359.313 449.089C355.799 447.52 353.267 445.443 351.555 442.92L346.589 446.287C349.026 449.881 352.506 452.621 356.867 454.568L359.313 449.089ZM351.341 446.566L356.404 440.712L351.866 436.788L346.803 442.641L351.341 446.566ZM351.803 440.638C356.492 446.429 362.43 449.502 369.48 449.502V443.502C364.437 443.502 360.145 441.407 356.467 436.862L351.803 440.638ZM369.48 449.502C374.805 449.502 379.35 447.986 382.69 444.601L378.419 440.387C376.486 442.346 373.648 443.502 369.48 443.502V449.502ZM382.676 444.615C386.058 441.233 387.562 436.62 387.562 431.209H381.562C381.562 435.501 380.395 438.411 378.433 440.373L382.676 444.615ZM387.562 431.209V426.305H381.562V431.209H387.562ZM382.296 424.339C379.043 428.09 374.593 430.055 368.584 430.055V436.055C376.075 436.055 382.277 433.519 386.829 428.27L382.296 424.339ZM368.584 430.055C362.853 430.055 358.309 427.811 354.717 423.154L349.966 426.818C354.671 432.919 360.956 436.055 368.584 436.055V430.055ZM354.725 423.164C351.137 418.472 349.172 411.859 349.172 402.996H343.172C343.172 412.695 345.32 420.743 349.959 426.809L354.725 423.164ZM352.98 404.104C352.98 410.91 354.371 416.662 357.494 421.035L362.377 417.547C360.227 414.538 358.98 410.164 358.98 404.104H352.98ZM357.502 421.046C360.737 425.531 365.36 427.775 371.01 427.775V421.775C367.168 421.775 364.407 420.363 362.369 417.536L357.502 421.046ZM371.01 427.775C374.554 427.775 377.787 426.965 380.591 425.23C383.391 423.498 385.584 420.954 387.229 417.766L381.896 415.016C380.658 417.417 379.151 419.066 377.434 420.128C375.72 421.188 373.618 421.775 371.01 421.775V427.775ZM387.562 416.391V390.34H381.562V416.391H387.562ZM387.193 388.897C385.493 385.797 383.285 383.328 380.518 381.646C377.744 379.96 374.575 379.166 371.115 379.166V385.166C373.632 385.166 375.692 385.734 377.401 386.773C379.116 387.816 380.644 389.433 381.932 391.782L387.193 388.897ZM371.115 379.166C365.454 379.166 360.821 381.436 357.558 385.944L362.418 389.462C364.499 386.588 367.284 385.166 371.115 385.166V379.166ZM357.558 385.944C354.355 390.369 352.98 396.574 352.98 404.104H358.98C358.98 397.149 360.278 392.42 362.418 389.462L357.558 385.944ZM413.936 425.461L411.762 427.529L411.77 427.537L413.936 425.461ZM409.875 388.125L407.179 386.809L407.175 386.818L409.875 388.125ZM418.945 377.684L420.572 380.204L420.578 380.2L418.945 377.684ZM455.068 406.266V409.266H458.068V406.266H455.068ZM416.414 406.266V403.266H413.338L413.415 406.341L416.414 406.266ZM421.318 419.924L419.087 421.929L419.098 421.941L419.109 421.953L421.318 419.924ZM448.371 417.393L450.214 415.026L447.839 413.175L445.997 415.558L448.371 417.393ZM454.33 422.033L456.845 423.669L458.348 421.36L456.173 419.666L454.33 422.033ZM421.688 386.227L423.875 388.279L423.882 388.273L423.888 388.266L421.688 386.227ZM416.73 398.25L413.753 397.885L413.341 401.25H416.73V398.25ZM445.312 398.25V401.25H448.312V398.25H445.312ZM445.312 397.512H448.312V397.427L448.308 397.342L445.312 397.512ZM441.305 386.016L439.043 387.987L439.05 387.994L439.056 388.001L441.305 386.016ZM432.814 430.055C425.805 430.055 420.326 427.793 416.102 423.385L411.77 427.537C417.248 433.254 424.355 436.055 432.814 436.055V430.055ZM416.109 423.393C411.895 418.965 409.658 412.961 409.658 405.053H403.658C403.658 414.16 406.273 421.761 411.762 427.529L416.109 423.393ZM409.658 405.053V403.26H403.658V405.053H409.658ZM409.658 403.26C409.658 397.984 410.656 393.397 412.575 389.432L407.175 386.818C404.805 391.712 403.658 397.215 403.658 403.26H409.658ZM412.571 389.441C414.53 385.427 417.201 382.38 420.572 380.204L417.318 375.163C412.955 377.979 409.579 381.893 407.179 386.809L412.571 389.441ZM420.578 380.2C424.007 377.976 427.661 376.887 431.602 376.887V370.887C426.471 370.887 421.688 372.329 417.313 375.167L420.578 380.2ZM431.602 376.887C438.293 376.887 443.155 379.052 446.603 383.149L451.194 379.285C446.415 373.608 439.746 370.887 431.602 370.887V376.887ZM446.603 383.149C450.102 387.305 452.068 393.511 452.068 402.205H458.068C458.068 392.689 455.922 384.902 451.194 379.285L446.603 383.149ZM452.068 402.205V406.266H458.068V402.205H452.068ZM455.068 403.266H416.414V409.266H455.068V403.266ZM413.415 406.341C413.57 412.529 415.388 417.815 419.087 421.929L423.549 417.918C420.99 415.072 419.54 411.252 419.413 406.191L413.415 406.341ZM419.109 421.953C422.864 426.043 427.686 428.092 433.342 428.092V422.092C429.295 422.092 426.1 420.696 423.528 417.895L419.109 421.953ZM433.342 428.092C437.194 428.092 440.666 427.304 443.617 425.568L440.575 420.397C438.744 421.473 436.381 422.092 433.342 422.092V428.092ZM443.617 425.568C446.356 423.957 448.732 421.832 450.745 419.227L445.997 415.558C444.424 417.594 442.617 419.195 440.575 420.397L443.617 425.568ZM446.528 419.76L452.487 424.4L456.173 419.666L450.214 415.026L446.528 419.76ZM451.816 420.397C447.645 426.806 441.472 430.055 432.814 430.055V436.055C443.282 436.055 451.453 431.956 456.845 423.669L451.816 420.397ZM431.602 378.902C426.831 378.902 422.728 380.691 419.487 384.187L423.888 388.266C425.991 385.997 428.498 384.902 431.602 384.902V378.902ZM419.5 384.174C416.267 387.619 414.437 392.294 413.753 397.885L419.708 398.615C420.289 393.87 421.764 390.529 423.875 388.279L419.5 384.174ZM416.73 401.25H445.312V395.25H416.73V401.25ZM448.312 398.25V397.512H442.312V398.25H448.312ZM448.308 397.342C448.002 391.962 446.53 387.401 443.553 384.03L439.056 388.001C440.86 390.045 442.06 393.148 442.317 397.682L448.308 397.342ZM443.566 384.044C440.533 380.565 436.429 378.902 431.602 378.902V384.902C434.93 384.902 437.295 385.982 439.043 387.987L443.566 384.044Z" fill="white"/>
<rect y="666" width="1965" height="414" fill="white"/>
<rect x="263" y="618" width="16" height="96" fill="#FA9B99"/>
<rect x="198" y="618" width="16" height="96" fill="#FA9B99"/>
<rect x="31" y="618" width="28" height="96" fill="#FA9B99"/>
<rect x="69" y="618" width="16" height="96" fill="#FA9B99"/>
<rect x="96" y="618" width="28" height="96" fill="#FA9B99"/>
<rect x="160" y="618" width="28" height="96" fill="#FA9B99"/>
<rect x="134" y="618" width="16" height="96" fill="#FA9B99"/>
<rect x="225" y="618" width="28" height="96" fill="#FA9B99"/>
<path d="M1971.13 1.94265L1976.59 1588.17L811.484 1084.24L1971.13 1.94265Z" fill="#FA9B99"/>
</g>
<defs>
<clipPath id="clip0">
<rect width="1920" height="1080" fill="white"/>
</clipPath>
</defs>
</svg>
