<svg width="1918" height="1080" viewBox="0 0 1918 1080" fill="none" xmlns="http://www.w3.org/2000/svg">
<g clip-path="url(#clip0)">
<rect width="1920" height="1080" fill="white"/>
<rect x="-152.331" y="92.4893" width="876.291" height="1484.86" transform="rotate(-43.4659 -152.331 92.4893)" fill="#FA9B99"/>
<path d="M49.9902 773.219L75.0918 835.867L100.193 773.219H113.324V850H103.199V820.1L104.148 787.826L78.9414 850H71.1895L46.0352 787.984L47.0371 820.1V850H36.9121V773.219H49.9902ZM164.898 844.357C161.102 848.822 155.529 851.055 148.182 851.055C142.1 851.055 137.459 849.297 134.26 845.781C131.096 842.23 129.496 836.992 129.461 830.066V792.941H139.217V829.803C139.217 838.451 142.732 842.775 149.764 842.775C157.217 842.775 162.174 839.998 164.635 834.443V792.941H174.391V850H165.109L164.898 844.357ZM202.498 779.125V792.941H213.15V800.482H202.498V835.867C202.498 838.152 202.973 839.875 203.922 841.035C204.871 842.16 206.488 842.723 208.773 842.723C209.898 842.723 211.445 842.512 213.414 842.09V850C210.848 850.703 208.352 851.055 205.926 851.055C201.566 851.055 198.279 849.736 196.064 847.1C193.85 844.463 192.742 840.719 192.742 835.867V800.482H182.354V792.941H192.742V779.125H202.498ZM259.82 844.357C256.023 848.822 250.451 851.055 243.104 851.055C237.021 851.055 232.381 849.297 229.182 845.781C226.018 842.23 224.418 836.992 224.383 830.066V792.941H234.139V829.803C234.139 838.451 237.654 842.775 244.686 842.775C252.139 842.775 257.096 839.998 259.557 834.443V792.941H269.312V850H260.031L259.82 844.357ZM319.41 850C318.848 848.875 318.391 846.871 318.039 843.988C313.504 848.699 308.09 851.055 301.797 851.055C296.172 851.055 291.549 849.473 287.928 846.309C284.342 843.109 282.549 839.066 282.549 834.18C282.549 828.238 284.799 823.633 289.299 820.363C293.834 817.059 300.197 815.406 308.389 815.406H317.881V810.924C317.881 807.514 316.861 804.807 314.822 802.803C312.783 800.764 309.777 799.744 305.805 799.744C302.324 799.744 299.406 800.623 297.051 802.381C294.695 804.139 293.518 806.266 293.518 808.762H283.709C283.709 805.914 284.711 803.172 286.715 800.535C288.754 797.863 291.496 795.754 294.941 794.207C298.422 792.66 302.236 791.887 306.385 791.887C312.959 791.887 318.109 793.539 321.836 796.844C325.562 800.113 327.496 804.631 327.637 810.396V836.658C327.637 841.896 328.305 846.062 329.641 849.156V850H319.41ZM303.221 842.564C306.279 842.564 309.18 841.773 311.922 840.191C314.664 838.609 316.65 836.553 317.881 834.021V822.314H310.234C298.281 822.314 292.305 825.812 292.305 832.809C292.305 835.867 293.324 838.258 295.363 839.98C297.402 841.703 300.021 842.564 303.221 842.564ZM353.529 850H343.773V769H353.529V850ZM79.2578 943.092H47.0371V977H36.9121V900.219H84.4785V908.551H47.0371V934.812H79.2578V943.092ZM129.145 971.357C125.348 975.822 119.775 978.055 112.428 978.055C106.346 978.055 101.705 976.297 98.5059 972.781C95.3418 969.23 93.7422 963.992 93.707 957.066V919.941H103.463V956.803C103.463 965.451 106.979 969.775 114.01 969.775C121.463 969.775 126.42 966.998 128.881 961.443V919.941H138.637V977H129.355L129.145 971.357ZM162.736 919.941L163.053 927.113C167.412 921.629 173.107 918.887 180.139 918.887C192.197 918.887 198.279 925.689 198.385 939.295V977H188.629V939.242C188.594 935.129 187.645 932.088 185.781 930.119C183.953 928.15 181.088 927.166 177.186 927.166C174.021 927.166 171.244 928.01 168.854 929.697C166.463 931.385 164.6 933.6 163.264 936.342V977H153.508V919.941H162.736ZM210.725 947.996C210.725 939.242 212.799 932.211 216.947 926.902C221.096 921.559 226.527 918.887 233.242 918.887C239.922 918.887 245.213 921.172 249.115 925.742V896H258.871V977H249.906L249.432 970.883C245.529 975.664 240.098 978.055 233.137 978.055C226.527 978.055 221.131 975.348 216.947 969.934C212.799 964.52 210.725 957.453 210.725 948.734V947.996ZM220.48 949.104C220.48 955.572 221.816 960.635 224.488 964.291C227.16 967.947 230.852 969.775 235.562 969.775C241.75 969.775 246.268 966.998 249.115 961.443V935.234C246.197 929.855 241.715 927.166 235.668 927.166C230.887 927.166 227.16 929.012 224.488 932.703C221.816 936.395 220.48 941.861 220.48 949.104ZM307.281 961.865C307.281 959.229 306.279 957.189 304.275 955.748C302.307 954.271 298.844 953.006 293.887 951.951C288.965 950.896 285.045 949.631 282.127 948.154C279.244 946.678 277.1 944.92 275.693 942.881C274.322 940.842 273.637 938.416 273.637 935.604C273.637 930.928 275.605 926.973 279.543 923.738C283.516 920.504 288.578 918.887 294.73 918.887C301.199 918.887 306.438 920.557 310.445 923.896C314.488 927.236 316.51 931.508 316.51 936.711H306.701C306.701 934.039 305.559 931.736 303.273 929.803C301.023 927.869 298.176 926.902 294.73 926.902C291.18 926.902 288.402 927.676 286.398 929.223C284.395 930.77 283.393 932.791 283.393 935.287C283.393 937.643 284.324 939.418 286.188 940.613C288.051 941.809 291.408 942.951 296.26 944.041C301.146 945.131 305.102 946.432 308.125 947.943C311.148 949.455 313.381 951.283 314.822 953.428C316.299 955.537 317.037 958.121 317.037 961.18C317.037 966.277 314.998 970.373 310.92 973.467C306.842 976.525 301.551 978.055 295.047 978.055C290.477 978.055 286.434 977.246 282.918 975.629C279.402 974.012 276.643 971.762 274.639 968.879C272.67 965.961 271.686 962.814 271.686 959.439H281.441C281.617 962.709 282.918 965.311 285.344 967.244C287.805 969.143 291.039 970.092 295.047 970.092C298.738 970.092 301.691 969.354 303.906 967.877C306.156 966.365 307.281 964.361 307.281 961.865Z" fill="white"/>
<path d="M49.9902 773.219L52.775 772.103L52.0201 770.219H49.9902V773.219ZM75.0918 835.867L72.307 836.983L75.0918 843.933L77.8766 836.983L75.0918 835.867ZM100.193 773.219V770.219H98.1635L97.4086 772.103L100.193 773.219ZM113.324 773.219H116.324V770.219H113.324V773.219ZM113.324 850V853H116.324V850H113.324ZM103.199 850H100.199V853H103.199V850ZM103.199 820.1L100.201 820.011L100.199 820.056V820.1H103.199ZM104.148 787.826L107.147 787.914L101.368 786.699L104.148 787.826ZM78.9414 850V853H80.9623L81.7216 851.127L78.9414 850ZM71.1895 850L68.4094 851.128L69.1689 853H71.1895V850ZM46.0352 787.984L48.8152 786.857L43.0366 788.078L46.0352 787.984ZM47.0371 820.1H50.0371V820.053L50.0357 820.006L47.0371 820.1ZM47.0371 850V853H50.0371V850H47.0371ZM36.9121 850H33.9121V853H36.9121V850ZM36.9121 773.219V770.219H33.9121V773.219H36.9121ZM47.2055 774.335L72.307 836.983L77.8766 834.751L52.775 772.103L47.2055 774.335ZM77.8766 836.983L102.978 774.335L97.4086 772.103L72.307 834.751L77.8766 836.983ZM100.193 776.219H113.324V770.219H100.193V776.219ZM110.324 773.219V850H116.324V773.219H110.324ZM113.324 847H103.199V853H113.324V847ZM106.199 850V820.1H100.199V850H106.199ZM106.198 820.188L107.147 787.914L101.15 787.738L100.201 820.011L106.198 820.188ZM101.368 786.699L76.1612 848.873L81.7216 851.127L106.929 788.953L101.368 786.699ZM78.9414 847H71.1895V853H78.9414V847ZM73.9695 848.872L48.8152 786.857L43.2551 789.112L68.4094 851.128L73.9695 848.872ZM43.0366 788.078L44.0386 820.193L50.0357 820.006L49.0337 787.891L43.0366 788.078ZM44.0371 820.1V850H50.0371V820.1H44.0371ZM47.0371 847H36.9121V853H47.0371V847ZM39.9121 850V773.219H33.9121V850H39.9121ZM36.9121 776.219H49.9902V770.219H36.9121V776.219ZM164.898 844.357L167.896 844.245L167.608 836.54L162.613 842.414L164.898 844.357ZM134.26 845.781L132.02 847.777L132.03 847.789L132.041 847.8L134.26 845.781ZM129.461 830.066H126.461V830.074L126.461 830.082L129.461 830.066ZM129.461 792.941V789.941H126.461V792.941H129.461ZM139.217 792.941H142.217V789.941H139.217V792.941ZM164.635 834.443L167.378 835.659L167.635 835.078V834.443H164.635ZM164.635 792.941V789.941H161.635V792.941H164.635ZM174.391 792.941H177.391V789.941H174.391V792.941ZM174.391 850V853H177.391V850H174.391ZM165.109 850L162.111 850.112L162.219 853H165.109V850ZM162.613 842.414C159.526 846.044 154.891 848.055 148.182 848.055V854.055C156.167 854.055 162.677 851.601 167.184 846.301L162.613 842.414ZM148.182 848.055C142.693 848.055 138.96 846.489 136.479 843.762L132.041 847.8C135.958 852.105 141.506 854.055 148.182 854.055V848.055ZM136.5 843.785C134.002 840.983 132.494 836.573 132.461 830.051L126.461 830.082C126.498 837.411 128.189 843.478 132.02 847.777L136.5 843.785ZM132.461 830.066V792.941H126.461V830.066H132.461ZM129.461 795.941H139.217V789.941H129.461V795.941ZM136.217 792.941V829.803H142.217V792.941H136.217ZM136.217 829.803C136.217 834.456 137.15 838.503 139.526 841.425C141.998 844.466 145.603 845.775 149.764 845.775V839.775C146.894 839.775 145.225 838.923 144.181 837.64C143.041 836.238 142.217 833.798 142.217 829.803H136.217ZM149.764 845.775C153.849 845.775 157.493 845.016 160.538 843.31C163.622 841.581 165.904 838.985 167.378 835.659L161.892 833.228C160.905 835.456 159.477 837.026 157.605 838.075C155.693 839.147 153.132 839.775 149.764 839.775V845.775ZM167.635 834.443V792.941H161.635V834.443H167.635ZM164.635 795.941H174.391V789.941H164.635V795.941ZM171.391 792.941V850H177.391V792.941H171.391ZM174.391 847H165.109V853H174.391V847ZM168.107 849.888L167.896 844.245L161.901 844.469L162.111 850.112L168.107 849.888ZM202.498 779.125H205.498V776.125H202.498V779.125ZM202.498 792.941H199.498V795.941H202.498V792.941ZM213.15 792.941H216.15V789.941H213.15V792.941ZM213.15 800.482V803.482H216.15V800.482H213.15ZM202.498 800.482V797.482H199.498V800.482H202.498ZM203.922 841.035L201.6 842.935L201.614 842.952L201.629 842.97L203.922 841.035ZM213.414 842.09H216.414V838.379L212.785 839.156L213.414 842.09ZM213.414 850L214.207 852.893L216.414 852.289V850H213.414ZM192.742 800.482H195.742V797.482H192.742V800.482ZM182.354 800.482H179.354V803.482H182.354V800.482ZM182.354 792.941V789.941H179.354V792.941H182.354ZM192.742 792.941V795.941H195.742V792.941H192.742ZM192.742 779.125V776.125H189.742V779.125H192.742ZM199.498 779.125V792.941H205.498V779.125H199.498ZM202.498 795.941H213.15V789.941H202.498V795.941ZM210.15 792.941V800.482H216.15V792.941H210.15ZM213.15 797.482H202.498V803.482H213.15V797.482ZM199.498 800.482V835.867H205.498V800.482H199.498ZM199.498 835.867C199.498 838.498 200.034 841.021 201.6 842.935L206.244 839.135C205.911 838.729 205.498 837.807 205.498 835.867H199.498ZM201.629 842.97C203.402 845.071 206.093 845.723 208.773 845.723V839.723C206.883 839.723 206.34 839.249 206.215 839.101L201.629 842.97ZM208.773 845.723C210.213 845.723 212.002 845.461 214.043 845.023L212.785 839.156C210.889 839.563 209.584 839.723 208.773 839.723V845.723ZM210.414 842.09V850H216.414V842.09H210.414ZM212.621 847.107C210.288 847.746 208.059 848.055 205.926 848.055V854.055C208.644 854.055 211.407 853.66 214.207 852.893L212.621 847.107ZM205.926 848.055C202.197 848.055 199.86 846.954 198.362 845.17L193.767 849.029C196.698 852.518 200.935 854.055 205.926 854.055V848.055ZM198.362 845.17C196.755 843.258 195.742 840.298 195.742 835.867H189.742C189.742 841.14 190.944 845.668 193.767 849.029L198.362 845.17ZM195.742 835.867V800.482H189.742V835.867H195.742ZM192.742 797.482H182.354V803.482H192.742V797.482ZM185.354 800.482V792.941H179.354V800.482H185.354ZM182.354 795.941H192.742V789.941H182.354V795.941ZM195.742 792.941V779.125H189.742V792.941H195.742ZM192.742 782.125H202.498V776.125H192.742V782.125ZM259.82 844.357L262.818 844.245L262.53 836.54L257.535 842.414L259.82 844.357ZM229.182 845.781L226.942 847.777L226.952 847.789L226.963 847.8L229.182 845.781ZM224.383 830.066H221.383V830.074L221.383 830.082L224.383 830.066ZM224.383 792.941V789.941H221.383V792.941H224.383ZM234.139 792.941H237.139V789.941H234.139V792.941ZM259.557 834.443L262.299 835.659L262.557 835.078V834.443H259.557ZM259.557 792.941V789.941H256.557V792.941H259.557ZM269.312 792.941H272.312V789.941H269.312V792.941ZM269.312 850V853H272.312V850H269.312ZM260.031 850L257.033 850.112L257.141 853H260.031V850ZM257.535 842.414C254.448 846.044 249.813 848.055 243.104 848.055V854.055C251.089 854.055 257.599 851.601 262.106 846.301L257.535 842.414ZM243.104 848.055C237.615 848.055 233.882 846.489 231.4 843.762L226.963 847.8C230.88 852.105 236.428 854.055 243.104 854.055V848.055ZM231.421 843.785C228.924 840.983 227.416 836.573 227.383 830.051L221.383 830.082C221.42 837.411 223.111 843.478 226.942 847.777L231.421 843.785ZM227.383 830.066V792.941H221.383V830.066H227.383ZM224.383 795.941H234.139V789.941H224.383V795.941ZM231.139 792.941V829.803H237.139V792.941H231.139ZM231.139 829.803C231.139 834.456 232.072 838.503 234.448 841.425C236.92 844.466 240.524 845.775 244.686 845.775V839.775C241.815 839.775 240.147 838.923 239.103 837.64C237.963 836.238 237.139 833.798 237.139 829.803H231.139ZM244.686 845.775C248.77 845.775 252.415 845.016 255.46 843.31C258.544 841.581 260.826 838.985 262.299 835.659L256.814 833.228C255.827 835.456 254.399 837.026 252.527 838.075C250.615 839.147 248.054 839.775 244.686 839.775V845.775ZM262.557 834.443V792.941H256.557V834.443H262.557ZM259.557 795.941H269.312V789.941H259.557V795.941ZM266.312 792.941V850H272.312V792.941H266.312ZM269.312 847H260.031V853H269.312V847ZM263.029 849.888L262.818 844.245L256.822 844.469L257.033 850.112L263.029 849.888ZM319.41 850L316.727 851.342L317.556 853H319.41V850ZM318.039 843.988L321.017 843.625L320.253 837.363L315.878 841.908L318.039 843.988ZM287.928 846.309L285.931 848.547L285.942 848.557L285.954 848.568L287.928 846.309ZM289.299 820.363L291.062 822.79L291.066 822.788L289.299 820.363ZM317.881 815.406V818.406H320.881V815.406H317.881ZM314.822 802.803L312.701 804.924L312.71 804.933L312.719 804.942L314.822 802.803ZM293.518 808.762V811.762H296.518V808.762H293.518ZM283.709 808.762H280.709V811.762H283.709V808.762ZM286.715 800.535L284.33 798.715L284.326 798.72L286.715 800.535ZM294.941 794.207L293.723 791.466L293.713 791.47L294.941 794.207ZM321.836 796.844L319.845 799.088L319.851 799.094L319.857 799.099L321.836 796.844ZM327.637 810.396H330.637V810.36L330.636 810.323L327.637 810.396ZM329.641 849.156H332.641V848.536L332.395 847.967L329.641 849.156ZM329.641 850V853H332.641V850H329.641ZM317.881 834.021L320.579 835.333L320.881 834.712V834.021H317.881ZM317.881 822.314H320.881V819.314H317.881V822.314ZM322.093 848.658C321.784 848.039 321.367 846.496 321.017 843.625L315.061 844.351C315.414 847.246 315.912 849.711 316.727 851.342L322.093 848.658ZM315.878 841.908C311.883 846.057 307.239 848.055 301.797 848.055V854.055C308.94 854.055 315.124 851.341 320.2 846.069L315.878 841.908ZM301.797 848.055C296.768 848.055 292.885 846.657 289.902 844.05L285.954 848.568C290.212 852.289 295.576 854.055 301.797 854.055V848.055ZM289.925 844.07C286.989 841.451 285.549 838.228 285.549 834.18H279.549C279.549 839.905 281.694 844.768 285.931 848.547L289.925 844.07ZM285.549 834.18C285.549 829.122 287.399 825.452 291.062 822.79L287.535 817.936C282.199 821.814 279.549 827.355 279.549 834.18H285.549ZM291.066 822.788C294.9 819.994 300.553 818.406 308.389 818.406V812.406C299.842 812.406 292.768 814.124 287.532 817.939L291.066 822.788ZM308.389 818.406H317.881V812.406H308.389V818.406ZM320.881 815.406V810.924H314.881V815.406H320.881ZM320.881 810.924C320.881 806.876 319.647 803.338 316.925 800.663L312.719 804.942C314.076 806.275 314.881 808.152 314.881 810.924H320.881ZM316.944 800.681C314.157 797.895 310.266 796.744 305.805 796.744V802.744C309.288 802.744 311.41 803.633 312.701 804.924L316.944 800.681ZM305.805 796.744C301.801 796.744 298.221 797.764 295.257 799.977L298.845 804.785C300.592 803.482 302.848 802.744 305.805 802.744V796.744ZM295.257 799.977C292.295 802.187 290.518 805.144 290.518 808.762H296.518C296.518 807.388 297.096 806.09 298.845 804.785L295.257 799.977ZM293.518 805.762H283.709V811.762H293.518V805.762ZM286.709 808.762C286.709 806.673 287.429 804.554 289.103 802.35L284.326 798.72C281.993 801.79 280.709 805.155 280.709 808.762H286.709ZM289.1 802.355C290.8 800.127 293.123 798.312 296.17 796.944L293.713 791.47C289.869 793.196 286.708 795.599 284.33 798.715L289.1 802.355ZM296.16 796.948C299.224 795.587 302.618 794.887 306.385 794.887V788.887C301.854 788.887 297.62 789.734 293.723 791.466L296.16 796.948ZM306.385 794.887C312.464 794.887 316.824 796.408 319.845 799.088L323.826 794.599C319.395 790.67 313.453 788.887 306.385 788.887V794.887ZM319.857 799.099C322.849 801.724 324.514 805.392 324.638 810.47L330.636 810.323C330.478 803.87 328.276 798.503 323.814 794.589L319.857 799.099ZM324.637 810.396V836.658H330.637V810.396H324.637ZM324.637 836.658C324.637 842.103 325.324 846.726 326.886 850.346L332.395 847.967C331.286 845.399 330.637 841.69 330.637 836.658H324.637ZM326.641 849.156V850H332.641V849.156H326.641ZM329.641 847H319.41V853H329.641V847ZM303.221 845.564C306.825 845.564 310.24 844.625 313.421 842.79L310.423 837.593C308.12 838.922 305.734 839.564 303.221 839.564V845.564ZM313.421 842.79C316.615 840.947 319.054 838.469 320.579 835.333L315.183 832.71C314.246 834.636 312.713 836.272 310.423 837.593L313.421 842.79ZM320.881 834.021V822.314H314.881V834.021H320.881ZM317.881 819.314H310.234V825.314H317.881V819.314ZM310.234 819.314C304.063 819.314 298.943 820.2 295.272 822.349C291.352 824.643 289.305 828.259 289.305 832.809H295.305C295.305 830.362 296.245 828.731 298.303 827.527C300.608 826.178 304.452 825.314 310.234 825.314V819.314ZM289.305 832.809C289.305 836.607 290.611 839.893 293.427 842.272L297.299 837.689C296.038 836.623 295.305 835.128 295.305 832.809H289.305ZM293.427 842.272C296.11 844.539 299.46 845.564 303.221 845.564V839.564C300.583 839.564 298.694 838.867 297.299 837.689L293.427 842.272ZM353.529 850V853H356.529V850H353.529ZM343.773 850H340.773V853H343.773V850ZM343.773 769V766H340.773V769H343.773ZM353.529 769H356.529V766H353.529V769ZM353.529 847H343.773V853H353.529V847ZM346.773 850V769H340.773V850H346.773ZM343.773 772H353.529V766H343.773V772ZM350.529 769V850H356.529V769H350.529ZM79.2578 943.092V946.092H82.2578V943.092H79.2578ZM47.0371 943.092V940.092H44.0371V943.092H47.0371ZM47.0371 977V980H50.0371V977H47.0371ZM36.9121 977H33.9121V980H36.9121V977ZM36.9121 900.219V897.219H33.9121V900.219H36.9121ZM84.4785 900.219H87.4785V897.219H84.4785V900.219ZM84.4785 908.551V911.551H87.4785V908.551H84.4785ZM47.0371 908.551V905.551H44.0371V908.551H47.0371ZM47.0371 934.812H44.0371V937.812H47.0371V934.812ZM79.2578 934.812H82.2578V931.812H79.2578V934.812ZM79.2578 940.092H47.0371V946.092H79.2578V940.092ZM44.0371 943.092V977H50.0371V943.092H44.0371ZM47.0371 974H36.9121V980H47.0371V974ZM39.9121 977V900.219H33.9121V977H39.9121ZM36.9121 903.219H84.4785V897.219H36.9121V903.219ZM81.4785 900.219V908.551H87.4785V900.219H81.4785ZM84.4785 905.551H47.0371V911.551H84.4785V905.551ZM44.0371 908.551V934.812H50.0371V908.551H44.0371ZM47.0371 937.812H79.2578V931.812H47.0371V937.812ZM76.2578 934.812V943.092H82.2578V934.812H76.2578ZM129.145 971.357L132.142 971.245L131.854 963.54L126.859 969.414L129.145 971.357ZM98.5059 972.781L96.2661 974.777L96.2765 974.789L96.287 974.8L98.5059 972.781ZM93.707 957.066H90.707V957.074L90.7071 957.082L93.707 957.066ZM93.707 919.941V916.941H90.707V919.941H93.707ZM103.463 919.941H106.463V916.941H103.463V919.941ZM128.881 961.443L131.624 962.659L131.881 962.078V961.443H128.881ZM128.881 919.941V916.941H125.881V919.941H128.881ZM138.637 919.941H141.637V916.941H138.637V919.941ZM138.637 977V980H141.637V977H138.637ZM129.355 977L126.358 977.112L126.466 980H129.355V977ZM126.859 969.414C123.772 973.044 119.137 975.055 112.428 975.055V981.055C120.413 981.055 126.923 978.601 131.43 973.301L126.859 969.414ZM112.428 975.055C106.939 975.055 103.206 973.489 100.725 970.762L96.287 974.8C100.204 979.105 105.752 981.055 112.428 981.055V975.055ZM100.746 970.785C98.2485 967.983 96.7401 963.573 96.707 957.051L90.7071 957.082C90.7443 964.411 92.4351 970.478 96.2661 974.777L100.746 970.785ZM96.707 957.066V919.941H90.707V957.066H96.707ZM93.707 922.941H103.463V916.941H93.707V922.941ZM100.463 919.941V956.803H106.463V919.941H100.463ZM100.463 956.803C100.463 961.456 101.396 965.503 103.772 968.425C106.244 971.466 109.849 972.775 114.01 972.775V966.775C111.14 966.775 109.471 965.923 108.427 964.64C107.287 963.238 106.463 960.798 106.463 956.803H100.463ZM114.01 972.775C118.095 972.775 121.739 972.016 124.784 970.31C127.868 968.581 130.15 965.985 131.624 962.659L126.138 960.228C125.151 962.456 123.723 964.026 121.851 965.075C119.939 966.147 117.378 966.775 114.01 966.775V972.775ZM131.881 961.443V919.941H125.881V961.443H131.881ZM128.881 922.941H138.637V916.941H128.881V922.941ZM135.637 919.941V977H141.637V919.941H135.637ZM138.637 974H129.355V980H138.637V974ZM132.353 976.888L132.142 971.245L126.147 971.469L126.358 977.112L132.353 976.888ZM162.736 919.941L165.733 919.809L165.607 916.941H162.736V919.941ZM163.053 927.113L160.056 927.245L160.409 935.26L165.401 928.98L163.053 927.113ZM198.385 939.295H201.385V939.283L201.385 939.272L198.385 939.295ZM198.385 977V980H201.385V977H198.385ZM188.629 977H185.629V980H188.629V977ZM188.629 939.242H191.629V939.229L191.629 939.217L188.629 939.242ZM185.781 930.119L183.583 932.16L183.593 932.171L183.602 932.181L185.781 930.119ZM163.264 936.342L160.567 935.028L160.264 935.65V936.342H163.264ZM163.264 977V980H166.264V977H163.264ZM153.508 977H150.508V980H153.508V977ZM153.508 919.941V916.941H150.508V919.941H153.508ZM159.739 920.074L160.056 927.245L166.05 926.981L165.733 919.809L159.739 920.074ZM165.401 928.98C169.189 924.215 174.018 921.887 180.139 921.887V915.887C172.197 915.887 165.635 919.043 160.704 925.247L165.401 928.98ZM180.139 921.887C185.604 921.887 189.204 923.412 191.508 925.988C193.872 928.632 195.335 932.897 195.385 939.318L201.385 939.272C201.329 932.088 199.699 926.148 195.981 921.989C192.202 917.763 186.732 915.887 180.139 915.887V921.887ZM195.385 939.295V977H201.385V939.295H195.385ZM198.385 974H188.629V980H198.385V974ZM191.629 977V939.242H185.629V977H191.629ZM191.629 939.217C191.59 934.727 190.558 930.802 187.96 928.057L183.602 932.181C184.731 933.374 185.597 935.531 185.629 939.268L191.629 939.217ZM187.98 928.078C185.368 925.265 181.54 924.166 177.186 924.166V930.166C180.636 930.166 182.539 931.036 183.583 932.16L187.98 928.078ZM177.186 924.166C173.455 924.166 170.062 925.172 167.123 927.246L170.584 932.148C172.426 930.847 174.588 930.166 177.186 930.166V924.166ZM167.123 927.246C164.302 929.238 162.114 931.851 160.567 935.028L165.961 937.656C167.085 935.348 168.624 933.532 170.584 932.148L167.123 927.246ZM160.264 936.342V977H166.264V936.342H160.264ZM163.264 974H153.508V980H163.264V974ZM156.508 977V919.941H150.508V977H156.508ZM153.508 922.941H162.736V916.941H153.508V922.941ZM216.947 926.902L219.311 928.75L219.317 928.742L216.947 926.902ZM249.115 925.742L246.834 927.69L252.115 933.876V925.742H249.115ZM249.115 896V893H246.115V896H249.115ZM258.871 896H261.871V893H258.871V896ZM258.871 977V980H261.871V977H258.871ZM249.906 977L246.915 977.232L247.13 980H249.906V977ZM249.432 970.883L252.423 970.651L251.843 963.183L247.107 968.986L249.432 970.883ZM216.947 969.934L214.566 971.758L214.573 971.768L216.947 969.934ZM249.115 961.443L251.785 962.812L252.115 962.168V961.443H249.115ZM249.115 935.234H252.115V934.473L251.752 933.804L249.115 935.234ZM213.725 947.996C213.725 939.71 215.684 933.391 219.311 928.75L214.583 925.055C209.914 931.031 207.725 938.775 207.725 947.996H213.725ZM219.317 928.742C222.902 924.124 227.462 921.887 233.242 921.887V915.887C225.593 915.887 219.289 918.993 214.578 925.063L219.317 928.742ZM233.242 921.887C239.154 921.887 243.569 923.867 246.834 927.69L251.397 923.794C246.857 918.477 240.69 915.887 233.242 915.887V921.887ZM252.115 925.742V896H246.115V925.742H252.115ZM249.115 899H258.871V893H249.115V899ZM255.871 896V977H261.871V896H255.871ZM258.871 974H249.906V980H258.871V974ZM252.897 976.768L252.423 970.651L246.441 971.115L246.915 977.232L252.897 976.768ZM247.107 968.986C243.852 972.974 239.327 975.055 233.137 975.055V981.055C240.869 981.055 247.206 978.354 251.756 972.78L247.107 968.986ZM233.137 975.055C227.494 975.055 222.96 972.808 219.321 968.099L214.573 971.768C219.302 977.887 225.561 981.055 233.137 981.055V975.055ZM219.329 968.109C215.681 963.349 213.725 956.979 213.725 948.734H207.725C207.725 957.927 209.916 965.69 214.566 971.758L219.329 968.109ZM213.725 948.734V947.996H207.725V948.734H213.725ZM217.48 949.104C217.48 955.945 218.889 961.713 222.066 966.061L226.91 962.521C224.744 959.557 223.48 955.199 223.48 949.104H217.48ZM222.066 966.061C225.329 970.526 229.94 972.775 235.562 972.775V966.775C231.764 966.775 228.991 965.368 226.91 962.521L222.066 966.061ZM235.562 972.775C239.117 972.775 242.357 971.973 245.162 970.248C247.966 968.524 250.155 965.991 251.785 962.812L246.446 960.075C245.227 962.451 243.734 964.083 242.02 965.137C240.308 966.189 238.195 966.775 235.562 966.775V972.775ZM252.115 961.443V935.234H246.115V961.443H252.115ZM251.752 933.804C250.082 930.724 247.883 928.275 245.108 926.611C242.332 924.945 239.149 924.166 235.668 924.166V930.166C238.234 930.166 240.316 930.732 242.021 931.756C243.729 932.78 245.231 934.366 246.478 936.665L251.752 933.804ZM235.668 924.166C229.98 924.166 225.326 926.429 222.058 930.944L226.918 934.462C228.994 931.594 231.793 930.166 235.668 930.166V924.166ZM222.058 930.944C218.855 935.369 217.48 941.574 217.48 949.104H223.48C223.48 942.149 224.778 937.42 226.918 934.462L222.058 930.944ZM304.275 955.748L302.475 958.148L302.499 958.166L302.524 958.183L304.275 955.748ZM293.887 951.951L293.258 954.885L293.262 954.885L293.887 951.951ZM282.127 948.154L280.759 950.824L280.766 950.828L280.772 950.831L282.127 948.154ZM275.693 942.881L273.204 944.555L273.214 944.57L273.224 944.584L275.693 942.881ZM279.543 923.738L277.649 921.412L277.639 921.42L279.543 923.738ZM310.445 923.896L308.525 926.201L308.535 926.209L310.445 923.896ZM316.51 936.711V939.711H319.51V936.711H316.51ZM306.701 936.711H303.701V939.711H306.701V936.711ZM303.273 929.803L301.318 932.078L301.327 932.085L301.336 932.093L303.273 929.803ZM296.26 944.041L295.602 946.968L295.607 946.969L296.26 944.041ZM314.822 953.428L312.332 955.101L312.348 955.125L312.365 955.148L314.822 953.428ZM310.92 973.467L312.72 975.867L312.727 975.862L312.733 975.857L310.92 973.467ZM274.639 968.879L272.152 970.557L272.163 970.574L272.175 970.591L274.639 968.879ZM271.686 959.439V956.439H268.686V959.439H271.686ZM281.441 959.439L284.437 959.278L284.284 956.439H281.441V959.439ZM285.344 967.244L283.474 969.59L283.492 969.605L283.511 969.619L285.344 967.244ZM303.906 967.877L305.57 970.373L305.579 970.367L303.906 967.877ZM310.281 961.865C310.281 958.34 308.875 955.361 306.027 953.313L302.524 958.183C303.683 959.018 304.281 960.117 304.281 961.865H310.281ZM306.075 953.348C303.552 951.455 299.537 950.086 294.511 949.017L293.262 954.885C298.151 955.926 301.061 957.088 302.475 958.148L306.075 953.348ZM294.515 949.018C289.726 947.991 286.081 946.793 283.481 945.477L280.772 950.831C284.009 952.469 288.204 953.802 293.258 954.885L294.515 949.018ZM283.495 945.484C280.922 944.166 279.214 942.702 278.163 941.178L273.224 944.584C274.985 947.138 277.566 949.189 280.759 950.824L283.495 945.484ZM278.183 941.207C277.191 939.732 276.637 937.909 276.637 935.604H270.637C270.637 938.923 271.454 941.952 273.204 944.555L278.183 941.207ZM276.637 935.604C276.637 931.913 278.133 928.779 281.447 926.056L277.639 921.42C273.078 925.166 270.637 929.942 270.637 935.604H276.637ZM281.437 926.065C284.773 923.349 289.124 921.887 294.73 921.887V915.887C288.032 915.887 282.259 917.659 277.649 921.412L281.437 926.065ZM294.73 921.887C300.671 921.887 305.176 923.41 308.525 926.201L312.366 921.592C307.699 917.703 301.727 915.887 294.73 915.887V921.887ZM308.535 926.209C311.894 928.985 313.51 932.411 313.51 936.711H319.51C319.51 930.605 317.083 925.488 312.356 921.584L308.535 926.209ZM316.51 933.711H306.701V939.711H316.51V933.711ZM309.701 936.711C309.701 933.044 308.079 929.939 305.211 927.513L301.336 932.093C303.038 933.534 303.701 935.034 303.701 936.711H309.701ZM305.229 927.527C302.348 925.052 298.771 923.902 294.73 923.902V929.902C297.581 929.902 299.698 930.686 301.318 932.078L305.229 927.527ZM294.73 923.902C290.778 923.902 287.269 924.761 284.565 926.848L288.232 931.597C289.535 930.591 291.582 929.902 294.73 929.902V923.902ZM284.565 926.848C281.838 928.953 280.393 931.846 280.393 935.287H286.393C286.393 933.736 286.951 932.586 288.232 931.597L284.565 926.848ZM280.393 935.287C280.393 938.586 281.78 941.35 284.568 943.138L287.807 938.088C286.868 937.486 286.393 936.699 286.393 935.287H280.393ZM284.568 943.138C286.913 944.643 290.728 945.873 295.602 946.968L296.917 941.114C292.088 940.029 289.189 938.975 287.807 938.088L284.568 943.138ZM295.607 946.969C300.357 948.029 304.056 949.263 306.783 950.627L309.467 945.26C306.147 943.6 301.936 942.233 296.913 941.113L295.607 946.969ZM306.783 950.627C309.482 951.976 311.256 953.5 312.332 955.101L317.312 951.754C315.506 949.067 312.815 946.934 309.467 945.26L306.783 950.627ZM312.365 955.148C313.426 956.664 314.037 958.618 314.037 961.18H320.037C320.037 957.624 319.172 954.41 317.28 951.707L312.365 955.148ZM314.037 961.18C314.037 965.334 312.441 968.547 309.107 971.077L312.733 975.857C317.555 972.199 320.037 967.22 320.037 961.18H314.037ZM309.12 971.067C305.689 973.64 301.082 975.055 295.047 975.055V981.055C302.019 981.055 307.995 979.411 312.72 975.867L309.12 971.067ZM295.047 975.055C290.832 975.055 287.229 974.31 284.172 972.903L281.664 978.354C285.638 980.182 290.121 981.055 295.047 981.055V975.055ZM284.172 972.903C281.091 971.486 278.77 969.566 277.102 967.167L272.175 970.591C274.515 973.958 277.713 976.537 281.664 978.354L284.172 972.903ZM277.126 967.201C275.476 964.756 274.686 962.19 274.686 959.439H268.686C268.686 963.439 269.864 967.166 272.152 970.557L277.126 967.201ZM271.686 962.439H281.441V956.439H271.686V962.439ZM278.446 959.601C278.665 963.672 280.337 967.09 283.474 969.59L287.214 964.898C285.499 963.531 284.57 961.746 284.437 959.278L278.446 959.601ZM283.511 969.619C286.632 972.027 290.569 973.092 295.047 973.092V967.092C291.509 967.092 288.977 966.258 287.176 964.869L283.511 969.619ZM295.047 973.092C299.109 973.092 302.706 972.283 305.57 970.373L302.242 965.381C300.677 966.424 298.367 967.092 295.047 967.092V973.092ZM305.579 970.367C308.574 968.355 310.281 965.458 310.281 961.865H304.281C304.281 963.265 303.738 964.376 302.233 965.387L305.579 970.367Z" fill="#FA9B99"/>
<rect x="1343.08" y="1651.7" width="740.069" height="865.33" transform="rotate(-133.433 1343.08 1651.7)" fill="#90EE90"/>
</g>
<defs>
<clipPath id="clip0">
<rect width="1920" height="1080" fill="white"/>
</clipPath>
</defs>
</svg>
