<svg width="160" height="86" viewBox="0 0 160 86" fill="none" xmlns="http://www.w3.org/2000/svg">
<path d="M30.5352 46.7754C21.8516 44.2793 15.5234 41.2207 11.5508 37.5996C7.61328 33.9434 5.64453 29.4434 5.64453 24.0996C5.64453 18.0527 8.05273 13.0605 12.8691 9.12305C17.7207 5.15039 24.0137 3.16406 31.748 3.16406C37.0215 3.16406 41.7148 4.18359 45.8281 6.22266C49.9766 8.26172 53.1758 11.0742 55.4258 14.6602C57.7109 18.2461 58.8535 22.166 58.8535 26.4199H48.6758C48.6758 21.7793 47.1992 18.1406 44.2461 15.5039C41.293 12.832 37.127 11.4961 31.748 11.4961C26.7559 11.4961 22.8535 12.6035 20.041 14.8184C17.2637 16.998 15.875 20.0391 15.875 23.9414C15.875 27.0703 17.1934 29.7246 19.8301 31.9043C22.502 34.0488 27.0195 36.0176 33.3828 37.8105C39.7812 39.6035 44.7734 41.5898 48.3594 43.7695C51.9805 45.9141 54.6523 48.4277 56.375 51.3105C58.1328 54.1934 59.0117 57.5859 59.0117 61.4883C59.0117 67.7109 56.5859 72.7031 51.7344 76.4648C46.8828 80.1914 40.3965 82.0547 32.2754 82.0547C27.002 82.0547 22.0801 81.0527 17.5098 79.0488C12.9395 77.0098 9.40625 74.2324 6.91016 70.7168C4.44922 67.2012 3.21875 63.2109 3.21875 58.7461H13.3965C13.3965 63.3867 15.1016 67.0605 18.5117 69.7676C21.957 72.4395 26.5449 73.7754 32.2754 73.7754C37.6191 73.7754 41.7148 72.6855 44.5625 70.5059C47.4102 68.3262 48.834 65.3555 48.834 61.5938C48.834 57.832 47.5156 54.9316 44.8789 52.8926C42.2422 50.8184 37.4609 48.7793 30.5352 46.7754ZM82.9004 81H72.7754V4.21875H82.9004V81ZM111.588 50.9414V81H101.463V4.21875H129.781C138.184 4.21875 144.758 6.36328 149.504 10.6523C154.285 14.9414 156.676 20.6191 156.676 27.6855C156.676 35.1387 154.338 40.8867 149.662 44.9297C145.021 48.9375 138.359 50.9414 129.676 50.9414H111.588ZM111.588 42.6621H129.781C135.195 42.6621 139.344 41.3965 142.227 38.8652C145.109 36.2988 146.551 32.6074 146.551 27.791C146.551 23.2207 145.109 19.5645 142.227 16.8223C139.344 14.0801 135.389 12.6562 130.361 12.5508H111.588V42.6621Z" fill="#FA9B99"/>
<path d="M30.5352 46.7754L31.369 43.8936L31.3639 43.8921L30.5352 46.7754ZM11.5508 37.5996L9.50943 39.798L9.51959 39.8074L9.52983 39.8168L11.5508 37.5996ZM12.8691 9.12305L14.7679 11.4457L14.7698 11.4442L12.8691 9.12305ZM45.8281 6.22266L44.4957 8.91053L44.5048 8.915L45.8281 6.22266ZM55.4258 14.6602L52.8846 16.2546L52.8902 16.2635L52.8958 16.2724L55.4258 14.6602ZM58.8535 26.4199V29.4199H61.8535V26.4199H58.8535ZM48.6758 26.4199H45.6758V29.4199H48.6758V26.4199ZM44.2461 15.5039L42.2334 17.7285L42.2407 17.7351L42.248 17.7417L44.2461 15.5039ZM20.041 14.8184L21.8932 17.1784L21.8971 17.1753L20.041 14.8184ZM19.8301 31.9043L17.9186 34.2165L17.9353 34.2303L17.9522 34.2439L19.8301 31.9043ZM33.3828 37.8105L32.5692 40.6981L32.5733 40.6993L33.3828 37.8105ZM48.3594 43.7695L46.8011 46.3331L46.8158 46.342L46.8307 46.3508L48.3594 43.7695ZM56.375 51.3105L53.7998 52.8494L53.8066 52.8609L53.8136 52.8724L56.375 51.3105ZM51.7344 76.4648L53.5619 78.844L53.5726 78.8357L51.7344 76.4648ZM17.5098 79.0488L16.2874 81.7885L16.2963 81.7925L16.3051 81.7963L17.5098 79.0488ZM6.91016 70.7168L4.45246 72.4372L4.45821 72.4454L4.46401 72.4536L6.91016 70.7168ZM3.21875 58.7461V55.7461H0.21875V58.7461H3.21875ZM13.3965 58.7461H16.3965V55.7461H13.3965V58.7461ZM18.5117 69.7676L16.6465 72.1173L16.6598 72.1278L16.6732 72.1382L18.5117 69.7676ZM44.8789 52.8926L43.0241 55.2504L43.0338 55.2581L43.0437 55.2657L44.8789 52.8926ZM31.3639 43.8921C22.86 41.4477 17.0464 38.5496 13.5717 35.3825L9.52983 39.8168C14.0005 43.8918 20.8431 47.1109 29.7064 49.6586L31.3639 43.8921ZM13.5921 35.4012C10.2621 32.309 8.64453 28.6039 8.64453 24.0996H2.64453C2.64453 30.2828 4.96447 35.5777 9.50943 39.798L13.5921 35.4012ZM8.64453 24.0996C8.64453 18.9825 10.6252 14.8324 14.7679 11.4457L10.9704 6.80042C5.48022 11.2887 2.64453 17.1229 2.64453 24.0996H8.64453ZM14.7698 11.4442C18.969 8.00567 24.5399 6.16406 31.748 6.16406V0.164062C23.4875 0.164062 16.4724 2.29511 10.9685 6.80192L14.7698 11.4442ZM31.748 6.16406C36.6281 6.16406 40.8542 7.10532 44.4957 8.91052L47.1606 3.5348C42.5755 1.26187 37.4149 0.164062 31.748 0.164062V6.16406ZM44.5048 8.915C48.2008 10.7317 50.9577 13.1836 52.8846 16.2546L57.967 13.0657C55.3939 8.9648 51.7523 5.79175 47.1515 3.53031L44.5048 8.915ZM52.8958 16.2724C54.8739 19.3764 55.8535 22.737 55.8535 26.4199H61.8535C61.8535 21.5951 60.548 17.1158 57.9557 13.0479L52.8958 16.2724ZM58.8535 23.4199H48.6758V29.4199H58.8535V23.4199ZM51.6758 26.4199C51.6758 21.0863 49.9461 16.5714 46.2441 13.2661L42.248 17.7417C44.4523 19.7098 45.6758 22.4723 45.6758 26.4199H51.6758ZM46.2588 13.2793C42.5853 9.95567 37.6065 8.49609 31.748 8.49609V14.4961C36.6474 14.4961 40.0006 15.7084 42.2334 17.7285L46.2588 13.2793ZM31.748 8.49609C26.3437 8.49609 21.7004 9.69305 18.1849 12.4615L21.8971 17.1753C24.0066 15.514 27.1681 14.4961 31.748 14.4961V8.49609ZM18.1889 12.4584C14.6039 15.2719 12.875 19.2288 12.875 23.9414H18.875C18.875 20.8493 19.9234 18.7242 21.8932 17.1784L18.1889 12.4584ZM12.875 23.9414C12.875 28.0555 14.6656 31.5274 17.9186 34.2165L21.7415 29.5921C19.7211 27.9219 18.875 26.0851 18.875 23.9414H12.875ZM17.9522 34.2439C21.1112 36.7793 26.1114 38.8785 32.5692 40.6981L34.1964 34.923C27.9276 33.1566 23.8928 31.3183 21.7079 29.5647L17.9522 34.2439ZM32.5733 40.6993C38.8427 42.4561 43.5437 44.3531 46.8011 46.3331L49.9176 41.206C46.0032 38.8266 40.7198 36.751 34.1923 34.9218L32.5733 40.6993ZM46.8307 46.3508C50.1285 48.3039 52.3906 50.4912 53.7998 52.8494L58.9502 49.7717C56.9141 46.3642 53.8325 43.5242 49.8881 41.1883L46.8307 46.3508ZM53.8136 52.8724C55.2423 55.2154 56.0117 58.0496 56.0117 61.4883H62.0117C62.0117 57.1223 61.0234 53.1713 58.9364 49.7487L53.8136 52.8724ZM56.0117 61.4883C56.0117 66.7984 54.0032 70.9095 49.8961 74.094L53.5726 78.8357C59.1687 74.4967 62.0117 68.6235 62.0117 61.4883H56.0117ZM49.9069 74.0857C45.7282 77.2954 39.9515 79.0547 32.2754 79.0547V85.0547C40.8415 85.0547 48.0374 83.0874 53.5618 78.844L49.9069 74.0857ZM32.2754 79.0547C27.3927 79.0547 22.8836 78.1294 18.7144 76.3013L16.3051 81.7963C21.2765 83.9761 26.6112 85.0547 32.2754 85.0547V79.0547ZM18.7321 76.3091C14.5723 74.4532 11.4946 71.9917 9.35631 68.98L4.46401 72.4536C7.31793 76.4732 11.3066 79.5663 16.2874 81.7885L18.7321 76.3091ZM9.36785 68.9964C7.27476 66.0063 6.21875 62.6219 6.21875 58.7461H0.21875C0.21875 63.8 1.62368 68.3961 4.45246 72.4372L9.36785 68.9964ZM3.21875 61.7461H13.3965V55.7461H3.21875V61.7461ZM10.3965 58.7461C10.3965 64.2326 12.4668 68.7993 16.6465 72.1173L20.3769 67.4179C17.7364 65.3218 16.3965 62.5408 16.3965 58.7461H10.3965ZM16.6732 72.1382C20.7892 75.3302 26.0889 76.7754 32.2754 76.7754V70.7754C27.0009 70.7754 23.1248 69.5487 20.3502 67.3969L16.6732 72.1382ZM32.2754 76.7754C37.9697 76.7754 42.8136 75.6224 46.3859 72.8881L42.7391 68.1236C40.616 69.7486 37.2686 70.7754 32.2754 70.7754V76.7754ZM46.3859 72.8881C50.0165 70.1091 51.834 66.2361 51.834 61.5938H45.834C45.834 64.4748 44.8038 66.5432 42.7391 68.1236L46.3859 72.8881ZM51.834 61.5938C51.834 57.0394 50.1868 53.2049 46.7141 50.5194L43.0437 55.2657C44.8444 56.6583 45.834 58.6247 45.834 61.5938H51.834ZM46.7338 50.5347C43.6078 48.0756 38.3374 45.9098 31.369 43.8936L29.7013 49.6572C36.5845 51.6488 40.8766 53.5611 43.0241 55.2504L46.7338 50.5347ZM82.9004 81V84H85.9004V81H82.9004ZM72.7754 81H69.7754V84H72.7754V81ZM72.7754 4.21875V1.21875H69.7754V4.21875H72.7754ZM82.9004 4.21875H85.9004V1.21875H82.9004V4.21875ZM82.9004 78H72.7754V84H82.9004V78ZM75.7754 81V4.21875H69.7754V81H75.7754ZM72.7754 7.21875H82.9004V1.21875H72.7754V7.21875ZM79.9004 4.21875V81H85.9004V4.21875H79.9004ZM111.588 50.9414V47.9414H108.588V50.9414H111.588ZM111.588 81V84H114.588V81H111.588ZM101.463 81H98.4629V84H101.463V81ZM101.463 4.21875V1.21875H98.4629V4.21875H101.463ZM149.504 10.6523L147.492 12.8781L147.501 12.8855L149.504 10.6523ZM149.662 44.9297L151.623 47.2002L151.624 47.199L149.662 44.9297ZM111.588 42.6621H108.588V45.6621H111.588V42.6621ZM142.227 38.8652L144.206 41.1196L144.214 41.1128L144.221 41.106L142.227 38.8652ZM130.361 12.5508L130.424 9.55144L130.393 9.55078H130.361V12.5508ZM111.588 12.5508V9.55078H108.588V12.5508H111.588ZM108.588 50.9414V81H114.588V50.9414H108.588ZM111.588 78H101.463V84H111.588V78ZM104.463 81V4.21875H98.4629V81H104.463ZM101.463 7.21875H129.781V1.21875H101.463V7.21875ZM129.781 7.21875C137.679 7.21875 143.452 9.22693 147.492 12.8781L151.515 8.42657C146.063 3.49963 138.688 1.21875 129.781 1.21875V7.21875ZM147.501 12.8855C151.58 16.5448 153.676 21.3759 153.676 27.6855H159.676C159.676 19.8624 156.99 13.3381 151.507 8.4192L147.501 12.8855ZM153.676 27.6855C153.676 34.4636 151.581 39.3041 147.7 42.6604L151.624 47.199C157.094 42.4693 159.676 35.8137 159.676 27.6855H153.676ZM147.701 42.6592C143.794 46.0334 137.936 47.9414 129.676 47.9414V53.9414C138.783 53.9414 146.249 51.8416 151.623 47.2002L147.701 42.6592ZM129.676 47.9414H111.588V53.9414H129.676V47.9414ZM111.588 45.6621H129.781V39.6621H111.588V45.6621ZM129.781 45.6621C135.626 45.6621 140.587 44.2969 144.206 41.1196L140.247 36.6109C138.1 38.4961 134.764 39.6621 129.781 39.6621V45.6621ZM144.221 41.106C147.896 37.8342 149.551 33.235 149.551 27.791H143.551C143.551 31.9799 142.322 34.7635 140.232 36.6245L144.221 41.106ZM149.551 27.791C149.551 22.5326 147.863 18.043 144.294 14.6486L140.159 18.9959C142.356 21.0859 143.551 23.9088 143.551 27.791H149.551ZM144.294 14.6486C140.737 11.2653 135.995 9.6683 130.424 9.55144L130.298 15.5501C134.783 15.6442 137.95 16.8949 140.159 18.9959L144.294 14.6486ZM130.361 9.55078H111.588V15.5508H130.361V9.55078ZM108.588 12.5508V42.6621H114.588V12.5508H108.588Z" fill="white"/>
</svg>
