<svg width="1918" height="1080" viewBox="0 0 1918 1080" fill="none" xmlns="http://www.w3.org/2000/svg">
<g clip-path="url(#clip0)">
<rect width="1920" height="1080" fill="white"/>
<rect x="1387.65" y="-569.885" width="1180.88" height="1468.55" transform="rotate(45.3446 1387.65 -569.885)" fill="#FA9B99"/>
<path d="M49.9121 968V891.219H75.0137C83.3457 891.219 89.6035 892.941 93.7871 896.387C98.0059 899.832 100.115 904.93 100.115 911.68C100.115 915.266 99.0957 918.447 97.0566 921.225C95.0176 923.967 92.2402 926.094 88.7246 927.605C92.873 928.766 96.1426 930.98 98.5332 934.25C100.959 937.484 102.172 941.352 102.172 945.852C102.172 952.742 99.9395 958.156 95.4746 962.094C91.0098 966.031 84.6992 968 76.543 968H49.9121ZM60.0371 932.088V959.721H76.7539C81.4648 959.721 85.1738 958.508 87.8809 956.082C90.623 953.621 91.9941 950.246 91.9941 945.957C91.9941 936.711 86.9668 932.088 76.9121 932.088H60.0371ZM60.0371 923.967H75.3301C79.7598 923.967 83.293 922.859 85.9297 920.645C88.6016 918.43 89.9375 915.424 89.9375 911.627C89.9375 907.408 88.707 904.35 86.2461 902.451C83.7852 900.518 80.041 899.551 75.0137 899.551H60.0371V923.967ZM150.898 968C150.336 966.875 149.879 964.871 149.527 961.988C144.992 966.699 139.578 969.055 133.285 969.055C127.66 969.055 123.037 967.473 119.416 964.309C115.83 961.109 114.037 957.066 114.037 952.18C114.037 946.238 116.287 941.633 120.787 938.363C125.322 935.059 131.686 933.406 139.877 933.406H149.369V928.924C149.369 925.514 148.35 922.807 146.311 920.803C144.271 918.764 141.266 917.744 137.293 917.744C133.812 917.744 130.895 918.623 128.539 920.381C126.184 922.139 125.006 924.266 125.006 926.762H115.197C115.197 923.914 116.199 921.172 118.203 918.535C120.242 915.863 122.984 913.754 126.43 912.207C129.91 910.66 133.725 909.887 137.873 909.887C144.447 909.887 149.598 911.539 153.324 914.844C157.051 918.113 158.984 922.631 159.125 928.396V954.658C159.125 959.896 159.793 964.062 161.129 967.156V968H150.898ZM134.709 960.564C137.768 960.564 140.668 959.773 143.41 958.191C146.152 956.609 148.139 954.553 149.369 952.021V940.314H141.723C129.77 940.314 123.793 943.812 123.793 950.809C123.793 953.867 124.812 956.258 126.852 957.98C128.891 959.703 131.51 960.564 134.709 960.564ZM183.646 910.941L183.963 918.113C188.322 912.629 194.018 909.887 201.049 909.887C213.107 909.887 219.189 916.689 219.295 930.295V968H209.539V930.242C209.504 926.129 208.555 923.088 206.691 921.119C204.863 919.15 201.998 918.166 198.096 918.166C194.932 918.166 192.154 919.01 189.764 920.697C187.373 922.385 185.51 924.6 184.174 927.342V968H174.418V910.941H183.646ZM249.934 941.58L243.816 947.961V968H234.061V887H243.816V935.99L249.037 929.715L266.809 910.941H278.674L256.473 934.777L281.258 968H269.814L249.934 941.58ZM299.346 968H289.59V910.941H299.346V968ZM288.799 895.807C288.799 894.225 289.273 892.889 290.223 891.799C291.207 890.709 292.648 890.164 294.547 890.164C296.445 890.164 297.887 890.709 298.871 891.799C299.855 892.889 300.348 894.225 300.348 895.807C300.348 897.389 299.855 898.707 298.871 899.762C297.887 900.816 296.445 901.344 294.547 901.344C292.648 901.344 291.207 900.816 290.223 899.762C289.273 898.707 288.799 897.389 288.799 895.807ZM324.236 910.941L324.553 918.113C328.912 912.629 334.607 909.887 341.639 909.887C353.697 909.887 359.779 916.689 359.885 930.295V968H350.129V930.242C350.094 926.129 349.145 923.088 347.281 921.119C345.453 919.15 342.588 918.166 338.686 918.166C335.521 918.166 332.744 919.01 330.354 920.697C327.963 922.385 326.1 924.6 324.764 927.342V968H315.008V910.941H324.236ZM372.277 938.996C372.277 930.102 374.334 923.035 378.447 917.797C382.561 912.523 388.01 909.887 394.795 909.887C401.756 909.887 407.188 912.348 411.09 917.27L411.564 910.941H420.477V966.629C420.477 974.012 418.279 979.83 413.885 984.084C409.525 988.338 403.654 990.465 396.271 990.465C392.158 990.465 388.133 989.586 384.195 987.828C380.258 986.07 377.252 983.662 375.178 980.604L380.24 974.75C384.424 979.918 389.539 982.502 395.586 982.502C400.332 982.502 404.023 981.166 406.66 978.494C409.332 975.822 410.668 972.061 410.668 967.209V962.305C406.766 966.805 401.439 969.055 394.689 969.055C388.01 969.055 382.596 966.365 378.447 960.986C374.334 955.607 372.277 948.277 372.277 938.996ZM382.086 940.104C382.086 946.537 383.404 951.6 386.041 955.291C388.678 958.947 392.369 960.775 397.115 960.775C403.268 960.775 407.785 957.98 410.668 952.391V926.34C407.68 920.891 403.197 918.166 397.221 918.166C392.475 918.166 388.766 920.012 386.094 923.703C383.422 927.395 382.086 932.861 382.086 940.104Z" fill="white"/>
<path d="M49.9121 968H46.9121V971H49.9121V968ZM49.9121 891.219V888.219H46.9121V891.219H49.9121ZM93.7871 896.387L91.88 898.703L91.8895 898.71L93.7871 896.387ZM97.0566 921.225L99.464 923.015L99.4695 923.007L99.4749 923L97.0566 921.225ZM88.7246 927.605L87.5395 924.849L79.7334 928.206L87.9166 930.495L88.7246 927.605ZM98.5332 934.25L96.1115 936.021L96.1223 936.035L96.1332 936.05L98.5332 934.25ZM60.0371 932.088V929.088H57.0371V932.088H60.0371ZM60.0371 959.721H57.0371V962.721H60.0371V959.721ZM87.8809 956.082L89.8829 958.316L89.8846 958.315L87.8809 956.082ZM60.0371 923.967H57.0371V926.967H60.0371V923.967ZM85.9297 920.645L84.0151 918.335L84.0076 918.341L84.0001 918.347L85.9297 920.645ZM86.2461 902.451L84.3926 904.81L84.4031 904.818L84.4137 904.827L86.2461 902.451ZM60.0371 899.551V896.551H57.0371V899.551H60.0371ZM52.9121 968V891.219H46.9121V968H52.9121ZM49.9121 894.219H75.0137V888.219H49.9121V894.219ZM75.0137 894.219C83.0059 894.219 88.4558 895.883 91.88 898.703L95.6942 894.071C90.7513 890 83.6855 888.219 75.0137 888.219V894.219ZM91.8895 898.71C95.2463 901.452 97.1152 905.594 97.1152 911.68H103.115C103.115 904.265 100.765 898.212 95.6847 894.063L91.8895 898.71ZM97.1152 911.68C97.1152 914.655 96.2834 917.209 94.6384 919.449L99.4749 923C101.908 919.686 103.115 915.876 103.115 911.68H97.1152ZM94.6493 919.435C92.962 921.704 90.6293 923.521 87.5395 924.849L89.9097 930.361C93.8512 928.667 97.0732 926.23 99.464 923.015L94.6493 919.435ZM87.9166 930.495C91.4611 931.486 94.1443 933.33 96.1115 936.021L100.955 932.479C98.1408 928.631 94.285 926.045 89.5326 924.716L87.9166 930.495ZM96.1332 936.05C98.1256 938.707 99.1719 941.923 99.1719 945.852H105.172C105.172 940.78 103.792 936.262 100.933 932.45L96.1332 936.05ZM99.1719 945.852C99.1719 952.031 97.2049 956.568 93.4903 959.844L97.4589 964.344C102.674 959.745 105.172 953.453 105.172 945.852H99.1719ZM93.4903 959.844C89.7477 963.144 84.2401 965 76.543 965V971C85.1583 971 92.2718 968.918 97.4589 964.344L93.4903 959.844ZM76.543 965H49.9121V971H76.543V965ZM57.0371 932.088V959.721H63.0371V932.088H57.0371ZM60.0371 962.721H76.7539V956.721H60.0371V962.721ZM76.7539 962.721C81.9792 962.721 86.4786 961.367 89.8829 958.316L85.8788 953.848C83.869 955.649 80.9505 956.721 76.7539 956.721V962.721ZM89.8846 958.315C93.3669 955.19 94.9941 950.944 94.9941 945.957H88.9941C88.9941 949.548 87.8792 952.053 85.8771 953.849L89.8846 958.315ZM94.9941 945.957C94.9941 940.804 93.5815 936.407 90.2543 933.347C86.9746 930.331 82.3424 929.088 76.9121 929.088V935.088C81.5365 935.088 84.4453 936.156 86.193 937.763C87.8931 939.327 88.9941 941.864 88.9941 945.957H94.9941ZM76.9121 929.088H60.0371V935.088H76.9121V929.088ZM60.0371 926.967H75.3301V920.967H60.0371V926.967ZM75.3301 926.967C80.2594 926.967 84.5428 925.727 87.8593 922.942L84.0001 918.347C82.0431 919.991 79.2601 920.967 75.3301 920.967V926.967ZM87.8443 922.954C91.2739 920.111 92.9375 916.222 92.9375 911.627H86.9375C86.9375 914.626 85.9293 916.748 84.0151 918.335L87.8443 922.954ZM92.9375 911.627C92.9375 906.835 91.5181 902.729 88.0785 900.076L84.4137 904.827C85.8959 905.97 86.9375 907.982 86.9375 911.627H92.9375ZM88.0996 900.092C84.8741 897.558 80.3343 896.551 75.0137 896.551V902.551C79.7477 902.551 82.6962 903.477 84.3926 904.81L88.0996 900.092ZM75.0137 896.551H60.0371V902.551H75.0137V896.551ZM57.0371 899.551V923.967H63.0371V899.551H57.0371ZM150.898 968L148.215 969.342L149.044 971H150.898V968ZM149.527 961.988L152.505 961.625L151.742 955.363L147.366 959.908L149.527 961.988ZM119.416 964.309L117.419 966.547L117.43 966.557L117.442 966.568L119.416 964.309ZM120.787 938.363L122.55 940.79L122.554 940.788L120.787 938.363ZM149.369 933.406V936.406H152.369V933.406H149.369ZM146.311 920.803L144.189 922.924L144.198 922.933L144.208 922.942L146.311 920.803ZM125.006 926.762V929.762H128.006V926.762H125.006ZM115.197 926.762H112.197V929.762H115.197V926.762ZM118.203 918.535L115.818 916.715L115.815 916.72L118.203 918.535ZM126.43 912.207L125.211 909.466L125.201 909.47L126.43 912.207ZM153.324 914.844L151.334 917.088L151.34 917.094L151.346 917.099L153.324 914.844ZM159.125 928.396H162.125V928.36L162.124 928.323L159.125 928.396ZM161.129 967.156H164.129V966.536L163.883 965.967L161.129 967.156ZM161.129 968V971H164.129V968H161.129ZM149.369 952.021L152.067 953.333L152.369 952.712V952.021H149.369ZM149.369 940.314H152.369V937.314H149.369V940.314ZM153.582 966.658C153.272 966.039 152.855 964.496 152.505 961.625L146.549 962.351C146.902 965.246 147.4 967.711 148.215 969.342L153.582 966.658ZM147.366 959.908C143.372 964.057 138.728 966.055 133.285 966.055V972.055C140.429 972.055 146.613 969.341 151.689 964.069L147.366 959.908ZM133.285 966.055C128.256 966.055 124.374 964.657 121.39 962.05L117.442 966.568C121.701 970.289 127.065 972.055 133.285 972.055V966.055ZM121.413 962.07C118.477 959.451 117.037 956.228 117.037 952.18H111.037C111.037 957.905 113.183 962.768 117.419 966.547L121.413 962.07ZM117.037 952.18C117.037 947.122 118.887 943.452 122.55 940.79L119.024 935.936C113.687 939.814 111.037 945.355 111.037 952.18H117.037ZM122.554 940.788C126.389 937.994 132.041 936.406 139.877 936.406V930.406C131.33 930.406 124.256 932.124 119.02 935.939L122.554 940.788ZM139.877 936.406H149.369V930.406H139.877V936.406ZM152.369 933.406V928.924H146.369V933.406H152.369ZM152.369 928.924C152.369 924.876 151.135 921.338 148.413 918.663L144.208 922.942C145.564 924.275 146.369 926.152 146.369 928.924H152.369ZM148.432 918.681C145.645 915.895 141.755 914.744 137.293 914.744V920.744C140.777 920.744 142.898 921.633 144.189 922.924L148.432 918.681ZM137.293 914.744C133.289 914.744 129.709 915.764 126.745 917.977L130.333 922.785C132.08 921.482 134.336 920.744 137.293 920.744V914.744ZM126.745 917.977C123.783 920.187 122.006 923.144 122.006 926.762H128.006C128.006 925.388 128.584 924.09 130.333 922.785L126.745 917.977ZM125.006 923.762H115.197V929.762H125.006V923.762ZM118.197 926.762C118.197 924.673 118.917 922.554 120.592 920.35L115.815 916.72C113.481 919.79 112.197 923.155 112.197 926.762H118.197ZM120.588 920.355C122.288 918.127 124.612 916.312 127.658 914.944L125.201 909.47C121.357 911.196 118.196 913.599 115.818 916.715L120.588 920.355ZM127.648 914.948C130.712 913.587 134.107 912.887 137.873 912.887V906.887C133.343 906.887 129.108 907.734 125.211 909.466L127.648 914.948ZM137.873 912.887C143.953 912.887 148.312 914.408 151.334 917.088L155.315 912.599C150.884 908.67 144.942 906.887 137.873 906.887V912.887ZM151.346 917.099C154.338 919.724 156.002 923.392 156.126 928.47L162.124 928.323C161.967 921.87 159.764 916.503 155.303 912.589L151.346 917.099ZM156.125 928.396V954.658H162.125V928.396H156.125ZM156.125 954.658C156.125 960.103 156.812 964.726 158.375 968.346L163.883 965.967C162.774 963.399 162.125 959.69 162.125 954.658H156.125ZM158.129 967.156V968H164.129V967.156H158.129ZM161.129 965H150.898V971H161.129V965ZM134.709 963.564C138.313 963.564 141.728 962.625 144.909 960.79L141.911 955.593C139.608 956.922 137.222 957.564 134.709 957.564V963.564ZM144.909 960.79C148.104 958.947 150.543 956.469 152.067 953.333L146.671 950.71C145.735 952.636 144.201 954.272 141.911 955.593L144.909 960.79ZM152.369 952.021V940.314H146.369V952.021H152.369ZM149.369 937.314H141.723V943.314H149.369V937.314ZM141.723 937.314C135.552 937.314 130.431 938.2 126.76 940.349C122.841 942.643 120.793 946.259 120.793 950.809H126.793C126.793 948.362 127.734 946.731 129.791 945.527C132.096 944.178 135.941 943.314 141.723 943.314V937.314ZM120.793 950.809C120.793 954.607 122.099 957.893 124.916 960.272L128.788 955.689C127.526 954.623 126.793 953.128 126.793 950.809H120.793ZM124.916 960.272C127.599 962.539 130.948 963.564 134.709 963.564V957.564C132.072 957.564 130.183 956.867 128.788 955.689L124.916 960.272ZM183.646 910.941L186.644 910.809L186.517 907.941H183.646V910.941ZM183.963 918.113L180.966 918.246L181.319 926.26L186.311 919.98L183.963 918.113ZM219.295 930.295H222.295V930.283L222.295 930.272L219.295 930.295ZM219.295 968V971H222.295V968H219.295ZM209.539 968H206.539V971H209.539V968ZM209.539 930.242H212.539V930.229L212.539 930.217L209.539 930.242ZM206.691 921.119L204.493 923.16L204.503 923.171L204.513 923.181L206.691 921.119ZM184.174 927.342L181.477 926.028L181.174 926.65V927.342H184.174ZM184.174 968V971H187.174V968H184.174ZM174.418 968H171.418V971H174.418V968ZM174.418 910.941V907.941H171.418V910.941H174.418ZM180.649 911.074L180.966 918.246L186.96 917.981L186.644 910.809L180.649 911.074ZM186.311 919.98C190.099 915.215 194.928 912.887 201.049 912.887V906.887C193.107 906.887 186.545 910.043 181.614 916.247L186.311 919.98ZM201.049 912.887C206.514 912.887 210.114 914.412 212.418 916.988C214.782 919.632 216.245 923.897 216.295 930.318L222.295 930.272C222.239 923.088 220.609 917.148 216.891 912.989C213.113 908.763 207.642 906.887 201.049 906.887V912.887ZM216.295 930.295V968H222.295V930.295H216.295ZM219.295 965H209.539V971H219.295V965ZM212.539 968V930.242H206.539V968H212.539ZM212.539 930.217C212.501 925.727 211.468 921.802 208.87 919.057L204.513 923.181C205.641 924.374 206.507 926.531 206.539 930.268L212.539 930.217ZM208.89 919.078C206.278 916.265 202.45 915.166 198.096 915.166V921.166C201.546 921.166 203.449 922.036 204.493 923.16L208.89 919.078ZM198.096 915.166C194.365 915.166 190.972 916.172 188.034 918.246L191.494 923.148C193.337 921.847 195.498 921.166 198.096 921.166V915.166ZM188.034 918.246C185.212 920.238 183.024 922.851 181.477 926.028L186.871 928.656C187.995 926.348 189.534 924.532 191.494 923.148L188.034 918.246ZM181.174 927.342V968H187.174V927.342H181.174ZM184.174 965H174.418V971H184.174V965ZM177.418 968V910.941H171.418V968H177.418ZM174.418 913.941H183.646V907.941H174.418V913.941ZM249.934 941.58L252.331 939.776L250.209 936.957L247.768 939.504L249.934 941.58ZM243.816 947.961L241.651 945.885L240.816 946.755V947.961H243.816ZM243.816 968V971H246.816V968H243.816ZM234.061 968H231.061V971H234.061V968ZM234.061 887V884H231.061V887H234.061ZM243.816 887H246.816V884H243.816V887ZM243.816 935.99H240.816V944.287L246.123 937.909L243.816 935.99ZM249.037 929.715L246.858 927.652L246.792 927.722L246.731 927.796L249.037 929.715ZM266.809 910.941V907.941H265.518L264.63 908.879L266.809 910.941ZM278.674 910.941L280.869 912.986L285.568 907.941H278.674V910.941ZM256.473 934.777L254.277 932.733L252.571 934.565L254.068 936.571L256.473 934.777ZM281.258 968V971H287.239L283.662 966.206L281.258 968ZM269.814 968L267.417 969.804L268.317 971H269.814V968ZM247.768 939.504L241.651 945.885L245.982 950.037L252.099 943.656L247.768 939.504ZM240.816 947.961V968H246.816V947.961H240.816ZM243.816 965H234.061V971H243.816V965ZM237.061 968V887H231.061V968H237.061ZM234.061 890H243.816V884H234.061V890ZM240.816 887V935.99H246.816V887H240.816ZM246.123 937.909L251.343 931.633L246.731 927.796L241.51 934.072L246.123 937.909ZM251.216 931.777L268.987 913.004L264.63 908.879L246.858 927.652L251.216 931.777ZM266.809 913.941H278.674V907.941H266.809V913.941ZM276.479 908.897L254.277 932.733L258.668 936.822L280.869 912.986L276.479 908.897ZM254.068 936.571L278.853 969.794L283.662 966.206L258.877 932.983L254.068 936.571ZM281.258 965H269.814V971H281.258V965ZM272.212 966.196L252.331 939.776L247.536 943.384L267.417 969.804L272.212 966.196ZM299.346 968V971H302.346V968H299.346ZM289.59 968H286.59V971H289.59V968ZM289.59 910.941V907.941H286.59V910.941H289.59ZM299.346 910.941H302.346V907.941H299.346V910.941ZM290.223 891.799L287.996 889.788L287.978 889.808L287.96 889.828L290.223 891.799ZM290.223 899.762L287.993 901.769L288.011 901.789L288.029 901.809L290.223 899.762ZM299.346 965H289.59V971H299.346V965ZM292.59 968V910.941H286.59V968H292.59ZM289.59 913.941H299.346V907.941H289.59V913.941ZM296.346 910.941V968H302.346V910.941H296.346ZM291.799 895.807C291.799 894.875 292.058 894.26 292.485 893.769L287.96 889.828C286.489 891.518 285.799 893.574 285.799 895.807H291.799ZM292.449 893.81C292.709 893.522 293.233 893.164 294.547 893.164V887.164C292.064 887.164 289.705 887.896 287.996 889.788L292.449 893.81ZM294.547 893.164C295.86 893.164 296.385 893.522 296.645 893.81L301.097 889.788C299.389 887.896 297.03 887.164 294.547 887.164V893.164ZM296.645 893.81C297.091 894.304 297.348 894.905 297.348 895.807H303.348C303.348 893.544 302.62 891.474 301.097 889.788L296.645 893.81ZM297.348 895.807C297.348 896.709 297.092 897.271 296.678 897.715L301.064 901.809C302.619 900.143 303.348 898.069 303.348 895.807H297.348ZM296.678 897.715C296.425 897.986 295.889 898.344 294.547 898.344V904.344C297.001 904.344 299.348 903.647 301.064 901.809L296.678 897.715ZM294.547 898.344C293.204 898.344 292.669 897.986 292.416 897.715L288.029 901.809C289.745 903.647 292.093 904.344 294.547 904.344V898.344ZM292.453 897.755C292.057 897.316 291.799 896.739 291.799 895.807H285.799C285.799 898.038 286.49 900.098 287.993 901.769L292.453 897.755ZM324.236 910.941L327.233 910.809L327.107 907.941H324.236V910.941ZM324.553 918.113L321.556 918.246L321.909 926.26L326.901 919.98L324.553 918.113ZM359.885 930.295H362.885V930.283L362.885 930.272L359.885 930.295ZM359.885 968V971H362.885V968H359.885ZM350.129 968H347.129V971H350.129V968ZM350.129 930.242H353.129V930.229L353.129 930.217L350.129 930.242ZM347.281 921.119L345.083 923.16L345.093 923.171L345.102 923.181L347.281 921.119ZM324.764 927.342L322.067 926.028L321.764 926.65V927.342H324.764ZM324.764 968V971H327.764V968H324.764ZM315.008 968H312.008V971H315.008V968ZM315.008 910.941V907.941H312.008V910.941H315.008ZM321.239 911.074L321.556 918.246L327.55 917.981L327.233 910.809L321.239 911.074ZM326.901 919.98C330.689 915.215 335.518 912.887 341.639 912.887V906.887C333.697 906.887 327.135 910.043 322.204 916.247L326.901 919.98ZM341.639 912.887C347.104 912.887 350.704 914.412 353.008 916.988C355.372 919.632 356.835 923.897 356.885 930.318L362.885 930.272C362.829 923.088 361.199 917.148 357.481 912.989C353.702 908.763 348.232 906.887 341.639 906.887V912.887ZM356.885 930.295V968H362.885V930.295H356.885ZM359.885 965H350.129V971H359.885V965ZM353.129 968V930.242H347.129V968H353.129ZM353.129 930.217C353.09 925.727 352.058 921.802 349.46 919.057L345.102 923.181C346.231 924.374 347.097 926.531 347.129 930.268L353.129 930.217ZM349.48 919.078C346.868 916.265 343.04 915.166 338.686 915.166V921.166C342.136 921.166 344.039 922.036 345.083 923.16L349.48 919.078ZM338.686 915.166C334.955 915.166 331.562 916.172 328.623 918.246L332.084 923.148C333.926 921.847 336.088 921.166 338.686 921.166V915.166ZM328.623 918.246C325.802 920.238 323.614 922.851 322.067 926.028L327.461 928.656C328.585 926.348 330.124 924.532 332.084 923.148L328.623 918.246ZM321.764 927.342V968H327.764V927.342H321.764ZM324.764 965H315.008V971H324.764V965ZM318.008 968V910.941H312.008V968H318.008ZM315.008 913.941H324.236V907.941H315.008V913.941ZM378.447 917.797L380.807 919.65L380.813 919.642L378.447 917.797ZM411.09 917.27L408.739 919.133L413.507 925.147L414.081 917.494L411.09 917.27ZM411.564 910.941V907.941H408.781L408.573 910.717L411.564 910.941ZM420.477 910.941H423.477V907.941H420.477V910.941ZM413.885 984.084L411.798 981.928L411.79 981.937L413.885 984.084ZM375.178 980.604L372.909 978.641L371.403 980.382L372.695 982.287L375.178 980.604ZM380.24 974.75L382.572 972.862L380.316 970.076L377.971 972.788L380.24 974.75ZM406.66 978.494L404.539 976.373L404.532 976.38L404.525 976.387L406.66 978.494ZM410.668 962.305H413.668V954.266L408.401 960.339L410.668 962.305ZM378.447 960.986L376.064 962.809L376.072 962.818L378.447 960.986ZM386.041 955.291L383.6 957.035L383.608 957.046L386.041 955.291ZM410.668 952.391L413.334 953.766L413.668 953.119V952.391H410.668ZM410.668 926.34H413.668V925.571L413.298 924.897L410.668 926.34ZM375.277 938.996C375.277 930.548 377.229 924.206 380.807 919.65L376.088 915.944C371.439 921.864 369.277 929.655 369.277 938.996H375.277ZM380.813 919.642C384.348 915.11 388.918 912.887 394.795 912.887V906.887C387.101 906.887 380.773 909.937 376.082 915.952L380.813 919.642ZM394.795 912.887C400.953 912.887 405.472 915.013 408.739 919.133L413.441 915.406C408.903 909.682 402.559 906.887 394.795 906.887V912.887ZM414.081 917.494L414.556 911.166L408.573 910.717L408.098 917.045L414.081 917.494ZM411.564 913.941H420.477V907.941H411.564V913.941ZM417.477 910.941V966.629H423.477V910.941H417.477ZM417.477 966.629C417.477 973.38 415.491 978.354 411.798 981.928L415.971 986.24C421.068 981.306 423.477 974.644 423.477 966.629H417.477ZM411.79 981.937C408.105 985.532 403.048 987.465 396.271 987.465V993.465C404.261 993.465 410.945 991.144 415.98 986.231L411.79 981.937ZM396.271 987.465C392.6 987.465 388.99 986.683 385.418 985.089L382.972 990.568C387.276 992.489 391.716 993.465 396.271 993.465V987.465ZM385.418 985.089C381.904 983.52 379.372 981.443 377.661 978.92L372.695 982.287C375.132 985.881 378.611 988.621 382.972 990.568L385.418 985.089ZM377.447 982.566L382.509 976.712L377.971 972.788L372.909 978.641L377.447 982.566ZM377.909 976.638C382.597 982.429 388.536 985.502 395.586 985.502V979.502C390.542 979.502 386.251 977.407 382.572 972.862L377.909 976.638ZM395.586 985.502C400.911 985.502 405.455 983.986 408.795 980.601L404.525 976.387C402.592 978.346 399.753 979.502 395.586 979.502V985.502ZM408.781 980.615C412.164 977.233 413.668 972.62 413.668 967.209H407.668C407.668 971.501 406.5 974.411 404.539 976.373L408.781 980.615ZM413.668 967.209V962.305H407.668V967.209H413.668ZM408.401 960.339C405.148 964.09 400.699 966.055 394.689 966.055V972.055C402.18 972.055 408.383 969.519 412.934 964.27L408.401 960.339ZM394.689 966.055C388.958 966.055 384.415 963.811 380.823 959.154L376.072 962.818C380.777 968.919 387.061 972.055 394.689 972.055V966.055ZM380.83 959.164C377.242 954.472 375.277 947.859 375.277 938.996H369.277C369.277 948.695 371.426 956.743 376.064 962.809L380.83 959.164ZM379.086 940.104C379.086 946.91 380.476 952.662 383.6 957.035L388.482 953.547C386.332 950.537 385.086 946.164 385.086 940.104H379.086ZM383.608 957.046C386.843 961.531 391.465 963.775 397.115 963.775V957.775C393.273 957.775 390.513 956.363 388.474 953.536L383.608 957.046ZM397.115 963.775C400.659 963.775 403.892 962.965 406.696 961.23C409.496 959.498 411.69 956.954 413.334 953.766L408.002 951.016C406.763 953.417 405.257 955.065 403.539 956.128C401.826 957.188 399.724 957.775 397.115 957.775V963.775ZM413.668 952.391V926.34H407.668V952.391H413.668ZM413.298 924.897C411.598 921.797 409.391 919.328 406.623 917.646C403.85 915.96 400.68 915.166 397.221 915.166V921.166C399.738 921.166 401.798 921.734 403.507 922.773C405.222 923.816 406.749 925.433 408.038 927.782L413.298 924.897ZM397.221 915.166C391.56 915.166 386.927 917.436 383.664 921.944L388.524 925.462C390.605 922.588 393.39 921.166 397.221 921.166V915.166ZM383.664 921.944C380.461 926.369 379.086 932.574 379.086 940.104H385.086C385.086 933.149 386.383 928.42 388.524 925.462L383.664 921.944Z" fill="#90EE90"/>
<rect x="1290" y="1185.45" width="888.461" height="649.742" transform="rotate(-44.8162 1290 1185.45)" fill="#90EE90"/>
</g>
<defs>
<clipPath id="clip0">
<rect width="1920" height="1080" fill="white"/>
</clipPath>
</defs>
</svg>
