<svg width="1914" height="1080" viewBox="0 0 1914 1080" fill="none" xmlns="http://www.w3.org/2000/svg">
<g clip-path="url(#clip0)">
<rect width="1920" height="1080" fill="white"/>
<path d="M1149.08 -13.2943L1399.97 -2.7175L1161.26 219.099L954 -1.04562e-05L1149.08 -13.2943Z" fill="#FA9B99"/>
<path d="M70.7754 966H60.6504V889.219H70.7754V966ZM97.0371 908.941L97.3535 916.113C101.713 910.629 107.408 907.887 114.439 907.887C126.498 907.887 132.58 914.689 132.686 928.295V966H122.93V928.242C122.895 924.129 121.945 921.088 120.082 919.119C118.254 917.15 115.389 916.166 111.486 916.166C108.322 916.166 105.545 917.01 103.154 918.697C100.764 920.385 98.9004 922.6 97.5645 925.342V966H87.8086V908.941H97.0371ZM170.285 959.092C173.766 959.092 176.807 958.037 179.408 955.928C182.01 953.818 183.451 951.182 183.732 948.018H192.961C192.785 951.287 191.66 954.398 189.586 957.352C187.512 960.305 184.734 962.66 181.254 964.418C177.809 966.176 174.152 967.055 170.285 967.055C162.516 967.055 156.328 964.471 151.723 959.303C147.152 954.1 144.867 946.998 144.867 937.998V936.363C144.867 930.809 145.887 925.869 147.926 921.545C149.965 917.221 152.883 913.863 156.68 911.473C160.512 909.082 165.029 907.887 170.232 907.887C176.631 907.887 181.939 909.803 186.158 913.635C190.412 917.467 192.68 922.441 192.961 928.559H183.732C183.451 924.867 182.045 921.844 179.514 919.488C177.018 917.098 173.924 915.902 170.232 915.902C165.275 915.902 161.426 917.695 158.684 921.281C155.977 924.832 154.623 929.982 154.623 936.732V938.578C154.623 945.152 155.977 950.215 158.684 953.766C161.391 957.316 165.258 959.092 170.285 959.092ZM201.346 936.943C201.346 931.354 202.436 926.326 204.615 921.861C206.83 917.396 209.889 913.951 213.791 911.525C217.729 909.1 222.211 907.887 227.238 907.887C235.008 907.887 241.283 910.576 246.064 915.955C250.881 921.334 253.289 928.488 253.289 937.418V938.104C253.289 943.658 252.217 948.65 250.072 953.08C247.963 957.475 244.922 960.902 240.949 963.363C237.012 965.824 232.477 967.055 227.344 967.055C219.609 967.055 213.334 964.365 208.518 958.986C203.736 953.607 201.346 946.488 201.346 937.629V936.943ZM211.154 938.104C211.154 944.432 212.613 949.512 215.531 953.344C218.484 957.176 222.422 959.092 227.344 959.092C232.301 959.092 236.238 957.158 239.156 953.291C242.074 949.389 243.533 943.939 243.533 936.943C243.533 930.686 242.039 925.623 239.051 921.756C236.098 917.854 232.16 915.902 227.238 915.902C222.422 915.902 218.537 917.818 215.584 921.65C212.631 925.482 211.154 930.967 211.154 938.104ZM274.699 908.941L274.963 915.27C279.146 910.348 284.789 907.887 291.891 907.887C299.871 907.887 305.303 910.945 308.186 917.062C310.084 914.32 312.545 912.105 315.568 910.418C318.627 908.73 322.23 907.887 326.379 907.887C338.895 907.887 345.258 914.514 345.469 927.768V966H335.713V928.348C335.713 924.27 334.781 921.229 332.918 919.225C331.055 917.186 327.926 916.166 323.531 916.166C319.91 916.166 316.904 917.256 314.514 919.436C312.123 921.58 310.734 924.48 310.348 928.137V966H300.539V928.611C300.539 920.314 296.479 916.166 288.357 916.166C281.959 916.166 277.582 918.891 275.227 924.34V966H265.471V908.941H274.699ZM383.912 967.055C376.178 967.055 369.885 964.523 365.033 959.461C360.182 954.363 357.756 947.561 357.756 939.053V937.26C357.756 931.6 358.828 926.555 360.973 922.125C363.152 917.66 366.176 914.18 370.043 911.684C373.945 909.152 378.164 907.887 382.699 907.887C390.117 907.887 395.883 910.33 399.996 915.217C404.109 920.104 406.166 927.1 406.166 936.205V940.266H367.512C367.652 945.891 369.287 950.443 372.416 953.924C375.58 957.369 379.588 959.092 384.439 959.092C387.885 959.092 390.803 958.389 393.193 956.982C395.584 955.576 397.676 953.713 399.469 951.393L405.428 956.033C400.646 963.381 393.475 967.055 383.912 967.055ZM382.699 915.902C378.762 915.902 375.457 917.344 372.785 920.227C370.113 923.074 368.461 927.082 367.828 932.25H396.41V931.512C396.129 926.555 394.793 922.723 392.402 920.016C390.012 917.273 386.777 915.902 382.699 915.902ZM496.764 897.551H472.084V966H462.012V897.551H437.385V889.219H496.764V897.551ZM535.84 966C535.277 964.875 534.82 962.871 534.469 959.988C529.934 964.699 524.52 967.055 518.227 967.055C512.602 967.055 507.979 965.473 504.357 962.309C500.771 959.109 498.979 955.066 498.979 950.18C498.979 944.238 501.229 939.633 505.729 936.363C510.264 933.059 516.627 931.406 524.818 931.406H534.311V926.924C534.311 923.514 533.291 920.807 531.252 918.803C529.213 916.764 526.207 915.744 522.234 915.744C518.754 915.744 515.836 916.623 513.48 918.381C511.125 920.139 509.947 922.266 509.947 924.762H500.139C500.139 921.914 501.141 919.172 503.145 916.535C505.184 913.863 507.926 911.754 511.371 910.207C514.852 908.66 518.666 907.887 522.814 907.887C529.389 907.887 534.539 909.539 538.266 912.844C541.992 916.113 543.926 920.631 544.066 926.396V952.658C544.066 957.896 544.734 962.062 546.07 965.156V966H535.84ZM519.65 958.564C522.709 958.564 525.609 957.773 528.352 956.191C531.094 954.609 533.08 952.553 534.311 950.021V938.314H526.664C514.711 938.314 508.734 941.812 508.734 948.809C508.734 951.867 509.754 954.258 511.793 955.98C513.832 957.703 516.451 958.564 519.65 958.564ZM578.502 929.771L591.158 908.941H602.549L583.881 937.154L603.129 966H591.844L578.66 944.643L565.477 966H554.139L573.387 937.154L554.719 908.941H566.004L578.502 929.771Z" fill="white"/>
<path d="M70.7754 966V969H73.7754V966H70.7754ZM60.6504 966H57.6504V969H60.6504V966ZM60.6504 889.219V886.219H57.6504V889.219H60.6504ZM70.7754 889.219H73.7754V886.219H70.7754V889.219ZM70.7754 963H60.6504V969H70.7754V963ZM63.6504 966V889.219H57.6504V966H63.6504ZM60.6504 892.219H70.7754V886.219H60.6504V892.219ZM67.7754 889.219V966H73.7754V889.219H67.7754ZM97.0371 908.941L100.034 908.809L99.9077 905.941H97.0371V908.941ZM97.3535 916.113L94.3564 916.246L94.71 924.26L99.702 917.98L97.3535 916.113ZM132.686 928.295H135.686V928.283L135.685 928.272L132.686 928.295ZM132.686 966V969H135.686V966H132.686ZM122.93 966H119.93V969H122.93V966ZM122.93 928.242H125.93V928.229L125.93 928.217L122.93 928.242ZM120.082 919.119L117.884 921.16L117.893 921.171L117.903 921.181L120.082 919.119ZM97.5645 925.342L94.8675 924.028L94.5645 924.65V925.342H97.5645ZM97.5645 966V969H100.564V966H97.5645ZM87.8086 966H84.8086V969H87.8086V966ZM87.8086 908.941V905.941H84.8086V908.941H87.8086ZM94.04 909.074L94.3564 916.246L100.351 915.981L100.034 908.809L94.04 909.074ZM99.702 917.98C103.49 913.215 108.319 910.887 114.439 910.887V904.887C106.497 904.887 99.936 908.043 95.005 914.247L99.702 917.98ZM114.439 910.887C119.905 910.887 123.505 912.412 125.808 914.988C128.172 917.632 129.636 921.897 129.686 928.318L135.685 928.272C135.63 921.088 133.999 915.148 130.281 910.989C126.503 906.763 121.033 904.887 114.439 904.887V910.887ZM129.686 928.295V966H135.686V928.295H129.686ZM132.686 963H122.93V969H132.686V963ZM125.93 966V928.242H119.93V966H125.93ZM125.93 928.217C125.891 923.727 124.859 919.802 122.261 917.057L117.903 921.181C119.032 922.374 119.898 924.531 119.93 928.268L125.93 928.217ZM122.28 917.078C119.668 914.265 115.841 913.166 111.486 913.166V919.166C114.937 919.166 116.839 920.036 117.884 921.16L122.28 917.078ZM111.486 913.166C107.756 913.166 104.363 914.172 101.424 916.246L104.884 921.148C106.727 919.847 108.889 919.166 111.486 919.166V913.166ZM101.424 916.246C98.6029 918.238 96.4151 920.851 94.8675 924.028L100.261 926.656C101.386 924.348 102.924 922.532 104.884 921.148L101.424 916.246ZM94.5645 925.342V966H100.564V925.342H94.5645ZM97.5645 963H87.8086V969H97.5645V963ZM90.8086 966V908.941H84.8086V966H90.8086ZM87.8086 911.941H97.0371V905.941H87.8086V911.941ZM183.732 948.018V945.018H180.987L180.744 947.752L183.732 948.018ZM192.961 948.018L195.957 948.179L196.127 945.018H192.961V948.018ZM181.254 964.418L179.901 961.74L179.89 961.746L181.254 964.418ZM151.723 959.303L149.469 961.283L149.476 961.291L149.483 961.299L151.723 959.303ZM156.68 911.473L155.092 908.927L155.081 908.934L156.68 911.473ZM186.158 913.635L184.141 915.855L184.15 915.864L186.158 913.635ZM192.961 928.559V931.559H196.102L195.958 928.421L192.961 928.559ZM183.732 928.559L180.741 928.787L180.952 931.559H183.732V928.559ZM179.514 919.488L177.439 921.655L177.454 921.67L177.47 921.684L179.514 919.488ZM158.684 921.281L156.301 919.459L156.298 919.462L158.684 921.281ZM170.285 962.092C174.424 962.092 178.139 960.819 181.298 958.258L177.519 953.597C175.474 955.256 173.107 956.092 170.285 956.092V962.092ZM181.298 958.258C184.491 955.668 186.363 952.304 186.721 948.283L180.744 947.752C180.539 950.06 179.528 951.968 177.519 953.597L181.298 958.258ZM183.732 951.018H192.961V945.018H183.732V951.018ZM189.965 947.857C189.823 950.508 188.916 953.086 187.131 955.627L192.041 959.076C194.404 955.711 195.748 952.066 195.957 948.179L189.965 947.857ZM187.131 955.627C185.363 958.145 182.978 960.186 179.901 961.74L182.606 967.096C186.491 965.134 189.661 962.465 192.041 959.076L187.131 955.627ZM179.89 961.746C176.867 963.288 173.678 964.055 170.285 964.055V970.055C174.626 970.055 178.75 969.063 182.617 967.09L179.89 961.746ZM170.285 964.055C163.255 964.055 157.925 961.754 153.962 957.307L149.483 961.299C154.731 967.188 161.777 970.055 170.285 970.055V964.055ZM153.977 957.323C150.016 952.814 147.867 946.493 147.867 937.998H141.867C141.867 947.503 144.288 955.385 149.469 961.283L153.977 957.323ZM147.867 937.998V936.363H141.867V937.998H147.867ZM147.867 936.363C147.867 931.18 148.817 926.689 150.639 922.824L145.212 920.265C142.956 925.05 141.867 930.437 141.867 936.363H147.867ZM150.639 922.824C152.451 918.982 154.998 916.077 158.278 914.011L155.081 908.934C150.768 911.65 147.479 915.459 145.212 920.265L150.639 922.824ZM158.268 914.018C161.554 911.967 165.504 910.887 170.232 910.887V904.887C164.555 904.887 159.469 906.197 155.092 908.927L158.268 914.018ZM170.232 910.887C175.983 910.887 180.543 912.587 184.141 915.855L188.175 911.414C183.336 907.018 177.278 904.887 170.232 904.887V910.887ZM184.15 915.864C187.764 919.119 189.717 923.319 189.964 928.696L195.958 928.421C195.643 921.564 193.06 915.815 188.166 911.406L184.15 915.864ZM192.961 925.559H183.732V931.559H192.961V925.559ZM186.724 928.331C186.39 923.946 184.682 920.2 181.557 917.292L177.47 921.684C179.408 923.488 180.513 925.789 180.741 928.787L186.724 928.331ZM181.589 917.322C178.494 914.357 174.639 912.902 170.232 912.902V918.902C173.208 918.902 175.541 919.838 177.439 921.655L181.589 917.322ZM170.232 912.902C164.446 912.902 159.671 915.051 156.301 919.459L161.067 923.104C163.18 920.34 166.104 918.902 170.232 918.902V912.902ZM156.298 919.462C153.035 923.743 151.623 929.645 151.623 936.732H157.623C157.623 930.32 158.919 925.921 161.069 923.1L156.298 919.462ZM151.623 936.732V938.578H157.623V936.732H151.623ZM151.623 938.578C151.623 945.512 153.043 951.315 156.298 955.584L161.069 951.947C158.91 949.114 157.623 944.793 157.623 938.578H151.623ZM156.298 955.584C159.649 959.981 164.457 962.092 170.285 962.092V956.092C166.059 956.092 163.132 954.652 161.069 951.947L156.298 955.584ZM204.615 921.861L201.928 920.528L201.924 920.537L201.919 920.545L204.615 921.861ZM213.791 911.525L212.217 908.971L212.207 908.978L213.791 911.525ZM246.064 915.955L243.822 917.948L243.829 917.956L246.064 915.955ZM250.072 953.08L247.372 951.773L247.368 951.782L250.072 953.08ZM240.949 963.363L239.369 960.813L239.359 960.819L240.949 963.363ZM208.518 958.986L206.275 960.979L206.283 960.988L208.518 958.986ZM215.531 953.344L213.144 955.161L213.15 955.168L213.155 955.175L215.531 953.344ZM239.156 953.291L241.551 955.098L241.559 955.088L239.156 953.291ZM239.051 921.756L236.659 923.566L236.668 923.578L236.677 923.59L239.051 921.756ZM204.346 936.943C204.346 931.752 205.355 927.184 207.311 923.177L201.919 920.545C199.516 925.469 198.346 930.955 198.346 936.943H204.346ZM207.303 923.194C209.292 919.185 211.986 916.18 215.375 914.073L212.207 908.978C207.791 911.723 204.369 915.608 201.928 920.528L207.303 923.194ZM215.365 914.08C218.788 911.971 222.716 910.887 227.238 910.887V904.887C221.705 904.887 216.669 906.229 212.217 908.971L215.365 914.08ZM227.238 910.887C234.228 910.887 239.659 913.265 243.822 917.948L248.307 913.962C242.907 907.887 235.788 904.887 227.238 904.887V910.887ZM243.829 917.956C248.044 922.663 250.289 929.044 250.289 937.418H256.289C256.289 927.932 253.718 920.005 248.299 913.954L243.829 917.956ZM250.289 937.418V938.104H256.289V937.418H250.289ZM250.289 938.104C250.289 943.264 249.295 947.8 247.372 951.773L252.772 954.387C255.138 949.5 256.289 944.052 256.289 938.104H250.289ZM247.368 951.782C245.495 955.684 242.834 958.667 239.369 960.813L242.529 965.914C247.01 963.138 250.431 959.266 252.777 954.378L247.368 951.782ZM239.359 960.819C235.948 962.951 231.976 964.055 227.344 964.055V970.055C232.978 970.055 238.076 968.697 242.539 965.907L239.359 960.819ZM227.344 964.055C220.394 964.055 214.956 961.679 210.753 956.985L206.283 960.988C211.712 967.051 218.825 970.055 227.344 970.055V964.055ZM210.76 956.993C206.573 952.283 204.346 945.931 204.346 937.629H198.346C198.346 947.046 200.9 954.932 206.275 960.979L210.76 956.993ZM204.346 937.629V936.943H198.346V937.629H204.346ZM208.154 938.104C208.154 944.882 209.72 950.664 213.144 955.161L217.918 951.526C215.507 948.36 214.154 943.981 214.154 938.104H208.154ZM213.155 955.175C216.688 959.759 221.51 962.092 227.344 962.092V956.092C223.333 956.092 220.281 954.593 217.908 951.513L213.155 955.175ZM227.344 962.092C233.216 962.092 238.051 959.737 241.551 955.098L236.761 951.484C234.426 954.58 231.385 956.092 227.344 956.092V962.092ZM241.559 955.088C245.001 950.484 246.533 944.314 246.533 936.943H240.533C240.533 943.565 239.147 948.293 236.754 951.494L241.559 955.088ZM246.533 936.943C246.533 930.21 244.921 924.446 241.425 919.922L236.677 923.59C239.158 926.8 240.533 931.161 240.533 936.943H246.533ZM241.443 919.946C237.919 915.289 233.094 912.902 227.238 912.902V918.902C231.227 918.902 234.276 920.418 236.659 923.566L241.443 919.946ZM227.238 912.902C221.487 912.902 216.726 915.254 213.208 919.819L217.96 923.482C220.348 920.383 223.357 918.902 227.238 918.902V912.902ZM213.208 919.819C209.698 924.373 208.154 930.606 208.154 938.104H214.154C214.154 931.327 215.564 926.591 217.96 923.482L213.208 919.819ZM274.699 908.941L277.697 908.817L277.577 905.941H274.699V908.941ZM274.963 915.27L271.965 915.394L272.285 923.053L277.249 917.212L274.963 915.27ZM308.186 917.062L305.472 918.341L307.69 923.049L310.652 918.77L308.186 917.062ZM315.568 910.418L314.119 907.791L314.113 907.795L314.106 907.798L315.568 910.418ZM345.469 927.768H348.469V927.744L348.468 927.72L345.469 927.768ZM345.469 966V969H348.469V966H345.469ZM335.713 966H332.713V969H335.713V966ZM332.918 919.225L330.703 921.248L330.712 921.258L330.721 921.267L332.918 919.225ZM314.514 919.436L316.517 921.669L316.526 921.661L316.535 921.652L314.514 919.436ZM310.348 928.137L307.364 927.821L307.348 927.979V928.137H310.348ZM310.348 966V969H313.348V966H310.348ZM300.539 966H297.539V969H300.539V966ZM275.227 924.34L272.473 923.15L272.227 923.719V924.34H275.227ZM275.227 966V969H278.227V966H275.227ZM265.471 966H262.471V969H265.471V966ZM265.471 908.941V905.941H262.471V908.941H265.471ZM271.702 909.066L271.965 915.394L277.96 915.145L277.697 908.817L271.702 909.066ZM277.249 917.212C280.801 913.033 285.57 910.887 291.891 910.887V904.887C284.008 904.887 277.492 907.662 272.677 913.327L277.249 917.212ZM291.891 910.887C295.507 910.887 298.32 911.58 300.478 912.795C302.605 913.992 304.272 915.796 305.472 918.341L310.899 915.784C309.216 912.212 306.726 909.428 303.422 907.567C300.148 905.723 296.255 904.887 291.891 904.887V910.887ZM310.652 918.77C312.28 916.419 314.391 914.511 317.03 913.038L314.106 907.798C310.698 909.7 307.888 912.221 305.719 915.355L310.652 918.77ZM317.018 913.045C319.556 911.644 322.642 910.887 326.379 910.887V904.887C321.819 904.887 317.698 905.817 314.119 907.791L317.018 913.045ZM326.379 910.887C332.125 910.887 335.94 912.399 338.374 914.935C340.838 917.501 342.37 921.613 342.469 927.815L348.468 927.72C348.356 920.668 346.601 914.84 342.702 910.779C338.773 906.688 333.148 904.887 326.379 904.887V910.887ZM342.469 927.768V966H348.469V927.768H342.469ZM345.469 963H335.713V969H345.469V963ZM338.713 966V928.348H332.713V966H338.713ZM338.713 928.348C338.713 923.876 337.698 919.96 335.115 917.182L330.721 921.267C331.865 922.497 332.713 924.663 332.713 928.348H338.713ZM335.133 917.201C332.44 914.254 328.281 913.166 323.531 913.166V919.166C327.57 919.166 329.67 920.117 330.703 921.248L335.133 917.201ZM323.531 913.166C319.259 913.166 315.503 914.474 312.492 917.219L316.535 921.652C318.306 920.038 320.562 919.166 323.531 919.166V913.166ZM312.51 917.202C309.487 919.915 307.817 923.541 307.364 927.821L313.331 928.452C313.652 925.42 314.759 923.246 316.517 921.669L312.51 917.202ZM307.348 928.137V966H313.348V928.137H307.348ZM310.348 963H300.539V969H310.348V963ZM303.539 966V928.611H297.539V966H303.539ZM303.539 928.611C303.539 924.016 302.415 920.016 299.638 917.179C296.849 914.33 292.897 913.166 288.357 913.166V919.166C291.939 919.166 294.078 920.077 295.35 921.376C296.633 922.687 297.539 924.909 297.539 928.611H303.539ZM288.357 913.166C284.732 913.166 281.457 913.94 278.69 915.663C275.908 917.395 273.855 919.952 272.473 923.15L277.98 925.53C278.954 923.278 280.267 921.749 281.861 920.756C283.471 919.754 285.584 919.166 288.357 919.166V913.166ZM272.227 924.34V966H278.227V924.34H272.227ZM275.227 963H265.471V969H275.227V963ZM268.471 966V908.941H262.471V966H268.471ZM265.471 911.941H274.699V905.941H265.471V911.941ZM365.033 959.461L362.86 961.529L362.867 961.537L365.033 959.461ZM360.973 922.125L358.277 920.809L358.272 920.818L360.973 922.125ZM370.043 911.684L371.67 914.204L371.676 914.2L370.043 911.684ZM406.166 940.266V943.266H409.166V940.266H406.166ZM367.512 940.266V937.266H364.436L364.513 940.341L367.512 940.266ZM372.416 953.924L370.185 955.929L370.196 955.941L370.206 955.953L372.416 953.924ZM399.469 951.393L401.312 949.026L398.936 947.175L397.095 949.558L399.469 951.393ZM405.428 956.033L407.942 957.669L409.445 955.36L407.271 953.666L405.428 956.033ZM372.785 920.227L374.973 922.279L374.979 922.273L374.985 922.266L372.785 920.227ZM367.828 932.25L364.85 931.885L364.438 935.25H367.828V932.25ZM396.41 932.25V935.25H399.41V932.25H396.41ZM396.41 931.512H399.41V931.427L399.405 931.342L396.41 931.512ZM392.402 920.016L390.141 921.987L390.147 921.994L390.154 922.001L392.402 920.016ZM383.912 964.055C376.902 964.055 371.424 961.793 367.199 957.385L362.867 961.537C368.346 967.254 375.453 970.055 383.912 970.055V964.055ZM367.206 957.393C362.993 952.965 360.756 946.961 360.756 939.053H354.756C354.756 948.16 357.371 955.761 362.86 961.529L367.206 957.393ZM360.756 939.053V937.26H354.756V939.053H360.756ZM360.756 937.26C360.756 931.984 361.753 927.397 363.673 923.432L358.272 920.818C355.903 925.712 354.756 931.215 354.756 937.26H360.756ZM363.669 923.441C365.628 919.427 368.299 916.38 371.67 914.204L368.416 909.163C364.053 911.979 360.677 915.893 358.277 920.809L363.669 923.441ZM371.676 914.2C375.105 911.976 378.759 910.887 382.699 910.887V904.887C377.569 904.887 372.786 906.329 368.41 909.167L371.676 914.2ZM382.699 910.887C389.391 910.887 394.253 913.052 397.701 917.149L402.291 913.285C397.513 907.608 390.843 904.887 382.699 904.887V910.887ZM397.701 917.149C401.199 921.305 403.166 927.511 403.166 936.205H409.166C409.166 926.689 407.02 918.902 402.291 913.285L397.701 917.149ZM403.166 936.205V940.266H409.166V936.205H403.166ZM406.166 937.266H367.512V943.266H406.166V937.266ZM364.513 940.341C364.667 946.529 366.486 951.815 370.185 955.929L374.647 951.918C372.088 949.072 370.637 945.252 370.511 940.191L364.513 940.341ZM370.206 955.953C373.962 960.043 378.783 962.092 384.439 962.092V956.092C380.393 956.092 377.198 954.696 374.626 951.895L370.206 955.953ZM384.439 962.092C388.291 962.092 391.763 961.304 394.714 959.568L391.672 954.397C389.842 955.473 387.478 956.092 384.439 956.092V962.092ZM394.714 959.568C397.453 957.957 399.829 955.832 401.843 953.227L397.095 949.558C395.522 951.594 393.715 953.195 391.672 954.397L394.714 959.568ZM397.625 953.76L403.584 958.4L407.271 953.666L401.312 949.026L397.625 953.76ZM402.913 954.397C398.743 960.806 392.569 964.055 383.912 964.055V970.055C394.38 970.055 402.55 965.956 407.942 957.669L402.913 954.397ZM382.699 912.902C377.928 912.902 373.826 914.691 370.585 918.187L374.985 922.266C377.088 919.997 379.595 918.902 382.699 918.902V912.902ZM370.597 918.174C367.365 921.619 365.535 926.294 364.85 931.885L370.806 932.615C371.387 927.87 372.862 924.529 374.973 922.279L370.597 918.174ZM367.828 935.25H396.41V929.25H367.828V935.25ZM399.41 932.25V931.512H393.41V932.25H399.41ZM399.405 931.342C399.1 925.962 397.628 921.401 394.651 918.03L390.154 922.001C391.958 924.045 393.158 927.148 393.415 931.682L399.405 931.342ZM394.664 918.044C391.631 914.565 387.527 912.902 382.699 912.902V918.902C386.028 918.902 388.393 919.982 390.141 921.987L394.664 918.044ZM496.764 897.551V900.551H499.764V897.551H496.764ZM472.084 897.551V894.551H469.084V897.551H472.084ZM472.084 966V969H475.084V966H472.084ZM462.012 966H459.012V969H462.012V966ZM462.012 897.551H465.012V894.551H462.012V897.551ZM437.385 897.551H434.385V900.551H437.385V897.551ZM437.385 889.219V886.219H434.385V889.219H437.385ZM496.764 889.219H499.764V886.219H496.764V889.219ZM496.764 894.551H472.084V900.551H496.764V894.551ZM469.084 897.551V966H475.084V897.551H469.084ZM472.084 963H462.012V969H472.084V963ZM465.012 966V897.551H459.012V966H465.012ZM462.012 894.551H437.385V900.551H462.012V894.551ZM440.385 897.551V889.219H434.385V897.551H440.385ZM437.385 892.219H496.764V886.219H437.385V892.219ZM493.764 889.219V897.551H499.764V889.219H493.764ZM535.84 966L533.157 967.342L533.986 969H535.84V966ZM534.469 959.988L537.447 959.625L536.683 953.363L532.307 957.908L534.469 959.988ZM504.357 962.309L502.36 964.547L502.372 964.557L502.383 964.568L504.357 962.309ZM505.729 936.363L507.492 938.79L507.495 938.788L505.729 936.363ZM534.311 931.406V934.406H537.311V931.406H534.311ZM531.252 918.803L529.131 920.924L529.14 920.933L529.149 920.942L531.252 918.803ZM509.947 924.762V927.762H512.947V924.762H509.947ZM500.139 924.762H497.139V927.762H500.139V924.762ZM503.145 916.535L500.76 914.715L500.756 914.72L503.145 916.535ZM511.371 910.207L510.153 907.466L510.142 907.47L511.371 910.207ZM538.266 912.844L536.275 915.088L536.281 915.094L536.287 915.099L538.266 912.844ZM544.066 926.396H547.066V926.36L547.066 926.323L544.066 926.396ZM546.07 965.156H549.07V964.536L548.824 963.967L546.07 965.156ZM546.07 966V969H549.07V966H546.07ZM534.311 950.021L537.009 951.333L537.311 950.712V950.021H534.311ZM534.311 938.314H537.311V935.314H534.311V938.314ZM538.523 964.658C538.213 964.039 537.797 962.496 537.447 959.625L531.491 960.351C531.844 963.246 532.341 965.711 533.157 967.342L538.523 964.658ZM532.307 957.908C528.313 962.057 523.669 964.055 518.227 964.055V970.055C525.37 970.055 531.554 967.341 536.63 962.069L532.307 957.908ZM518.227 964.055C513.197 964.055 509.315 962.657 506.331 960.05L502.383 964.568C506.642 968.289 512.006 970.055 518.227 970.055V964.055ZM506.355 960.07C503.419 957.451 501.979 954.228 501.979 950.18H495.979C495.979 955.905 498.124 960.768 502.36 964.547L506.355 960.07ZM501.979 950.18C501.979 945.122 503.829 941.452 507.492 938.79L503.965 933.936C498.628 937.814 495.979 943.355 495.979 950.18H501.979ZM507.495 938.788C511.33 935.994 516.982 934.406 524.818 934.406V928.406C516.271 928.406 509.197 930.124 503.962 933.939L507.495 938.788ZM524.818 934.406H534.311V928.406H524.818V934.406ZM537.311 931.406V926.924H531.311V931.406H537.311ZM537.311 926.924C537.311 922.876 536.077 919.338 533.355 916.663L529.149 920.942C530.505 922.275 531.311 924.152 531.311 926.924H537.311ZM533.373 916.681C530.587 913.895 526.696 912.744 522.234 912.744V918.744C525.718 918.744 527.839 919.633 529.131 920.924L533.373 916.681ZM522.234 912.744C518.23 912.744 514.65 913.764 511.686 915.977L515.275 920.785C517.021 919.482 519.278 918.744 522.234 918.744V912.744ZM511.686 915.977C508.724 918.187 506.947 921.144 506.947 924.762H512.947C512.947 923.388 513.526 922.09 515.275 920.785L511.686 915.977ZM509.947 921.762H500.139V927.762H509.947V921.762ZM503.139 924.762C503.139 922.673 503.859 920.554 505.533 918.35L500.756 914.72C498.423 917.79 497.139 921.155 497.139 924.762H503.139ZM505.529 918.355C507.23 916.127 509.553 914.312 512.6 912.944L510.142 907.47C506.299 909.196 503.138 911.599 500.76 914.715L505.529 918.355ZM512.59 912.948C515.653 911.587 519.048 910.887 522.814 910.887V904.887C518.284 904.887 514.05 905.734 510.153 907.466L512.59 912.948ZM522.814 910.887C528.894 910.887 533.253 912.408 536.275 915.088L540.256 910.599C535.825 906.67 529.883 904.887 522.814 904.887V910.887ZM536.287 915.099C539.279 917.724 540.943 921.392 541.067 926.47L547.066 926.323C546.908 919.87 544.705 914.503 540.244 910.589L536.287 915.099ZM541.066 926.396V952.658H547.066V926.396H541.066ZM541.066 952.658C541.066 958.103 541.753 962.726 543.316 966.346L548.824 963.967C547.715 961.399 547.066 957.69 547.066 952.658H541.066ZM543.07 965.156V966H549.07V965.156H543.07ZM546.07 963H535.84V969H546.07V963ZM519.65 961.564C523.254 961.564 526.669 960.625 529.851 958.79L526.852 953.593C524.549 954.922 522.164 955.564 519.65 955.564V961.564ZM529.851 958.79C533.045 956.947 535.484 954.469 537.009 951.333L531.612 948.71C530.676 950.636 529.143 952.272 526.852 953.593L529.851 958.79ZM537.311 950.021V938.314H531.311V950.021H537.311ZM534.311 935.314H526.664V941.314H534.311V935.314ZM526.664 935.314C520.493 935.314 515.373 936.2 511.701 938.349C507.782 940.643 505.734 944.259 505.734 948.809H511.734C511.734 946.362 512.675 944.731 514.732 943.527C517.037 942.178 520.882 941.314 526.664 941.314V935.314ZM505.734 948.809C505.734 952.607 507.04 955.893 509.857 958.272L513.729 953.689C512.467 952.623 511.734 951.128 511.734 948.809H505.734ZM509.857 958.272C512.54 960.539 515.889 961.564 519.65 961.564V955.564C517.013 955.564 515.124 954.867 513.729 953.689L509.857 958.272ZM578.502 929.771L575.93 931.315L578.486 935.576L581.066 931.329L578.502 929.771ZM591.158 908.941V905.941H589.471L588.594 907.384L591.158 908.941ZM602.549 908.941L605.051 910.597L608.131 905.941H602.549V908.941ZM583.881 937.154L581.379 935.499L580.279 937.161L581.385 938.819L583.881 937.154ZM603.129 966V969H608.737L605.624 964.335L603.129 966ZM591.844 966L589.291 967.576L590.17 969H591.844V966ZM578.66 944.643L581.213 943.067L578.66 938.931L576.107 943.067L578.66 944.643ZM565.477 966V969H567.15L568.029 967.576L565.477 966ZM554.139 966L551.643 964.335L548.53 969H554.139V966ZM573.387 937.154L575.882 938.819L576.989 937.161L575.889 935.499L573.387 937.154ZM554.719 908.941V905.941H549.136L552.217 910.597L554.719 908.941ZM566.004 908.941L568.576 907.398L567.702 905.941H566.004V908.941ZM581.066 931.329L593.722 910.499L588.594 907.384L575.938 928.214L581.066 931.329ZM591.158 911.941H602.549V905.941H591.158V911.941ZM600.047 907.286L581.379 935.499L586.383 938.81L605.051 910.597L600.047 907.286ZM581.385 938.819L600.633 967.665L605.624 964.335L586.376 935.489L581.385 938.819ZM603.129 963H591.844V969H603.129V963ZM594.397 964.424L581.213 943.067L576.107 946.218L589.291 967.576L594.397 964.424ZM576.107 943.067L562.924 964.424L568.029 967.576L581.213 946.218L576.107 943.067ZM565.477 963H554.139V969H565.477V963ZM556.634 967.665L575.882 938.819L570.891 935.489L551.643 964.335L556.634 967.665ZM575.889 935.499L557.221 907.286L552.217 910.597L570.885 938.81L575.889 935.499ZM554.719 911.941H566.004V905.941H554.719V911.941ZM563.431 910.485L575.93 931.315L581.074 928.228L568.576 907.398L563.431 910.485Z" fill="#FA9B99"/>
<rect x="1162" y="217.185" width="927.19" height="944.655" transform="rotate(-43.2407 1162 217.185)" fill="#90EE90"/>
</g>
<defs>
<clipPath id="clip0">
<rect width="1920" height="1080" fill="white"/>
</clipPath>
</defs>
</svg>
