<svg width="1918" height="1080" viewBox="0 0 1918 1080" fill="none" xmlns="http://www.w3.org/2000/svg">
<g clip-path="url(#clip0)">
<rect width="1920" height="1080" fill="white"/>
<rect x="705.861" y="-65.3574" width="275.675" height="292.824" transform="rotate(-43.4659 705.861 -65.3574)" fill="#FA9B99"/>
<rect x="-157.914" y="996.126" width="2205.79" height="840.748" transform="rotate(-43.4511 -157.914 996.126)" fill="#90EE90"/>
<path d="M122.602 962.928C120 966.654 116.361 969.449 111.686 971.312C107.045 973.141 101.631 974.055 95.4434 974.055C89.1855 974.055 83.6309 972.596 78.7793 969.678C73.9277 966.725 70.166 962.541 67.4941 957.127C64.8574 951.713 63.5039 945.438 63.4336 938.301V931.604C63.4336 920.037 66.123 911.072 71.502 904.709C76.916 898.346 84.5098 895.164 94.2832 895.164C102.299 895.164 108.75 897.221 113.637 901.334C118.523 905.412 121.512 911.213 122.602 918.736H112.477C110.578 908.576 104.531 903.496 94.3359 903.496C87.5508 903.496 82.4004 905.887 78.8848 910.668C75.4043 915.414 73.6465 922.305 73.6113 931.34V937.615C73.6113 946.229 75.5801 953.084 79.5176 958.182C83.4551 963.244 88.7812 965.775 95.4961 965.775C99.293 965.775 102.615 965.354 105.463 964.51C108.311 963.666 110.666 962.242 112.529 960.238V942.994H94.7578V934.768H122.602V962.928ZM198.592 937.088C198.592 944.611 197.326 951.186 194.795 956.811C192.264 962.4 188.678 966.672 184.037 969.625C179.396 972.578 173.982 974.055 167.795 974.055C161.748 974.055 156.387 972.578 151.711 969.625C147.035 966.637 143.396 962.4 140.795 956.916C138.229 951.396 136.91 945.016 136.84 937.773V932.236C136.84 924.854 138.123 918.332 140.689 912.672C143.256 907.012 146.877 902.688 151.553 899.699C156.264 896.676 161.643 895.164 167.689 895.164C173.842 895.164 179.256 896.658 183.932 899.646C188.643 902.6 192.264 906.906 194.795 912.566C197.326 918.191 198.592 924.748 198.592 932.236V937.088ZM188.52 932.131C188.52 923.025 186.691 916.047 183.035 911.195C179.379 906.309 174.264 903.865 167.689 903.865C161.291 903.865 156.246 906.309 152.555 911.195C148.898 916.047 147.018 922.797 146.912 931.445V937.088C146.912 945.912 148.758 952.855 152.449 957.918C156.176 962.945 161.291 965.459 167.795 965.459C174.334 965.459 179.396 963.086 182.982 958.34C186.568 953.559 188.414 946.721 188.52 937.826V932.131ZM223.957 964.721H260.344V973H213.779V896.219H223.957V964.721ZM271.893 973V896.219H293.566C300.246 896.219 306.152 897.695 311.285 900.648C316.418 903.602 320.373 907.803 323.15 913.252C325.963 918.701 327.387 924.959 327.422 932.025V936.93C327.422 944.172 326.016 950.518 323.203 955.967C320.426 961.416 316.436 965.6 311.232 968.518C306.064 971.436 300.035 972.93 293.145 973H271.893ZM282.018 904.551V964.721H292.67C300.475 964.721 306.539 962.295 310.863 957.443C315.223 952.592 317.402 945.684 317.402 936.719V932.236C317.402 923.518 315.346 916.75 311.232 911.934C307.154 907.082 301.354 904.621 293.83 904.551H282.018Z" fill="#90EE90"/>
<path d="M122.602 962.928L125.061 964.645L125.602 963.871V962.928H122.602ZM111.686 971.312L112.785 974.104L112.796 974.099L111.686 971.312ZM78.7793 969.678L77.2195 972.24L77.2263 972.244L77.2331 972.249L78.7793 969.678ZM67.4941 957.127L64.797 958.44L64.8004 958.448L64.8039 958.455L67.4941 957.127ZM63.4336 938.301H60.4336V938.316L60.4337 938.33L63.4336 938.301ZM71.502 904.709L69.2171 902.765L69.2108 902.772L71.502 904.709ZM113.637 901.334L111.705 903.629L111.715 903.637L113.637 901.334ZM122.602 918.736V921.736H126.067L125.571 918.306L122.602 918.736ZM112.477 918.736L109.528 919.287L109.985 921.736H112.477V918.736ZM78.8848 910.668L76.4678 908.891L76.4656 908.894L78.8848 910.668ZM73.6113 931.34L70.6113 931.328V931.34H73.6113ZM79.5176 958.182L77.1434 960.016L77.1495 960.023L79.5176 958.182ZM112.529 960.238L114.726 962.281L115.529 961.418V960.238H112.529ZM112.529 942.994H115.529V939.994H112.529V942.994ZM94.7578 942.994H91.7578V945.994H94.7578V942.994ZM94.7578 934.768V931.768H91.7578V934.768H94.7578ZM122.602 934.768H125.602V931.768H122.602V934.768ZM120.142 961.21C117.911 964.405 114.767 966.855 110.575 968.526L112.796 974.099C117.956 972.043 122.089 968.903 125.061 964.645L120.142 961.21ZM110.586 968.521C106.369 970.183 101.342 971.055 95.4434 971.055V977.055C101.92 977.055 107.721 976.099 112.785 974.104L110.586 968.521ZM95.4434 971.055C89.6713 971.055 84.662 969.715 80.3255 967.107L77.2331 972.249C82.5997 975.476 88.6998 977.055 95.4434 977.055V971.055ZM80.3391 967.115C76.005 964.477 72.6209 960.736 70.1844 955.799L64.8039 958.455C67.7112 964.346 71.8505 968.972 77.2195 972.24L80.3391 967.115ZM70.1913 955.813C67.7823 950.867 66.5002 945.044 66.4334 938.271L60.4337 938.33C60.5076 945.831 61.9325 952.559 64.797 958.44L70.1913 955.813ZM66.4336 938.301V931.604H60.4336V938.301H66.4336ZM66.4336 931.604C66.4336 920.473 69.022 912.29 73.7931 906.646L69.2108 902.772C63.2241 909.855 60.4336 919.602 60.4336 931.604H66.4336ZM73.7868 906.653C78.5317 901.076 85.2239 898.164 94.2832 898.164V892.164C83.7956 892.164 75.3003 895.615 69.2171 902.765L73.7868 906.653ZM94.2832 898.164C101.777 898.164 107.486 900.078 111.705 903.629L115.569 899.039C110.014 894.364 102.82 892.164 94.2832 892.164V898.164ZM111.715 903.637C115.927 907.153 118.627 912.225 119.633 919.166L125.571 918.306C124.396 910.201 121.12 903.672 115.559 899.031L111.715 903.637ZM122.602 915.736H112.477V921.736H122.602V915.736ZM115.426 918.185C114.389 912.636 112.147 908.118 108.447 905.009C104.742 901.897 99.9303 900.496 94.3359 900.496V906.496C98.9369 906.496 102.246 907.636 104.588 909.603C106.935 911.575 108.666 914.677 109.528 919.287L115.426 918.185ZM94.3359 900.496C86.7531 900.496 80.6355 903.223 76.4678 908.891L81.3017 912.445C84.1652 908.551 88.3484 906.496 94.3359 906.496V900.496ZM76.4656 908.894C72.4577 914.359 70.6477 921.977 70.6114 931.328L76.6113 931.352C76.6452 922.632 78.3509 916.469 81.304 912.442L76.4656 908.894ZM70.6113 931.34V937.615H76.6113V931.34H70.6113ZM70.6113 937.615C70.6113 946.669 72.6823 954.24 77.1434 960.016L81.8918 956.348C78.4779 951.928 76.6113 945.788 76.6113 937.615H70.6113ZM77.1495 960.023C81.6857 965.856 87.906 968.775 95.4961 968.775V962.775C89.6565 962.775 85.2244 960.633 81.8856 956.34L77.1495 960.023ZM95.4961 968.775C99.5055 968.775 103.126 968.331 106.315 967.386L104.611 961.633C102.104 962.376 99.0804 962.775 95.4961 962.775V968.775ZM106.315 967.386C109.632 966.403 112.466 964.711 114.726 962.281L110.332 958.195C108.866 959.773 106.989 960.929 104.611 961.633L106.315 967.386ZM115.529 960.238V942.994H109.529V960.238H115.529ZM112.529 939.994H94.7578V945.994H112.529V939.994ZM97.7578 942.994V934.768H91.7578V942.994H97.7578ZM94.7578 937.768H122.602V931.768H94.7578V937.768ZM119.602 934.768V962.928H125.602V934.768H119.602ZM194.795 956.811L197.528 958.048L197.531 958.042L194.795 956.811ZM151.711 969.625L150.095 972.153L150.102 972.157L150.109 972.161L151.711 969.625ZM140.795 956.916L138.075 958.181L138.079 958.191L138.084 958.202L140.795 956.916ZM136.84 937.773H133.84V937.788L133.84 937.803L136.84 937.773ZM151.553 899.699L153.168 902.227L153.173 902.224L151.553 899.699ZM183.932 899.646L182.316 902.174L182.327 902.181L182.338 902.188L183.932 899.646ZM194.795 912.566L192.056 913.791L192.059 913.798L194.795 912.566ZM183.035 911.195L180.633 912.993L180.639 913.001L183.035 911.195ZM152.555 911.195L150.161 909.387L150.159 909.39L152.555 911.195ZM146.912 931.445L143.912 931.409L143.912 931.427V931.445H146.912ZM152.449 957.918L150.025 959.685L150.032 959.695L150.039 959.704L152.449 957.918ZM182.982 958.34L185.376 960.148L185.382 960.14L182.982 958.34ZM188.52 937.826L191.519 937.862L191.52 937.844V937.826H188.52ZM195.592 937.088C195.592 944.278 194.382 950.417 192.059 955.579L197.531 958.042C200.27 951.954 201.592 944.945 201.592 937.088H195.592ZM192.062 955.573C189.743 960.695 186.52 964.489 182.426 967.094L185.648 972.156C190.836 968.854 194.785 964.105 197.528 958.048L192.062 955.573ZM182.426 967.094C178.326 969.704 173.485 971.055 167.795 971.055V977.055C174.48 977.055 180.467 975.453 185.648 972.156L182.426 967.094ZM167.795 971.055C162.26 971.055 157.465 969.711 153.313 967.089L150.109 972.161C155.309 975.445 161.236 977.055 167.795 977.055V971.055ZM153.326 967.097C149.169 964.44 145.889 960.656 143.505 955.63L138.084 958.202C140.904 964.145 144.901 968.833 150.095 972.153L153.326 967.097ZM143.515 955.651C141.16 950.585 139.907 944.639 139.84 937.744L133.84 937.803C133.914 945.392 135.297 952.208 138.075 958.181L143.515 955.651ZM139.84 937.773V932.236H133.84V937.773H139.84ZM139.84 932.236C139.84 925.202 141.062 919.116 143.422 913.911L137.957 911.433C135.184 917.549 133.84 924.505 133.84 932.236H139.84ZM143.422 913.911C145.778 908.714 149.039 904.866 153.168 902.227L149.937 897.171C144.715 900.509 140.734 905.31 137.957 911.433L143.422 913.911ZM153.173 902.224C157.362 899.536 162.169 898.164 167.689 898.164V892.164C161.116 892.164 155.166 893.816 149.932 897.174L153.173 902.224ZM167.689 898.164C173.334 898.164 178.174 899.527 182.316 902.174L185.547 897.119C180.337 893.789 174.35 892.164 167.689 892.164V898.164ZM182.338 902.188C186.488 904.79 189.739 908.609 192.056 913.791L197.534 911.342C194.789 905.204 190.797 900.409 185.525 897.105L182.338 902.188ZM192.059 913.798C194.383 918.962 195.592 925.084 195.592 932.236H201.592C201.592 924.413 200.269 917.421 197.531 911.335L192.059 913.798ZM195.592 932.236V937.088H201.592V932.236H195.592ZM191.52 932.131C191.52 922.683 189.632 914.964 185.431 909.39L180.639 913.001C183.751 917.13 185.52 923.368 185.52 932.131H191.52ZM185.437 909.398C181.166 903.689 175.124 900.865 167.689 900.865V906.865C173.403 906.865 177.592 908.928 180.633 912.993L185.437 909.398ZM167.689 900.865C160.4 900.865 154.448 903.711 150.161 909.387L154.948 913.004C158.044 908.906 162.182 906.865 167.689 906.865V900.865ZM150.159 909.39C145.986 914.927 144.022 922.383 143.912 931.409L149.912 931.482C150.013 923.21 151.811 917.167 154.951 913.001L150.159 909.39ZM143.912 931.445V937.088H149.912V931.445H143.912ZM143.912 937.088C143.912 946.296 145.834 953.938 150.025 959.685L154.873 956.15C151.681 951.773 149.912 945.529 149.912 937.088H143.912ZM150.039 959.704C154.357 965.53 160.385 968.459 167.795 968.459V962.459C162.197 962.459 157.994 960.361 154.859 956.131L150.039 959.704ZM167.795 968.459C175.167 968.459 181.161 965.727 185.376 960.148L180.589 956.531C177.632 960.445 173.501 962.459 167.795 962.459V968.459ZM185.382 960.14C189.496 954.655 191.41 947.097 191.519 937.862L185.52 937.791C185.418 946.344 183.64 952.462 180.582 956.54L185.382 960.14ZM191.52 937.826V932.131H185.52V937.826H191.52ZM223.957 964.721H220.957V967.721H223.957V964.721ZM260.344 964.721H263.344V961.721H260.344V964.721ZM260.344 973V976H263.344V973H260.344ZM213.779 973H210.779V976H213.779V973ZM213.779 896.219V893.219H210.779V896.219H213.779ZM223.957 896.219H226.957V893.219H223.957V896.219ZM223.957 967.721H260.344V961.721H223.957V967.721ZM257.344 964.721V973H263.344V964.721H257.344ZM260.344 970H213.779V976H260.344V970ZM216.779 973V896.219H210.779V973H216.779ZM213.779 899.219H223.957V893.219H213.779V899.219ZM220.957 896.219V964.721H226.957V896.219H220.957ZM271.893 973H268.893V976H271.893V973ZM271.893 896.219V893.219H268.893V896.219H271.893ZM323.15 913.252L320.478 914.614L320.481 914.621L320.485 914.628L323.15 913.252ZM327.422 932.025H330.422V932.018L330.422 932.01L327.422 932.025ZM323.203 955.967L320.537 954.591L320.534 954.598L320.53 954.604L323.203 955.967ZM311.232 968.518L309.765 965.901L309.757 965.905L311.232 968.518ZM293.145 973V976H293.16L293.175 976L293.145 973ZM282.018 904.551V901.551H279.018V904.551H282.018ZM282.018 964.721H279.018V967.721H282.018V964.721ZM310.863 957.443L308.632 955.438L308.624 955.447L310.863 957.443ZM311.232 911.934L308.936 913.864L308.944 913.873L308.951 913.882L311.232 911.934ZM293.83 904.551L293.858 901.551L293.844 901.551H293.83V904.551ZM274.893 973V896.219H268.893V973H274.893ZM271.893 899.219H293.566V893.219H271.893V899.219ZM293.566 899.219C299.79 899.219 305.167 900.59 309.789 903.249L312.781 898.048C307.137 894.801 300.703 893.219 293.566 893.219V899.219ZM309.789 903.249C314.401 905.902 317.955 909.665 320.478 914.614L325.823 911.89C322.791 905.94 318.435 901.301 312.781 898.048L309.789 903.249ZM320.485 914.628C323.049 919.596 324.389 925.375 324.422 932.04L330.422 932.01C330.385 924.543 328.877 917.806 325.816 911.876L320.485 914.628ZM324.422 932.025V936.93H330.422V932.025H324.422ZM324.422 936.93C324.422 943.78 323.094 949.638 320.537 954.591L325.869 957.343C328.938 951.397 330.422 944.564 330.422 936.93H324.422ZM320.53 954.604C318.015 959.54 314.438 963.281 309.765 965.901L312.7 971.134C318.434 967.919 322.837 963.292 325.876 957.329L320.53 954.604ZM309.757 965.905C305.097 968.537 299.58 969.934 293.114 970L293.175 976C300.49 975.925 307.032 974.334 312.707 971.13L309.757 965.905ZM293.145 970H271.893V976H293.145V970ZM279.018 904.551V964.721H285.018V904.551H279.018ZM282.018 967.721H292.67V961.721H282.018V967.721ZM292.67 967.721C301.143 967.721 308.096 965.057 313.103 959.439L308.624 955.447C304.983 959.532 299.807 961.721 292.67 961.721V967.721ZM313.095 959.448C318.108 953.869 320.402 946.145 320.402 936.719H314.402C314.402 945.222 312.337 951.314 308.632 955.438L313.095 959.448ZM320.402 936.719V932.236H314.402V936.719H320.402ZM320.402 932.236C320.402 923.072 318.24 915.519 313.514 909.985L308.951 913.882C312.452 917.981 314.402 923.963 314.402 932.236H320.402ZM313.529 910.003C308.78 904.354 302.077 901.628 293.858 901.551L293.802 907.551C300.63 907.614 305.528 909.81 308.936 913.864L313.529 910.003ZM293.83 901.551H282.018V907.551H293.83V901.551Z" fill="white"/>
</g>
<defs>
<clipPath id="clip0">
<rect width="1920" height="1080" fill="white"/>
</clipPath>
</defs>
</svg>
